<?xml version="1.0" standalone="no"?>
<!DOCTYPE svg PUBLIC "-//W3C//DTD SVG 1.1//EN" "http://www.w3.org/Graphics/SVG/1.1/DTD/svg11.dtd" >
<svg>
<metadata>
Created by FontForge 20090914 at Mon Jul  7 16:49:31 2014
 By www-data
&#194;&#169; 2009 The Monotype Corporation. All rights reserved. 
</metadata>
<defs>
<font id="ShonarBangla" horiz-adv-x="847" >
  <font-face 
    font-family="Shonar Bangla"
    font-weight="400"
    font-stretch="normal"
    units-per-em="2048"
    panose-1="2 11 5 2 4 2 4 2 2 3"
    ascent="1638"
    descent="-410"
    x-height="757.999"
    cap-height="1121"
    bbox="-1004 -996 2183 1654"
    underline-thickness="102"
    underline-position="-103"
    unicode-range="U+0020-U+25CC"
  />
<missing-glyph horiz-adv-x="731" 
d="M91 0v1461h549v-1461h-549zM183 91h365v1279h-365v-1279z" />
    <glyph glyph-name=".notdef" horiz-adv-x="731" 
d="M91 0v1461h549v-1461h-549zM183 91h365v1279h-365v-1279z" />
    <glyph glyph-name="space" unicode=" " horiz-adv-x="423" 
 />
    <glyph glyph-name="exclam" unicode="!" horiz-adv-x="564" 
d="M298 297h-32l-72 670l-3.5 38c-1 10.667 -1.5 19.667 -1.5 27c0 34.667 9.16699 62.5 27.5 83.5s40.5 31.5 66.5 31.5s47.833 -10.333 65.5 -31s26.5 -52 26.5 -94c0 -14 -1 -32.333 -3 -55zM281 160c12.667 0 24.667 -2.5 36 -7.5s21.166 -11.667 29.499 -20
s14.833 -18 19.5 -29s7 -22.5 7 -34.5c0 -12.667 -2.33301 -24.667 -7 -36s-11.167 -21.166 -19.5 -29.499s-18.166 -14.833 -29.499 -19.5s-23.333 -7 -36 -7s-24.667 2.33301 -36 7s-21.166 11.167 -29.499 19.5s-14.833 18.166 -19.5 29.499s-7 23.333 -7 36
c0 12 2.33301 23.5 7 34.5s11.167 20.667 19.5 29s18.166 15 29.499 20s23.333 7.5 36 7.5z" />
    <glyph glyph-name="quotedbl" unicode="&#x22;" horiz-adv-x="691" 
d="M476 664l-43.999 241.999c-5.33301 28 -9.33301 50.5 -12 67.5s-4.5 30.333 -5.5 40s-1.66699 16.834 -2 21.501s-0.5 8.66699 -0.5 12c0 34.667 7.66699 60 23 76s35.666 24 60.999 24c24 0 43.833 -8 59.5 -24s23.5 -37.333 23.5 -64
c0 -48.667 -5.33301 -99.667 -16 -153l-47 -242h-40zM174.001 663.999l-46.001 244.999c-12 66.667 -18 112.334 -18 137.001c0 36 7.33301 61.833 22 77.5s34.334 23.5 59.001 23.5c24 0 44 -8.16699 60 -24.5s24 -37.833 24 -64.5c0 -22 -7 -72 -21 -150l-45 -244h-35z
" />
    <glyph glyph-name="numbersign" unicode="#" 
d="M95 -23l77 376h-141v68h154l57 284h-211v66h227l75 376h69l-75 -376h278l81 376h68l-78 -376h140v-66h-153l-58 -284h211v-68h-225l-77 -376h-67l76 376h-281l-78 -376h-69zM255 421h280l60 284h-282z" />
    <glyph glyph-name="dollar" unicode="$" 
d="M89 276l37 0.00195312c6 -76 29.5 -134 70.5 -174s102.833 -63.667 185.5 -71v483c-62.667 38.667 -114.5 74.667 -155.5 108s-71.833 65 -92.5 95c-29.333 42.667 -44 93.667 -44 153c0 67.333 25 126.666 75 177.999c50 50 122.333 80.667 217 92v76h53v-76
c22.667 -1.33301 43.5 -3.5 62.5 -6.5s36.167 -6.16699 51.5 -9.5c16 -4 69 -23 159 -57v-247h-32c-4 44 -11.5 81.667 -22.5 113s-26.333 57.666 -46 78.999s-43.834 37.666 -72.501 48.999s-62 19 -100 23v-420c138 -96 227 -167.667 267 -215s60 -104.333 60 -171
c0 -76 -29 -143 -87 -201c-56.667 -57.333 -136.667 -90.666 -240 -99.999v-106h-53v106c-26 0.666992 -50.833 2.5 -74.5 5.5s-47.167 7 -70.5 12s-47.166 11.333 -71.499 19s-49.833 17.167 -76.5 28.5v234zM382 1083c-56 -6.66699 -97.167 -24.167 -123.5 -52.5
s-39.5 -63.833 -39.5 -106.5c0 -20 2.83301 -39.333 8.5 -58s15 -37 28 -55s29.833 -36.167 50.5 -54.5s46 -37.5 76 -57.5v384zM435 31.002c41.333 7.33301 73 17.334 95 30.001c30.667 19.333 55 44.5 73 75.5s27 64.5 27 100.5c0 35.333 -11 69.666 -33 102.999
c-21.333 32.667 -75.333 78.667 -162 138v-447z" />
    <glyph glyph-name="percent" unicode="%" horiz-adv-x="1411" 
d="M1151 1147l-817 -1193h-73l817 1193h73zM301 1147c37.333 0 70.667 -8.66797 100 -26.001s54 -40.166 74 -68.499s35.167 -60.833 45.5 -97.5s15.5 -74.334 15.5 -113.001c0 -47.333 -6.33301 -89.666 -19 -126.999s-29.667 -68.833 -51 -94.5
s-46.333 -45.334 -75 -59.001s-59.334 -20.5 -92.001 -20.5c-32 0 -62.5 7.33301 -91.5 22s-54.333 35.334 -76 62.001s-39 58.5 -52 95.5s-19.5 77.5 -19.5 121.5c0 48.667 7 92 21 130s32.333 70 55 96s48.334 45.667 77.001 59s58 20 88 20zM299.001 1101
c-14 0 -27.498 -3.33203 -40.498 -9.99902s-24.5 -19.334 -34.5 -38.001s-18 -44.834 -24 -78.501s-9 -77.5 -9 -131.5c0 -39.333 1.66699 -75.166 5 -107.499s9.16602 -59.833 17.499 -82.5s19.166 -40.167 32.499 -52.5s30 -18.5 50 -18.5c34 0 60.667 22 80 66
s29 107.333 29 190c0 87.333 -9.16699 153 -27.5 197s-44.5 66 -78.5 66zM1113 557c34 0 65.502 -7.83301 94.502 -23.5s54.167 -37.167 75.5 -64.5s38.166 -59.333 50.499 -96s18.5 -76 18.5 -118c0 -50 -6.5 -93.833 -19.5 -131.5s-30.5 -69 -52.5 -94
s-47.5 -43.833 -76.5 -56.5s-59.5 -19 -91.5 -19c-30 0 -59 7.16699 -87 21.5s-53 34.333 -75 60s-39.667 56.167 -53 91.5s-20 74.333 -20 117c0 50.667 6.83301 95.5 20.5 134.5s31.5 71.833 53.5 98.5s47.167 46.667 75.5 60s57.166 20 86.499 20zM1114 513
c-16 0 -30.5 -4.83301 -43.5 -14.5s-24.167 -25 -33.5 -46s-16.5 -48.167 -21.5 -81.5s-7.5 -74 -7.5 -122c0 -86 9.5 -149 28.5 -189s44.833 -60 77.5 -60c31.333 0 57 20.667 77 62s30 105 30 191c0 88.667 -9.33301 154.167 -28 196.5s-45 63.5 -79 63.5z" />
    <glyph glyph-name="ampersand" unicode="&#x26;" horiz-adv-x="1317" 
d="M864 722l348.005 -0.000976562v-31c-48 -2.66699 -83.667 -13.334 -107 -32.001c-6 -4.66699 -14.333 -14.5 -25 -29.5s-22.834 -33.5 -36.501 -55.5l-45 -73.5l-51.5 -83l-56 -84c-19.333 -27.667 -38.333 -53.5 -57 -77.5
c24.667 -28.667 47.834 -52.834 69.501 -72.501s42.5 -35.5 62.5 -47.5s39.5 -20.667 58.5 -26s38.5 -8 58.5 -8c38 0 70.167 10.333 96.5 31s45.166 51 56.499 91l30 -22c-20 -78 -52.667 -135.5 -98 -172.5s-98 -55.5 -158 -55.5c-45.333 0 -91.333 12.333 -138 37
s-97.667 66.334 -153 125.001c-34 -30.667 -66 -56.334 -96 -77.001s-59.333 -37.334 -88 -50.001s-57.334 -21.667 -86.001 -27s-58.667 -8 -90 -8c-46 0 -87.333 6.66699 -124 20s-67.834 31.166 -93.501 53.499s-45.334 48.5 -59.001 78.5s-20.5 61.667 -20.5 95
s5.33301 66.5 16 99.5s29.167 66.333 55.5 100s61.5 67.5 105.5 101.5s99 69 165 105c-12.667 28.667 -23.334 54.5 -32.001 77.5s-15.5 44.167 -20.5 63.5s-8.66699 37.5 -11 54.5s-3.5 33.833 -3.5 50.5c0 42 7.66699 79.833 23 113.5s36 62.334 62 86.001
s56.5 42 91.5 55s72.5 19.5 112.5 19.5c32 0 61.667 -5.33301 89 -16s51 -25.167 71 -43.5s35.5 -39.666 46.5 -63.999s16.5 -50.5 16.5 -78.5c0 -29.333 -4.5 -56.333 -13.5 -81s-24.167 -48.667 -45.5 -72s-49.333 -46.666 -84 -69.999s-78 -48.333 -130 -75
c70 -125.333 143.333 -239.666 220 -342.999c96.667 115.333 145 213 145 293c0 10 -1.5 20.333 -4.5 31s-7.66699 20.334 -14 29.001s-14.333 16 -24 22s-21.167 10 -34.5 12v31zM548.005 699.999c136.667 64.667 205 147.668 205 249.001c0 20 -3.33301 38.5 -10 55.5
s-15.667 31.5 -27 43.5s-25 21.5 -41 28.5s-33 10.5 -51 10.5c-24 0 -45.167 -4.83301 -63.5 -14.5s-33.5 -21.834 -45.5 -36.501s-21 -30.667 -27 -48s-9 -33.666 -9 -48.999c0 -14.667 1 -29.167 3 -43.5s5.5 -30.333 10.5 -48s12 -38.334 21 -62.001
s20.5 -52.167 34.5 -85.5zM676.005 184l-66.501 91.001l-48.5 69.5c-14 20.333 -26.333 39 -37 56s-20.667 34 -30 51l-28.5 54l-32.5 65.5c-133.333 -76 -200 -167.333 -200 -274c0 -29.333 4.83301 -57.333 14.5 -84s23.667 -50.334 42 -71.001s40.5 -37.167 66.5 -49.5
s55.333 -18.5 88 -18.5c18 0 35 1.5 51 4.5s32.833 8.5 50.5 16.5s36.834 19.167 57.501 33.5s45 32.833 73 55.5z" />
    <glyph glyph-name="quotesingle" unicode="'" horiz-adv-x="305" 
d="M131 664l-45 245c-6.66699 34 -11.5 62.5 -14.5 85.5s-4.5 40.167 -4.5 51.5c0 36 7.16699 61.833 21.5 77.5s33.833 23.5 58.5 23.5s45.167 -8.16699 61.5 -24.5s24.5 -37.5 24.5 -63.5c0 -20.667 -7 -71 -21 -151l-45 -244h-36z" />
    <glyph glyph-name="parenleft" unicode="(" horiz-adv-x="564" 
d="M526 -362c-76 38.667 -142.5 85.501 -199.5 140.501s-104.667 115.667 -143 182s-67 137.333 -86 213s-28.5 153.167 -28.5 232.5c0 84.667 11.167 166.667 33.5 246s53.833 152.833 94.5 220.5s88.834 127.667 144.501 180s117.167 93.5 184.5 123.5v-35
c-98.667 -54 -172.834 -141.167 -222.501 -261.5s-74.5 -270.833 -74.5 -451.5c0 -51.333 2 -101.666 6 -150.999s9.5 -95.833 16.5 -139.5s15.333 -83.834 25 -120.501s20.167 -68 31.5 -94c20 -46 47.167 -90.333 81.5 -133s79.833 -83.334 136.5 -122.001v-30z" />
    <glyph glyph-name="parenright" unicode=")" horiz-adv-x="564" 
d="M38 1176c76.667 -37.333 143.501 -83.833 200.501 -139.5s104.5 -117 142.5 -184s66.5 -138.333 85.5 -214s28.5 -152.5 28.5 -230.5c0 -84.667 -11.167 -166.667 -33.5 -246s-53.666 -152.833 -93.999 -220.5s-88.5 -127.667 -144.5 -180s-117.667 -93.5 -185 -123.5v30
c99.333 55.333 173.666 143 222.999 263s74 270.667 74 452c0 51.333 -2 101.666 -6 150.999s-9.5 95.833 -16.5 139.5s-15.333 83.834 -25 120.501s-20.167 67.667 -31.5 93c-21.333 46 -48.833 90.167 -82.5 132.5s-78.834 82.833 -135.501 121.5v35z" />
    <glyph glyph-name="asterisk" unicode="*" 
d="M409 863c-2 22 -5.8291 44.6602 -11.4961 67.9932s-11.5 45.5 -17.5 66.5l-16 55.5c-4.66699 16 -7 27.667 -7 35c0 28.667 6.83301 50.5 20.5 65.5s30.5 22.5 50.5 22.5c16.667 0 31.334 -7.33301 44.001 -22s19 -36 19 -64c0 -11.333 -2.33301 -26.166 -7 -44.499
l-15.5 -59l-16.5 -64c-5.33301 -21.667 -8.66602 -41.5 -9.99902 -59.5c15.333 9.33301 29.666 20 42.999 32s26.333 25 39 39c19.333 22 35.666 39.5 48.999 52.5s25.166 22.667 35.499 29s19.666 10.333 27.999 12s17.166 2.5 26.499 2.5
c18.667 0 34.167 -6.16699 46.5 -18.5s18.5 -26.833 18.5 -43.5c0 -10 -1.5 -19.333 -4.5 -28s-10 -17.167 -21 -25.5s-27.333 -16.666 -49 -24.999s-51.5 -16.5 -89.5 -24.5c-21.333 -4.66699 -40.833 -9.66699 -58.5 -15s-33.5 -11 -47.5 -17
c14.667 -7.33301 30.667 -14 48 -20s36.333 -10.667 57 -14c34 -6 61.5 -13 82.5 -21s37.333 -16.5 49 -25.5s19.667 -18.5 24 -28.5s6.5 -20 6.5 -30c0 -16.667 -6.16699 -31 -18.5 -43s-26.833 -18 -43.5 -18c-8.66699 0 -17.5 1 -26.5 3s-18.667 6.33301 -29 13
s-22 16.334 -35 29.001s-28.167 29.334 -45.5 50.001c-22.667 26.667 -51 52 -85 76c0.666992 -15.333 2.66699 -31.666 6 -48.999s7.66602 -35.333 12.999 -54c20 -65.333 30 -109.666 30 -132.999c0 -22 -6.5 -40.5 -19.5 -55.5s-27.167 -22.5 -42.5 -22.5
c-8 0 -16.167 1.33301 -24.5 4s-16.166 7 -23.499 13s-13.333 14 -18 24s-7 22.667 -7 38c0 12 2 26.667 6 44s8.5 34.5 13.5 51.5s9.83301 32.5 14.5 46.5s7.66699 24 9 30l5 26.5c2 10.333 3.66699 22.5 5 36.5c-34 -21.333 -62.667 -45.333 -86 -72l-46 -48.5
c-12.667 -13 -24 -23.167 -34 -30.5s-19.333 -12.5 -28 -15.5s-17.667 -4.5 -27 -4.5c-18.667 0 -34.667 6.33301 -48 19s-20 26.667 -20 42c0 14 5.66699 28.5 17 43.5s28.333 27.5 51 37.5c4.66699 2 14.167 4.66699 28.5 8l50 11.5c19 4.33301 39.333 9.66602 61 15.999
s42.5 13.833 62.5 22.5c-15.333 7.33301 -31.833 13.833 -49.5 19.5s-36.834 10.834 -57.501 15.501c-69.333 14 -111.333 26.667 -126 38c-24.667 18 -37 40.333 -37 67c0 14.667 6.16699 28.167 18.5 40.5s26.833 18.5 43.5 18.5c18 0 37 -6 57 -18s45.333 -35.333 76 -70
c15.333 -18 30.833 -33.667 46.5 -47s31.5 -24.666 47.5 -33.999z" />
    <glyph glyph-name="plus" unicode="+" horiz-adv-x="955" 
d="M442 117v412h-411v68h411v411h67v-411h413v-68h-413v-412h-67z" />
    <glyph glyph-name="comma" unicode="," horiz-adv-x="423" 
d="M91 -246c28 9.33301 53 21.5 75 36.5s40.833 32 56.5 51s27.5 39.167 35.5 60.5s12 43 12 65c0 9.33301 -2.16699 17.333 -6.5 24s-8.5 10 -12.5 10c-2 0 -5.5 -1.33301 -10.5 -4s-10.667 -5.5 -17 -8.5s-13.333 -5.66699 -21 -8s-15.5 -3.5 -23.5 -3.5
c-26.667 0 -48 8 -64 24s-24 38 -24 66c0 14 2.83301 26.833 8.5 38.5s13.167 22 22.5 31s20.5 16 33.5 21s27.167 7.5 42.5 7.5c17.333 0 34.333 -4.16699 51 -12.5s31.5 -20.166 44.5 -35.499s23.5 -33.5 31.5 -54.5s12 -44.5 12 -70.5c0 -28 -4.83301 -55.5 -14.5 -82.5
s-24.5 -52.333 -44.5 -76s-45.5 -45.334 -76.5 -65.001s-67.833 -36.5 -110.5 -50.5v36z" />
    <glyph glyph-name="hyphen" unicode="-" horiz-adv-x="564" 
d="M69 442h427v-124h-427v124z" />
    <glyph glyph-name="hyphen" unicode="&#xad;" horiz-adv-x="564" 
d="M69 442h427v-124h-427v124z" />
    <glyph glyph-name="period" unicode="." horiz-adv-x="423" 
d="M212 160c26 0 47.8311 -8.83301 65.498 -26.5s26.5 -39.167 26.5 -64.5c0 -12.667 -2.33301 -24.667 -7 -36s-11.167 -21.166 -19.5 -29.499s-18.166 -14.833 -29.499 -19.5s-23.333 -7 -36 -7s-24.667 2.33301 -36 7s-21.166 11.167 -29.499 19.5
s-14.833 18.166 -19.5 29.499s-7 23.333 -7 36c0 26 9 47.667 27 65s39.667 26 65 26z" />
    <glyph glyph-name="slash" unicode="/" horiz-adv-x="471" 
d="M475 1176l-406 -1199h-67l407 1199h66z" />
    <glyph glyph-name="zero" unicode="0" 
d="M61 554c0 88 9.83301 168.167 29.5 240.5s46.167 134.5 79.5 186.5s72.166 92.333 116.499 121s91.166 43 140.499 43s95.833 -14.667 139.5 -44s81.667 -69.666 114 -120.999s58 -112 77 -182s28.5 -145.667 28.5 -227c0 -97.333 -10.667 -182.833 -32 -256.5
s-49.333 -135.334 -84 -185.001s-74 -87 -118 -112s-88.667 -37.5 -134 -37.5c-48 0 -93.667 14.5 -137 43.5s-81.166 69 -113.499 120s-58.166 111.5 -77.499 181.5s-29 146.333 -29 229zM223 533c0 -68 3.83301 -132.332 11.5 -192.999s19.5 -113.834 35.5 -159.501
s36.5 -81.834 61.5 -108.501s54.833 -40 89.5 -40c34 0 62.5 9.83301 85.5 29.5s42 45.5 57 77.5s26.667 68.333 35 109s14.333 82.334 18 125.001s5.83398 84.5 6.50098 125.5s1 77.5 1 109.5c0 72 -4 137.667 -12 197s-20.333 110 -37 152s-37.334 74.667 -62.001 98
s-53.667 35 -87 35c-37.333 0 -68.833 -15 -94.5 -45s-46.5 -70.5 -62.5 -121.5s-27.667 -110.167 -35 -177.5s-11 -138.333 -11 -213z" />
    <glyph glyph-name="one" unicode="1" 
d="M198 1011l272.999 134h28v-947c0 -64.667 2.33301 -104 7 -118c4.66699 -15.333 15.667 -27.333 33 -36c16 -7.33301 49.667 -11.666 101 -12.999v-31h-422v31c54.667 1.33301 89 5.66602 103 12.999c15.333 8 26 18.667 32 32c6 14 9 54.667 9 122v605
c0 80 -2.66699 132.333 -8 157c-4 18 -11 31 -21 39s-22.333 12 -37 12c-21.333 0 -49.666 -8.33301 -84.999 -25z" />
    <glyph glyph-name="two" unicode="2" 
d="M777 216l-79 -216.002h-662v31c98.667 89.333 181.834 169.5 249.501 240.5s122.167 135.833 163.5 194.5s71.166 112.834 89.499 162.501s27.5 98.167 27.5 145.5c0 35.333 -5.83301 68 -17.5 98s-27.667 55.833 -48 77.5s-43.833 38.5 -70.5 50.5s-55 18 -85 18
c-56 0 -105.667 -16 -149 -48s-75.666 -79.333 -96.999 -142h-30c6.66699 50.667 19.167 95.834 37.5 135.501s41.166 72.834 68.499 99.501s59.166 47 95.499 61s75.833 21 118.5 21c44.667 0 86.5 -8 125.5 -24s72.833 -37.667 101.5 -65s51.167 -58.833 67.5 -94.5
s24.5 -72.834 24.5 -111.501c0 -70.667 -21 -143.5 -63 -218.5s-100.333 -153.5 -175 -235.5l-167 -180.5c-42.667 -45 -72.667 -75.167 -90 -90.5h292c38 0 69.5 0.833008 94.5 2.5s46.333 5.66699 64 12s32.834 15.5 45.501 27.5s25 28.333 37 49h31z" />
    <glyph glyph-name="three" unicode="3" 
d="M86 908c32 75.333 72.3389 133.664 121.006 174.997s109.667 62 183 62c38 0 72.833 -6.16699 104.5 -18.5s59.167 -29 82.5 -50s41.5 -45.333 54.5 -73s19.5 -56.5 19.5 -86.5c0 -82 -51.333 -166.333 -154 -253c68.667 -26.667 120.667 -65 156 -115
s53 -109.333 53 -178c0 -57.333 -10.667 -110 -32 -158s-51.5 -89.333 -90.5 -124s-85.5 -61.5 -139.5 -80.5s-114 -28.5 -180 -28.5c-38.667 0 -70.5 2.66699 -95.5 8s-44.833 12.166 -59.5 20.499s-25 17.833 -31 28.5s-9 21.334 -9 32.001c0 16 6.5 30 19.5 42
s28.5 18 46.5 18c6.66699 0 13.5 -0.666992 20.5 -2s14.5 -3.33301 22.5 -6s17 -6.5 27 -11.5l35 -17.5c18.667 -10 34.167 -17.667 46.5 -23s23.166 -9.16602 32.499 -11.499s18.166 -3.83301 26.499 -4.5s18.166 -1 29.499 -1c28.667 0 55.667 6 81 18
s47.5 28.167 66.5 48.5s34 43.833 45 70.5s16.5 54.334 16.5 83.001c0 18 -2.16699 36.667 -6.5 56s-10 38 -17 56s-15 34.5 -24 49.5s-18.5 27.167 -28.5 36.5c-12 10.667 -26.333 21.167 -43 31.5s-35 19.666 -55 27.999s-40.833 15 -62.5 20s-42.834 7.5 -63.501 7.5h-27
v24c41.333 6 78 17.333 110 34s58.833 36.834 80.5 60.501s38.167 49.834 49.5 78.501s17 58 17 88c0 28 -4.83301 53.5 -14.5 76.5s-22.834 43 -39.501 60s-36.334 30.167 -59.001 39.5s-47.334 14 -74.001 14c-85.333 0 -156.666 -45.667 -213.999 -137z" />
    <glyph glyph-name="four" unicode="4" 
d="M788 414v-118h-150v-296h-137v296h-475v106l521 743h91v-731h150zM501 414v556l-393 -556h393z" />
    <glyph glyph-name="five" unicode="5" 
d="M735 1121l-63.999 -139.995h-338l-73 -151c66.667 -9.33301 127.834 -26.5 183.501 -51.5s103.834 -56.167 144.501 -93.5s72.334 -80 95.001 -128s34 -99.333 34 -154c0 -46 -6.66699 -88.5 -20 -127.5s-31.333 -74.167 -54 -105.5s-48.834 -58.833 -78.501 -82.5
s-61 -43.5 -94 -59.5s-66.333 -28 -100 -36s-65.834 -12 -96.501 -12c-34 0 -63.167 3.16699 -87.5 9.5s-44.333 14.666 -60 24.999s-27.167 22.166 -34.5 35.499s-11 26.666 -11 39.999c0 15.333 6.33301 29 19 41s28.667 18 48 18c7.33301 0 13.833 -0.333008 19.5 -1
s11.667 -2.33398 18 -5.00098s13.833 -6.66699 22.5 -12s19.667 -13 33 -23c20 -15.333 40.5 -26.333 61.5 -33s42.167 -10 63.5 -10c32 0 62.667 6.5 92 19.5s55.166 31 77.499 54s40.166 49.667 53.499 80s20 63.166 20 98.499c0 33.333 -5.66699 66 -17 98
s-27.5 62.333 -48.5 91s-46.667 54.667 -77 78s-64.5 43 -102.5 59c-59.333 24.667 -141.333 39 -246 43l215 435h402z" />
    <glyph glyph-name="six" unicode="6" 
d="M759 1145l0.00195312 -31.002c-36.667 -3.33301 -69.334 -8.5 -98.001 -15.5s-55.334 -16.167 -80.001 -27.5s-48 -25.166 -70 -41.499s-44.333 -35.833 -67 -58.5c-44.667 -44.667 -81.667 -94.5 -111 -149.5s-54 -120.167 -74 -195.5
c78.667 54.667 158.334 82 239.001 82c38 0 74.167 -8.16699 108.5 -24.5s64.5 -39.166 90.5 -68.499s46.667 -64.333 62 -105s23 -85 23 -133c0 -93.333 -28.667 -178.666 -86 -255.999c-69.333 -94 -159.666 -141 -270.999 -141c-56.667 0 -106.834 13.833 -150.501 41.5
s-80.5 63.5 -110.5 107.5s-52.667 93.333 -68 148s-23 109 -23 163c0 100.667 20.167 196 60.5 286s97.833 170.333 172.5 241c38 35.333 75 64.5 111 87.5s71 41.167 105 54.5s66.667 22.666 98 27.999s61.666 8 90.999 8h48zM245.002 565.998
c-10 -75.333 -14.998 -135.667 -14.998 -181c0 -34.667 4.5 -72.834 13.5 -114.501s22.5 -80.667 40.5 -117s40.667 -66.666 68 -90.999s59.666 -36.5 96.999 -36.5c24 0 47 5.83301 69 17.5s41.667 28.5 59 50.5s31.166 49.333 41.499 82s15.5 70 15.5 112
c0 45.333 -4.66699 89 -14 131s-23.166 79 -41.499 111s-41 57.667 -68 77s-57.833 29 -92.5 29c-10.667 0 -21.334 -0.833008 -32.001 -2.5s-22.5 -5 -35.5 -10s-27.833 -12.167 -44.5 -21.5s-37 -21.333 -61 -36z" />
    <glyph glyph-name="seven" unicode="7" 
d="M170 1121h602v-31l-374 -1113h-93l335 1010h-308c-62 0 -106.667 -7.66699 -134 -23c-46 -25.333 -83 -64.333 -111 -117l-24 9z" />
    <glyph glyph-name="eight" unicode="8" 
d="M325 565c-45.333 36.667 -81.6699 69.001 -109.003 97.001s-48.5 53.833 -63.5 77.5s-25 46.334 -30 68.001s-7.5 44.834 -7.5 69.501c0 36.667 7.33301 71.167 22 103.5s35.5 60.666 62.5 84.999s59.5 43.666 97.5 57.999s80 21.5 126 21.5
c45.333 0 86.5 -6.83301 123.5 -20.5s68.667 -31.834 95 -54.501s46.666 -48.5 60.999 -77.5s21.5 -58.833 21.5 -89.5c0 -21.333 -3 -42.333 -9 -63s-17.5 -42.167 -34.5 -64.5s-40.333 -46.166 -70 -71.499s-68.5 -53 -116.5 -83c48.667 -38 88.834 -71.667 120.501 -101
s55.5 -54.666 71.5 -75.999c20.667 -28.667 36.334 -57.5 47.001 -86.5s16 -59.5 16 -91.5c0 -39.333 -8 -76.333 -24 -111s-38.333 -65 -67 -91s-63 -46.5 -103 -61.5s-84 -22.5 -132 -22.5c-47.333 0 -90.666 7.33301 -129.999 22s-73 34.667 -101 60
s-49.833 54.666 -65.5 87.999s-23.5 68.666 -23.5 105.999c0 24.667 3.83301 49 11.5 73s20.334 48.5 38.001 73.5s40.5 50.833 68.5 77.5s62.667 55 104 85zM454.996 653.001c34 30.667 61.167 57.333 81.5 80s35.666 43.5 45.999 62.5s17 37.5 20 55.5s4.5 38 4.5 60
c0 58.667 -16.167 104.334 -48.5 137.001s-76.833 49 -133.5 49c-28 0 -53.667 -4.5 -77 -13.5s-43.333 -21 -60 -36s-29.667 -32.333 -39 -52s-14 -40.167 -14 -61.5c0 -28.667 7.33301 -57.334 22 -86.001s35.334 -56 62.001 -82zM363.996 533
c-46 -38 -79.9971 -79.8311 -101.997 -125.498s-33 -94.834 -33 -147.501c0 -35.333 5.16699 -67.5 15.5 -96.5s24.666 -53.833 42.999 -74.5s40.166 -36.5 65.499 -47.5s53 -16.5 83 -16.5s57 4.5 81 13.5s44.667 21.333 62 37s30.666 34 39.999 55s14 43.5 14 67.5
c0 25.333 -5.16699 50 -15.5 74s-26.333 49 -48 75s-49.5 54.167 -83.5 84.5s-74.667 64.166 -122 101.499z" />
    <glyph glyph-name="nine" unicode="9" 
d="M89 -23v29.998c36 0.666992 70.667 5 104 13s65.666 20.667 96.999 38s61.666 39.666 90.999 66.999s58.333 61 87 101c58 80.667 98.333 169.334 121 266.001c-87.333 -55.333 -165.666 -83 -234.999 -83c-39.333 0 -76.333 7.83301 -111 23.5s-65 38 -91 67
s-46.667 64.167 -62 105.5s-23 87.333 -23 138c0 54.667 9.16699 106.334 27.5 155.001s43.166 91.334 74.499 128.001s68.333 65.667 111 87s88.334 32 137.001 32c52.667 0 100.834 -13 144.501 -39s81.167 -60.5 112.5 -103.5s55.833 -92.333 73.5 -148
s26.5 -113.5 26.5 -173.5c0 -62 -8 -122.333 -24 -181s-38.833 -114.334 -68.5 -167.001s-66 -101.667 -109 -147s-91.5 -85.666 -145.5 -120.999c-88.667 -58.667 -185.667 -88 -291 -88h-47zM602 552.998c6 35.333 9.99805 67.499 11.998 96.499s3 54.167 3 75.5
s-1.66699 45.333 -5 72s-8.66602 53.5 -15.999 80.5s-16.666 53.333 -27.999 79s-25.166 48.5 -41.499 68.5s-35 36 -56 48s-44.833 18 -71.5 18c-24 0 -47.167 -5.5 -69.5 -16.5s-42 -27.333 -59 -49s-30.667 -49 -41 -82s-15.5 -71.5 -15.5 -115.5
c0 -49.333 4.83301 -94.833 14.5 -136.5s23.5 -78 41.5 -109s39.667 -55.167 65 -72.5s53.666 -26 84.999 -26c12 0 25.833 1.5 41.5 4.5s31.667 7.5 48 13.5s32.5 13.333 48.5 22s30.667 18.334 44 29.001z" />
    <glyph glyph-name="colon" unicode=":" horiz-adv-x="471" 
d="M239 781c12.667 0 24.667 -2.33301 36 -7s21.166 -11.167 29.499 -19.5s14.833 -18.166 19.5 -29.499s7 -23.333 7 -36s-2.33301 -24.667 -7 -36s-11.167 -21.166 -19.5 -29.499s-18.166 -14.833 -29.499 -19.5s-23.333 -7 -36 -7s-24.667 2.33301 -36 7
s-21.166 11.167 -29.499 19.5s-14.833 18.166 -19.5 29.499s-7 23.333 -7 36s2.33301 24.667 7 36s11.167 21.166 19.5 29.499s18.166 14.833 29.499 19.5s23.333 7 36 7zM237 161c12.667 0 24.665 -2.33301 35.998 -7s21.333 -11.167 30 -19.5
s15.334 -18.166 20.001 -29.499s7 -23.333 7 -36s-2.5 -24.667 -7.5 -36s-11.667 -21.166 -20 -29.499s-18.166 -14.833 -29.499 -19.5s-23.333 -7 -36 -7s-24.5 2.33301 -35.5 7s-20.667 11.167 -29 19.5s-14.833 18.166 -19.5 29.499s-7 23.333 -7 36s2.33301 24.667 7 36
s11.167 21.166 19.5 29.499s18 14.833 29 19.5s22.833 7 35.5 7z" />
    <glyph glyph-name="semicolon" unicode=";" horiz-adv-x="471" 
d="M233 782c12.667 0 24.667 -2.33301 36 -7s21.166 -11.167 29.499 -19.5s14.833 -18 19.5 -29s7 -22.833 7 -35.5s-2.33301 -24.667 -7 -36s-11.167 -21.166 -19.5 -29.499s-18.166 -14.833 -29.499 -19.5s-23.333 -7 -36 -7s-24.667 2.33301 -36 7
s-21.166 11.167 -29.499 19.5s-14.833 18.166 -19.5 29.499s-7 23.333 -7 36s2.33301 24.5 7 35.5s11.167 20.667 19.5 29s18.166 14.833 29.499 19.5s23.333 7 36 7zM117 -246c28.667 9.33301 54.168 21.5 76.501 36.5s41 32 56 51s26.5 39.167 34.5 60.5s12 43 12 65
c0 9.33301 -1.83301 17.333 -5.5 24s-8.16699 10 -13.5 10c-2 0 -5.16699 -1.33301 -9.5 -4s-9.83301 -5.5 -16.5 -8.5s-13.834 -5.66699 -21.501 -8s-15.5 -3.5 -23.5 -3.5c-28 0 -49.833 8 -65.5 24s-23.5 38 -23.5 66c0 14 2.83301 26.833 8.5 38.5s13.167 22 22.5 31
s20.5 16 33.5 21s27.167 7.5 42.5 7.5c18 0 35.333 -4.16699 52 -12.5s31.5 -20.166 44.5 -35.499s23.5 -33.5 31.5 -54.5s12 -44.5 12 -70.5c0 -28 -4.83301 -55.5 -14.5 -82.5s-24.5 -52.333 -44.5 -76s-45.667 -45.334 -77 -65.001s-68.333 -36.5 -111 -50.5v36z" />
    <glyph glyph-name="less" unicode="&#x3c;" horiz-adv-x="955" 
d="M32 584l890 385v-72l-766 -332l766 -336v-74l-890 388v41z" />
    <glyph glyph-name="equal" unicode="=" horiz-adv-x="955" 
d="M31 730h892v-68h-892v68zM31 461h892v-68h-892v68z" />
    <glyph glyph-name="greater" unicode="&#x3e;" horiz-adv-x="955" 
d="M920 540l-889 -385v71l766 332l-766 336v75l889 -388v-41z" />
    <glyph glyph-name="question" unicode="?" horiz-adv-x="752" 
d="M342 265c1.33301 36.667 3.66504 68.168 6.99805 94.501s8.83301 52.333 16.5 78s18.334 53.167 32.001 82.5s31.834 65 54.501 107c16.667 32 30.167 59.167 40.5 81.5s18.333 42.5 24 60.5s9.5 35 11.5 51s3 33.333 3 52c0 34.667 -5 66.167 -15 94.5
s-23.833 52.5 -41.5 72.5s-38.167 35.333 -61.5 46s-48.333 16 -75 16c-24 0 -45.667 -3.16699 -65 -9.5s-35.5 -14.666 -48.5 -24.999s-23 -22 -30 -35s-10.5 -25.833 -10.5 -38.5c0 -9.33301 2.5 -20.833 7.5 -34.5s10.667 -27.5 17 -41.5s12 -27.167 17 -39.5
s7.5 -21.5 7.5 -27.5c0 -20 -6.33301 -36.667 -19 -50s-28 -20 -46 -20c-12 0 -23.5 3 -34.5 9s-20.667 14.5 -29 25.5s-15.166 24.667 -20.499 41s-8 34.5 -8 54.5c0 30.667 7 60.334 21 89.001s34 54 60 76s57.333 39.5 94 52.5s77.667 19.5 123 19.5
c48.667 0 92.167 -6.83301 130.5 -20.5s70.833 -32.334 97.5 -56.001s47 -51.334 61 -83.001s21 -65.167 21 -100.5c0 -20.667 -2 -41 -6 -61s-10.833 -41 -20.5 -63s-22.834 -45.333 -39.501 -70s-37.667 -51.334 -63 -80.001
c-80.667 -91.333 -129.667 -155.666 -147 -192.999c-18 -36.667 -29 -88.334 -33 -155.001h-33zM363.999 162.001c26 0 47.999 -9.00098 65.999 -27.001s27 -40 27 -66c0 -12.667 -2.5 -24.5 -7.5 -35.5s-11.667 -20.667 -20 -29s-18.166 -14.833 -29.499 -19.5
s-23.333 -7 -36 -7s-24.667 2.33301 -36 7s-21.166 11.167 -29.499 19.5s-14.833 18 -19.5 29s-7 22.833 -7 35.5s2.33301 24.667 7 36s11.167 21.333 19.5 30s18.166 15.334 29.499 20.001s23.333 7 36 7z" />
    <glyph glyph-name="at" unicode="@" horiz-adv-x="1560" 
d="M1164 792l-96.0039 -330l-31 -107.5l-21.5 -75c-5.66699 -20.333 -10.167 -37 -13.5 -50s-5.83301 -24.167 -7.5 -33.5s-2.66699 -17.5 -3 -24.5s-0.5 -14.833 -0.5 -23.5c0 -17.333 5.83301 -32.166 17.5 -44.499s26.5 -18.5 44.5 -18.5c20 0 42.5 4.83301 67.5 14.5
s50.833 25 77.5 46s52.5 47.5 77.5 79.5s47.5 70.667 67.5 116c40 90.667 60 185 60 283c0 70.667 -12.667 137 -38 199s-61.333 116 -108 162s-103 82.333 -169 109s-139.333 40 -220 40c-63.333 0 -125.166 -8.66699 -185.499 -26s-117 -42.666 -170 -75.999
s-101.5 -74.333 -145.5 -123s-82 -104.667 -114 -168c-63.333 -128 -95 -259.667 -95 -395c0 -95.333 15.667 -183.333 47 -264s75.5 -150.334 132.5 -209.001s125.167 -104.667 204.5 -138s167 -50 263 -50c72 0 141 9.83301 207 29.5s127.667 48.667 185 87
s109.166 86 155.499 143s85.5 122.833 117.5 197.5h48c-24 -75.333 -59.333 -144 -106 -206s-101.5 -115.5 -164.5 -160.5s-132.5 -79.833 -208.5 -104.5s-155.333 -37 -238 -37c-64 0 -126.333 7.83301 -187 23.5s-117.667 38.334 -171 68.001
s-102.333 65.834 -147 108.501s-83 91.167 -115 145.5s-56.833 114 -74.5 179s-26.5 134.5 -26.5 208.5c0 72 8.83301 142 26.5 210s43 132 76 192s72.833 115 119.5 165s99 92.833 157 128.5s121 63.5 189 83.5s139.667 30 215 30c84.667 0 163 -13.333 235 -40
s134.333 -64.834 187 -114.501s93.834 -109.334 123.501 -179.001s44.5 -147.5 44.5 -233.5c0 -49.333 -6 -99.833 -18 -151.5s-28.833 -100.667 -50.5 -147s-47 -88.666 -76 -126.999s-60.5 -68.5 -94.5 -90.5c-68.667 -44.667 -141 -67 -217 -67
c-42 0 -73.667 9.83301 -95 29.5s-32 47.5 -32 83.5c0 30 5 70.667 15 122c-42 -50.667 -79 -91.334 -111 -122.001s-60.667 -54.5 -86 -71.5s-48.5 -28.333 -69.5 -34s-40.833 -8.5 -59.5 -8.5c-19.333 0 -38 4.5 -56 13.5s-34 21.667 -48 38s-25.167 36.5 -33.5 60.5
s-12.5 51 -12.5 81c0 38.667 7 81.167 21 127.5s33.5 92.833 58.5 139.5s55 91.167 90 133.5s73.833 79.166 116.5 110.499c62.667 45.333 119.334 68 170.001 68c36.667 0 67.334 -9.5 92.001 -28.5s41.334 -47.5 50.001 -85.5l28 91zM873.996 758
c-26 0 -52 -8.6709 -78 -26.0039s-51.333 -40.666 -76 -69.999s-48.167 -63.666 -70.5 -102.999s-42.5 -81 -60.5 -125c-32.667 -79.333 -49 -143.333 -49 -192c0 -17.333 2.66699 -33.166 8 -47.499s12.5 -26.666 21.5 -36.999s19.167 -18.333 30.5 -24s23 -8.5 35 -8.5
c65.333 0 136 49.333 212 148c24.667 32 45.334 65.5 62.001 100.5s30.167 68.833 40.5 101.5s17.666 63.167 21.999 91.5s6.5 52.5 6.5 72.5c0 36.667 -10.167 65.667 -30.5 87s-44.833 32 -73.5 32z" />
    <glyph glyph-name="A" unicode="A" horiz-adv-x="1223" 
d="M775 375l-434.002 -0.00195312l-76 -177c-18.667 -42 -28 -74.333 -28 -97c0 -18 8 -33.333 24 -46c16 -13.333 51 -21.333 105 -24v-31h-353v31c47.333 8 77.666 18.667 90.999 32c28 26.667 59.333 80.334 94 161.001l394 923h29l390 -933
c31.333 -73.333 60 -122 86 -146c24.667 -21.333 60.334 -33.666 107.001 -36.999v-31h-442v31c22 0.666992 40.333 3 55 7s26.334 9 35.001 15s14.834 12.833 18.501 20.5s5.5 16.167 5.5 25.5c0 24.667 -11 63 -33 115zM751.998 436.998l-190 453l-196 -453h386z" />
    <glyph glyph-name="B" unicode="B" horiz-adv-x="1130" 
d="M782 572c46 -10 85.1699 -23.6699 117.503 -41.0029s58.666 -37.333 78.999 -60s35.166 -48 44.499 -76s14 -57.333 14 -88c0 -28 -4.66699 -55.667 -14 -83s-22.5 -53.166 -39.5 -77.499s-37.667 -46.166 -62 -65.499s-51.833 -34.666 -82.5 -45.999
c-62 -23.333 -156 -35 -282 -35h-529v31h42c47.333 0 81 14.667 101 44c12.667 18.667 19 59.667 19 123v725c0 68 -8 111.667 -24 131c-20.667 24.667 -52.667 37 -96 37h-42v30h485c54.667 0 103.167 -2.5 145.5 -7.5s79.666 -12.5 111.999 -22.5s60.5 -22.833 84.5 -38.5
s45.333 -34.5 64 -56.5c44 -52 66 -110 66 -174c0 -56.667 -17.167 -107 -51.5 -151s-84.833 -77 -151.5 -99zM349.003 616.997c40.667 -8 92.6641 -12.002 155.997 -12.002c79.333 0 140 8.66699 182 26c40.667 17.333 71.667 44 93 80s32 75.333 32 118
c0 32 -6.66699 62.333 -20 91s-33.166 53.834 -59.499 75.501s-59.166 38.834 -98.499 51.501s-84.666 19 -135.999 19c-55.333 0 -105 -6 -149 -18v-431zM349 80.9951c62.667 -14.667 125.667 -22 189 -22c50.667 0 95.167 6.16699 133.5 18.5s70.333 29 96 50
s45 45.667 58 74s19.5 58.833 19.5 91.5c0 35.333 -7.16699 68.5 -21.5 99.5s-36 58 -65 81s-65.333 41.167 -109 54.5s-95.167 20 -154.5 20c-34 0 -63.167 -0.5 -87.5 -1.5s-43.833 -2.83301 -58.5 -5.5v-460z" />
    <glyph glyph-name="C" unicode="C" horiz-adv-x="1130" 
d="M1020 1147l25.0039 -381.001h-25c-18 58 -39.5 107.5 -64.5 148.5s-53.5 74.333 -85.5 100s-67.333 44.334 -106 56.001s-80.667 17.5 -126 17.5c-55.333 0 -106.666 -11.167 -153.999 -33.5s-88.333 -56 -123 -101s-61.834 -101.833 -81.501 -170.5
s-29.5 -149 -29.5 -241c0 -78.667 9.66699 -148.667 29 -210s47.166 -113.166 83.499 -155.499s80.333 -74.5 132 -96.5s109.834 -33 174.501 -33c36.667 0 70.667 3.33301 102 10s61.666 18.834 90.999 36.501s58.666 41.5 87.999 71.5s61 68.333 95 115l26 -17
c-56 -100 -121.5 -173.167 -196.5 -219.5s-164.167 -69.5 -267.5 -69.5c-79.333 0 -152.333 14 -219 42s-124.334 67.333 -173.001 118s-86.5 110.667 -113.5 180s-40.5 145.666 -40.5 228.999c0 84.667 14.5 163.667 43.5 237s69 137.166 120 191.499
s111.333 97.166 181 128.499s145.167 47 226.5 47c40 0 80.167 -4.83301 120.5 -14.5s80.166 -24.5 119.499 -44.5c11.333 -6 21 -10.667 29 -14s14.667 -5 20 -5c18 0 32.833 7.33301 44.5 22s20.167 33.334 25.5 56.001h29z" />
    <glyph glyph-name="D" unicode="D" horiz-adv-x="1223" 
d="M29 0l0.000976562 30.999h42c47.333 0 81 15 101 45c12 18 18 58.667 18 122v725c0 70 -7.66699 113.667 -23 131c-20.667 24.667 -52.667 37 -96 37h-42v30h456c84.667 0 158.167 -4.5 220.5 -13.5s116.833 -23.333 163.5 -43s86.667 -45.167 120 -76.5
s63.333 -69.333 90 -114c53.333 -89.333 80 -192 80 -308c0 -82 -13.333 -157.667 -40 -227s-66.334 -129.166 -119.001 -179.499s-118.167 -89.5 -196.5 -117.5s-169.5 -42 -273.5 -42h-501zM349.001 80.999c71.333 -15.333 130.001 -22.999 176.001 -22.999
c64 0 123.167 11.667 177.5 35s101.333 56.666 141 99.999s70.667 95.833 93 157.5s33.5 130.834 33.5 207.501c0 77.333 -11.167 146.833 -33.5 208.5s-53.5 114.167 -93.5 157.5s-87.5 76.666 -142.5 99.999s-115.5 35 -181.5 35c-50.667 0 -107.334 -8 -170.001 -24v-954
z" />
    <glyph glyph-name="E" unicode="E" horiz-adv-x="1035" 
d="M354 1060l-0.000976562 -442.996h246c36 0 65.167 3.16699 87.5 9.5s40 16.166 53 29.499s22 30.166 27 50.499s8.16699 44.833 9.5 73.5h30v-390h-30c-4.66699 31.333 -9.66699 57.666 -15 78.999s-13.833 38.5 -25.5 51.5s-28.167 22.333 -49.5 28s-50.333 8.5 -87 8.5
h-246v-370c0 -50 2 -80.333 6 -91c2 -5.33301 4.83301 -10.166 8.5 -14.499s8.66699 -8 15 -11s14.5 -5.33301 24.5 -7s23 -2.5 39 -2.5h190c32 0 59 0.833008 81 2.5s41 5 57 10s30.333 11.667 43 20s26 19.5 40 33.5c33.333 32 68.333 83.333 105 154h33l-97 -281h-864v31
h39c10.667 0 21.834 1.16699 33.501 3.5s22.5 5.83301 32.5 10.5s19 10.667 27 18s14 16 18 26c6.66699 17.333 10 53.666 10 108.999v728c0 35.333 -1.66699 64.166 -5 86.499s-8.66602 37.5 -15.999 45.5c-20 22 -53.333 33 -100 33h-39v30h864v-245h-20
c-8 40.667 -16.5 73.167 -25.5 97.5s-21.333 43 -37 56s-35.834 21.333 -60.501 25s-56 5.5 -94 5.5h-308z" />
    <glyph glyph-name="F" unicode="F" horiz-adv-x="942" 
d="M347 1060l-0.00390625 -440.999h204c24 0 44.333 2.33301 61 7s30.834 12.834 42.501 24.501s20.834 27.5 27.501 47.5s11.667 45 15 75h31v-379h-31c-0.666992 28 -3.5 52 -8.5 72s-13 36.167 -24 48.5s-25.667 21.5 -44 27.5s-41.5 9 -69.5 9h-204v-353
c0 -26.667 0.5 -48.334 1.5 -65.001s3 -30.334 6 -41.001s7.5 -19 13.5 -25s14 -11.667 24 -17c23.333 -12.667 48.666 -19 75.999 -19h41v-31h-482v31h40c46.667 0 80.334 13.333 101.001 40c13.333 18.667 20 61 20 127v725c0 26 -0.5 47.333 -1.5 64
s-3.16699 30.334 -6.5 41.001s-8 19.167 -14 25.5s-13.667 12.166 -23 17.499c-23.333 13.333 -48.666 20 -75.999 20h-40v30h835v-246h-18c-11.333 40.667 -24 73.167 -38 97.5s-30.667 43 -50 56s-42.166 21.5 -68.499 25.5s-57.5 6 -93.5 6h-247z" />
    <glyph glyph-name="G" unicode="G" horiz-adv-x="1223" 
d="M1040 1147l28.0049 -354.001h-28c-34.667 104.667 -83 180.167 -145 226.5s-137.333 69.5 -226 69.5c-65.333 0 -124 -12.833 -176 -38.5s-96 -61.334 -132 -107.001s-63.5 -99.667 -82.5 -162s-28.5 -129.833 -28.5 -202.5c0 -81.333 11.5 -155.666 34.5 -222.999
s54 -125 93 -173s84.667 -85.333 137 -112s107.833 -40 166.5 -40c81.333 0 158.333 20.667 231 62v324c0 28.667 -1 51.667 -3 69s-5.16699 31.333 -9.5 42s-9.83301 18.667 -16.5 24s-14.334 10.333 -23.001 15c-18.667 9.33301 -50.334 14 -95.001 14v31h434v-31h-21
c-18.667 0 -34.667 -2.16699 -48 -6.5s-24.166 -12.5 -32.499 -24.5s-14.5 -28.667 -18.5 -50s-6 -49 -6 -83v-343c-32 -17.333 -63.333 -32.333 -94 -45s-61.834 -23 -93.501 -31s-64.334 -14 -98.001 -18s-69.5 -6 -107.5 -6c-216 0 -380.667 69.667 -494 209
c-84 102.667 -126 222.667 -126 360c0 54 7.5 107 22.5 159s35.833 101.333 62.5 148s58.5 89.334 95.5 128.001s77.5 71 121.5 97c82 48 179 72 291 72c22 0 41.667 -0.666992 59 -2s35 -3.83301 53 -7.5s38 -9 60 -16s49 -16.5 81 -28.5
c15.333 -6 28.166 -10.333 38.499 -13s18.166 -4 23.499 -4c10.667 0 19.667 4.83301 27 14.5s12 28.5 14 56.5h31z" />
    <glyph glyph-name="H" unicode="H" horiz-adv-x="1223" 
d="M348 601h520.996v321c0 26 -0.5 47.5 -1.5 64.5s-3.16699 30.833 -6.5 41.5s-7.83301 19.167 -13.5 25.5s-13.5 12.166 -23.5 17.499c-24.667 13.333 -50 20 -76 20h-39v30h479v-30h-39c-10.667 0 -21.667 -1.16699 -33 -3.5s-22.166 -5.83301 -32.499 -10.5
s-19.666 -10.667 -27.999 -18s-14.5 -16.333 -18.5 -27c-6 -18 -9 -54.667 -9 -110v-724c0 -26 0.5 -47.333 1.5 -64s3.16699 -30.334 6.5 -41.001s8 -19.167 14 -25.5s13.667 -12.166 23 -17.499c23.333 -12.667 48.666 -19 75.999 -19h39v-31h-479v31h39
c46.667 0 80.334 13.333 101.001 40c13.333 18.667 20 61 20 127v342h-521v-342c0 -26.667 0.5 -48.334 1.5 -65.001s3.16699 -30.167 6.5 -40.5s8 -18.666 14 -24.999s14 -12.166 24 -17.499c22.667 -12.667 47.667 -19 75 -19h40v-31h-480v31h40
c46.667 0 80.334 13.333 101.001 40c12.667 17.333 19 59.666 19 126.999v724c0 26.667 -0.5 48.334 -1.5 65.001s-3 30.334 -6 41.001s-7.33301 19.167 -13 25.5s-13.5 12.166 -23.5 17.499c-25.333 13.333 -50.666 20 -75.999 20h-40v30h480v-30h-40
c-22 0 -44 -4.66699 -66 -14s-37 -24.333 -45 -45c-6.66699 -17.333 -10 -54 -10 -110v-321z" />
    <glyph glyph-name="I" unicode="I" horiz-adv-x="564" 
d="M523 31l-0.00195312 -31.002h-481v31h40c46.667 0 80.334 13.333 101.001 40c13.333 18.667 20 61 20 127v725c0 26 -0.5 47.333 -1.5 64s-3.16699 30.334 -6.5 41.001s-8 19.167 -14 25.5s-13.667 12.166 -23 17.499c-24.667 13.333 -50 20 -76 20h-40v30h481v-30h-41
c-45.333 0 -78.666 -13.667 -99.999 -41c-14 -17.333 -21 -59.666 -21 -126.999v-725c0 -26.667 0.5 -48.334 1.5 -65.001s3.16699 -30.167 6.5 -40.5s8 -18.666 14 -24.999s14 -12.166 24 -17.499c22.667 -12.667 47.667 -19 75 -19h41z" />
    <glyph glyph-name="J" unicode="J" horiz-adv-x="659" 
d="M169 1091l-0.00195312 29.9971h480v-30h-40c-45.333 0 -78.666 -13.667 -99.999 -41c-13.333 -17.333 -20 -59.666 -20 -126.999v-548c0 -42.667 -2.16699 -80.667 -6.5 -114s-11.333 -63.666 -21 -90.999s-22.5 -52.166 -38.5 -74.499s-35.333 -43.5 -58 -63.5
c-44.667 -38.667 -99 -58 -163 -58c-26 0 -49.333 3.5 -70 10.5s-38.167 16.333 -52.5 28s-25.333 25.167 -33 40.5s-11.5 31.333 -11.5 48c0 16 2.5 29.5 7.5 40.5s11.5 20 19.5 27s17 12 27 15s20 4.5 30 4.5c8.66699 0 16.834 -0.833008 24.501 -2.5
s15.334 -6.16699 23.001 -13.5s15.667 -18.333 24 -33s18.166 -35 29.499 -61c12.667 -30 29 -45 49 -45c7.33301 0 14.666 2.16699 21.999 6.5s13.833 11.333 19.5 21s10.334 22.334 14.001 38.001s5.5 35.167 5.5 58.5v766c0 26.667 -0.5 48.334 -1.5 65.001
s-3.16699 30.167 -6.5 40.5s-8 18.666 -14 24.999s-14 12.166 -24 17.499c-23.333 13.333 -48.333 20 -75 20h-40z" />
    <glyph glyph-name="K" unicode="K" horiz-adv-x="1223" 
d="M506 622l413.998 -411.004c34 -34 65 -62.167 93 -84.5s54.5 -40.333 79.5 -54s49.167 -23.667 72.5 -30s47.333 -10.166 72 -11.499v-31h-533v31c32 0 55 5.33301 69 16s21 22.667 21 36c0 7.33301 -0.333008 13.5 -1 18.5s-3 10.667 -7 17s-10 14 -18 23
s-19.333 20.833 -34 35.5l-387 383v-362c0 -26.667 0.5 -48.334 1.5 -65.001s3.16699 -30.167 6.5 -40.5s8 -18.666 14 -24.999s14 -12.166 24 -17.499c22.667 -12.667 47.667 -19 75 -19h38v-31h-478v31h40c46.667 0 80.334 13.333 101.001 40c13.333 18.667 20 61 20 127
v725c0 25.333 -0.5 46.166 -1.5 62.499s-3 29.833 -6 40.5s-7.5 19.334 -13.5 26.001s-14 13 -24 19c-24.667 13.333 -50 20 -76 20h-40v30h478v-30h-38c-21.333 0 -43 -4.66699 -65 -14s-37.333 -24.333 -46 -45c-6.66699 -16 -10 -52.333 -10 -109v-343l114 105
l151.5 142.5c41 39.667 73.833 73.334 98.5 101.001s42.334 50.5 53.001 68.5s16 33.333 16 46s-5.66699 23.834 -17 33.501s-31 14.5 -59 14.5h-26v30h412v-30c-18 -1.33301 -34.667 -3.33301 -50 -6s-32 -8.16699 -50 -16.5s-38.5 -20.833 -61.5 -37.5
s-50.833 -39.667 -83.5 -69c-6 -5.33301 -22.833 -22.333 -50.5 -51l-117.5 -119z" />
    <glyph glyph-name="L" unicode="L" horiz-adv-x="1035" 
d="M998 304l-96 -304.003h-868v31h42c47.333 0 81.333 15.333 102 46c11.333 17.333 17 58 17 122v724c0 70 -7.66699 113.667 -23 131c-20.667 24.667 -52.667 37 -96 37h-42v30h508v-30c-30 0 -55.167 -1.5 -75.5 -4.5s-37 -7.16699 -50 -12.5
s-23.333 -11.666 -31 -18.999s-13.834 -15.666 -18.501 -24.999c-8.66699 -16.667 -13 -58.667 -13 -126v-705c0 -38.667 2.83301 -66.667 8.5 -84s17.167 -29.333 34.5 -36c14.667 -5.33301 58 -8 130 -8h82c44 0 80.333 1.33301 109 4s52.834 7.33398 72.501 14.001
s36.667 15.5 51 26.5s28.833 24.833 43.5 41.5s29 37.667 43 63s28.333 55.333 43 90z" />
    <glyph glyph-name="M" unicode="M" horiz-adv-x="1506" 
d="M693 0l-433.001 944.001v-750c0 -69.333 7.33301 -112.333 22 -129c20.667 -22.667 53 -34 97 -34h39v-31h-390v31h40c47.333 0 81 14.333 101 43c12 16.667 18 56.667 18 120v733c0 25.333 -1 48.166 -3 68.499s-8.16699 37.5 -18.5 51.5s-26.166 24.833 -47.499 32.5
s-51.333 11.5 -90 11.5v30h318l407 -877l400 877h317v-30h-38c-48 0 -82 -14.333 -102 -43c-12 -18 -18 -58.333 -18 -121v-733c0 -68.667 7.66699 -111.667 23 -129c20 -22.667 52.333 -34 97 -34h38v-31h-476v31h40c47.333 0 81 14.333 101 43c12 16.667 18 56.667 18 120
v750l-433 -944h-27z" />
    <glyph glyph-name="N" unicode="N" horiz-adv-x="1223" 
d="M-22 1121h304l686 -841v647c0 68 -8 111 -24 129c-21.333 23.333 -53.333 35 -96 35h-39v30h390v-30h-40c-20 0 -37.333 -1.66699 -52 -5s-27 -10.666 -37 -21.999s-17.5 -27.833 -22.5 -49.5s-7.5 -50.834 -7.5 -87.501v-945h-29l-740 903v-691
c0 -68.667 7.66699 -111.667 23 -129c20.667 -22.667 52.667 -34 96 -34h40v-31h-390v31h39c47.333 0 81 14.333 101 43c12 16.667 18 56.667 18 120v780c-16.667 20 -30.667 35.833 -42 47.5s-22 21.167 -32 28.5s-20.667 13.333 -32 18s-25.333 9.66699 -42 15
c-17.333 5.33301 -41.333 8 -72 8v30z" />
    <glyph glyph-name="O" unicode="O" horiz-adv-x="1223" 
d="M619 1147c80.667 0 154.167 -16.3311 220.5 -48.998s123 -76 170 -130s83.5 -115.833 109.5 -185.5s39 -141.5 39 -215.5c0 -84 -14.5 -162.167 -43.5 -234.5s-68.5 -135 -118.5 -188s-108.5 -94.667 -175.5 -125s-138.5 -45.5 -214.5 -45.5
c-76.667 0 -148.167 14.5 -214.5 43.5s-124 69.667 -173 122s-87.667 114.666 -116 186.999s-42.5 151.833 -42.5 238.5c0 80.667 14 156.5 42 227.5s67 132.667 117 185s109.167 93.666 177.5 123.999s142.5 45.5 222.5 45.5zM604 1087c-56.667 0 -107 -12.167 -151 -36.5
s-81.167 -59 -111.5 -104s-53.333 -99.5 -69 -163.5s-23.5 -135.667 -23.5 -215s7.66699 -151.666 23 -216.999s38 -121.666 68 -168.999s67.167 -84 111.5 -110s95.5 -39 153.5 -39c52 0 100 10 144 30s82.333 50.833 115 92.5s58.167 94.667 76.5 159
s27.5 141.166 27.5 230.499c0 86 -7.66699 162.5 -23 229.5s-38.333 123.667 -69 170s-68.667 81.666 -114 105.999s-98 36.5 -158 36.5z" />
    <glyph glyph-name="P" unicode="P" horiz-adv-x="942" 
d="M347 198c0 -70 7.66602 -113.667 22.999 -131c20.667 -24 52.667 -36 96 -36h43v-31h-481v31h42c47.333 0 81.333 15.333 102 46c11.333 17.333 17 57.666 17 120.999v725c0 70 -7.66699 113.667 -23 131c-20.667 24.667 -52.667 37 -96 37h-42v30h411
c51.333 0 96.5 -2.5 135.5 -7.5s73.5 -13 103.5 -24s56.5 -25 79.5 -42s44.5 -37.833 64.5 -62.5c40 -50 60 -108 60 -174c0 -45.333 -7.66699 -86.833 -23 -124.5s-37.666 -70.167 -66.999 -97.5s-65.5 -48.666 -108.5 -63.999s-92.167 -23 -147.5 -23
c-28 0 -57.5 2 -88.5 6s-64.5 9.66699 -100.5 17v-327zM346.999 572c57.333 -10.667 102.665 -16 135.998 -16c28.667 0 55.834 6 81.501 18s48 28.5 67 49.5s34.167 46.167 45.5 75.5s17 61.333 17 96c0 40.667 -6.16699 77.167 -18.5 109.5s-29.166 59.5 -50.499 81.5
s-46.5 38.833 -75.5 50.5s-60.167 17.5 -93.5 17.5c-28 0 -64.333 -5 -109 -15v-467z" />
    <glyph glyph-name="Q" unicode="Q" horiz-adv-x="1223" 
d="M746 -12c28 -48.667 57 -90.667 87 -126s61.667 -64.833 95 -88.5s68.333 -41.834 105 -54.501s76 -20.667 118 -24v-27c-57.333 2 -117.166 11.5 -179.499 28.5s-123.833 39.667 -184.5 68s-119 61.5 -175 99.5s-106.333 79.333 -151 124
c-66 26.667 -124.167 57.834 -174.5 93.501s-92.166 76.834 -125.499 123.501s-58.5 99.5 -75.5 158.5s-25.5 125.5 -25.5 199.5c0 56 6.66699 109.167 20 159.5s32 97.166 56 140.499s53 82.5 87 117.5s71.667 64.833 113 89.5s85.666 43.667 132.999 57
s96.666 20 147.999 20c72.667 0 141.834 -14.833 207.501 -44.5s123.167 -70.667 172.5 -123s88.666 -114.333 117.999 -186s44 -149.5 44 -233.5c0 -68 -10 -132.5 -30 -193.5s-48.167 -116.5 -84.5 -166.5s-79.833 -93.167 -130.5 -129.5s-106.667 -63.833 -168 -82.5z
M607 1083c-57.333 0 -108.168 -11.668 -152.501 -35.001s-81.666 -57.333 -111.999 -102s-53.5 -99.167 -69.5 -163.5s-24 -137.5 -24 -219.5c0 -78.667 7.83301 -150.5 23.5 -215.5s38.5 -121 68.5 -168s67.333 -83.5 112 -109.5s96 -39 154 -39
c56.667 0 107.5 11.333 152.5 34s83 55.834 114 99.501s54.667 97 71 160s24.5 134.5 24.5 214.5c0 88.667 -8.66699 167 -26 235s-42 124.833 -74 170.5s-70.167 80.167 -114.5 103.5s-93.5 35 -147.5 35z" />
    <glyph glyph-name="R" unicode="R" horiz-adv-x="1130" 
d="M1145 0l-300.002 0.000976562l-379 524c-14.667 -0.666992 -27.667 -1 -39 -1h-30h-23.5c-8.33301 0 -16.833 0.333008 -25.5 1v-326c0 -70 7.66699 -113.667 23 -131c20.667 -24 52.334 -36 95.001 -36h43v-31h-480v31h42c47.333 0 81.333 15.333 102 46
c11.333 17.333 17 57.666 17 120.999v725c0 70 -7.66699 113.667 -23 131c-20.667 24.667 -52.667 37 -96 37h-42v30h408c60.667 0 112.167 -1.83301 154.5 -5.5s79 -10.167 110 -19.5s57.667 -21.833 80 -37.5s43.5 -35.5 63.5 -59.5
c39.333 -47.333 59 -102.666 59 -165.999c0 -69.333 -22.5 -129.333 -67.5 -180s-114.5 -86.334 -208.5 -107.001l231 -322c26.667 -38 50.834 -68.833 72.501 -92.5s43 -42.334 64 -56.001s43.333 -23.667 67 -30s51.167 -11.166 82.5 -14.499v-31zM347.998 576.001h45.999
c54.667 0 102.167 6.33301 142.5 19s74 30 101 52s47.167 48 60.5 78s20 62.333 20 97s-5.83301 66.5 -17.5 95.5s-28 54 -49 75s-46.167 37.333 -75.5 49s-62 17.5 -98 17.5c-33.333 0 -76.666 -5.33301 -129.999 -16v-467z" />
    <glyph glyph-name="S" unicode="S" horiz-adv-x="942" 
d="M777 1147l-0.00390625 -388.001h-31c-5.33301 37.333 -12.333 70.5 -21 99.5s-19.5 55 -32.5 78s-28.5 43 -46.5 60s-39 32.167 -63 45.5c-47.333 26 -96.333 39 -147 39c-28 0 -54.167 -4.83301 -78.5 -14.5s-45.333 -22.5 -63 -38.5s-31.667 -34.333 -42 -55
s-15.5 -42 -15.5 -64c0 -20 3.83301 -39 11.5 -57s22 -36.833 43 -56.5s49.5 -41.167 85.5 -64.5s82.667 -50.333 140 -81c104 -55.333 175.333 -98.333 214 -129c38.667 -30 68.334 -65.5 89.001 -106.5s31 -83.833 31 -128.5c0 -42 -8.66699 -81.833 -26 -119.5
s-41.666 -70.834 -72.999 -99.501s-68.666 -51.334 -111.999 -68.001s-90.666 -25 -141.999 -25c-16.667 0 -30.5 0.166992 -41.5 0.5s-23 1.66602 -36 3.99902s-28.667 6.16602 -47 11.499l-74.5 22l-65 19c-16.667 4.66699 -28.667 7 -36 7c-14 0 -25 -4.16699 -33 -12.5
s-14 -25.5 -18 -51.5h-30v385h30c7.33301 -41.333 15.5 -76.666 24.5 -105.999s20 -54.666 33 -75.999s28.5 -39.833 46.5 -55.5s39.667 -30.167 65 -43.5c48.667 -26 103.334 -39 164.001 -39c34.667 0 66 5 94 15s51.5 23.333 70.5 40s33.667 36.167 44 58.5
s15.5 45.5 15.5 69.5c0 28 -7.66699 56 -23 84s-39 54.333 -71 79c-4 2.66699 -14.667 9.16699 -32 19.5l-63 37.5l-80.5 48l-84 50.5l-73.5 45.5c-22 14 -38 25 -48 33c-40 32 -70.5 67.167 -91.5 105.5s-31.5 80.833 -31.5 127.5c0 40.667 8.33301 78.834 25 114.501
s39.5 66.834 68.5 93.501s63.5 47.834 103.5 63.501s83.667 23.5 131 23.5c58.667 0 122 -14.667 190 -44c32 -13.333 53.667 -20 65 -20c14 0 25.667 4.16699 35 12.5s16.666 25.5 21.999 51.5h31z" />
    <glyph glyph-name="T" unicode="T" horiz-adv-x="1035" 
d="M980 1121l0.000976562 -262.999h-19c-4.66699 36 -12 66.167 -22 90.5s-23.167 44.166 -39.5 59.499s-36.333 26.333 -60 33s-51.5 10 -83.5 10h-158v-857c0 -69.333 7.33301 -112.333 22 -129c20.667 -22.667 53 -34 97 -34h39v-31h-476v31h40
c47.333 0 81 14.333 101 43c12 16.667 18 56.667 18 120v857h-135c-52 0 -89 -3.66699 -111 -11c-28.667 -10 -53.334 -30 -74.001 -60s-32.667 -70.667 -36 -122h-32v263h929z" />
    <glyph glyph-name="U" unicode="U" horiz-adv-x="1223" 
d="M808 1091v29.999h397v-30h-42c-44 0 -78 -18.667 -102 -56c-11.333 -17.333 -17 -57 -17 -119v-455c0 -47.333 -1.66699 -89.5 -5 -126.5s-9.16602 -70.5 -17.499 -100.5s-19.333 -56.833 -33 -80.5s-30.834 -45.834 -51.501 -66.501
c-23.333 -23.333 -48 -42.333 -74 -57s-52.833 -26.167 -80.5 -34.5s-55.834 -14 -84.501 -17s-57.334 -4.5 -86.001 -4.5c-72.667 0 -134.167 7.5 -184.5 22.5s-91.833 35.333 -124.5 61s-57.834 55.5 -75.501 89.5s-30.667 70 -39 108s-13.166 76.667 -14.499 116
s-2 77.333 -2 114v438c0 35.333 -2.5 64 -7.5 86s-12.5 39 -22.5 51s-22.5 20.167 -37.5 24.5s-32.833 6.5 -53.5 6.5h-42v30h485v-30h-43c-20 0 -37.5 -2 -52.5 -6s-27.5 -12 -37.5 -24s-17.5 -29 -22.5 -51s-7.5 -51 -7.5 -87v-489c0 -46 2.83301 -92 8.5 -138
s18.334 -87.667 38.001 -125s48.834 -67.666 87.501 -90.999s91 -35 157 -35c52.667 0 102 8.5 148 25.5s84 40.5 114 70.5c20.667 20.667 36.667 44.334 48 71.001s19.833 54.5 25.5 83.5s9 58.333 10 88s1.5 58.167 1.5 85.5v454c0 70 -7.66699 113.667 -23 131
c-20.667 24.667 -52.667 37 -96 37h-42z" />
    <glyph glyph-name="V" unicode="V" horiz-adv-x="1223" 
d="M1202 1121v-30.001c-38.667 -6.66699 -68.667 -19.334 -90 -38.001c-29.333 -27.333 -55 -68.666 -77 -123.999l-392 -955h-30l-420 967c-22 50 -37.333 80.333 -46 91c-13.333 17.333 -30.166 30.833 -50.499 40.5s-47.5 15.834 -81.5 18.501v30h458v-30
c-52.667 -5.33301 -86.334 -14.333 -101.001 -27c-15.333 -13.333 -23 -29.333 -23 -48c0 -27.333 12.667 -70.333 38 -129l285 -658l265 649c26 64 39 108.333 39 133c0 16 -8 31.333 -24 46s-43 25 -81 31l-14 3v30h345z" />
    <glyph glyph-name="W" unicode="W" horiz-adv-x="1599" 
d="M1585 1121l-0.000976562 -30c-28.667 0 -52.167 -5.33301 -70.5 -16s-35.833 -30.334 -52.5 -59.001c-5.33301 -9.33301 -12.166 -25.5 -20.499 -48.5l-31.5 -89.5l-313 -904h-33l-255 717l-254 -717h-30l-333 932l-30.5 82.5c-7.66699 20.333 -13.167 33.833 -16.5 40.5
c-11.333 20.667 -26.5 36.167 -45.5 46.5s-44.833 15.5 -77.5 15.5v30h415v-30h-19c-30 0 -52.667 -6.66699 -68 -20s-23 -29.333 -23 -48c0 -18 12.333 -62.333 37 -133l221 -629l186 535l-60 169c-14 40 -32.5 71 -55.5 93s-56.5 33 -100.5 33v30h437v-30h-30
c-32 0 -55 -6.66699 -69 -20s-21 -31.333 -21 -54c0 -27.333 12.667 -76.333 38 -147l215 -609l213 617c24 68.667 36 116.334 36 143.001s-11.833 45 -35.5 55s-53.167 15 -88.5 15v30h335z" />
    <glyph glyph-name="X" unicode="X" horiz-adv-x="1223" 
d="M691 621l240.998 -358.995c34.667 -51.333 63.5 -92 86.5 -122s43.833 -52.667 62.5 -68s37.334 -25.5 56.001 -30.5s40.667 -8.5 66 -10.5v-31h-481v31c38 0 66 5.5 84 16.5s27 26.5 27 46.5c0 6.66699 -0.666992 13.167 -2 19.5s-4 13.5 -8 21.5s-9.5 17.667 -16.5 29
l-26.5 41l-190 288l-235 -301c-13.333 -16.667 -23.5 -29.834 -30.5 -39.501s-12 -17.834 -15 -24.501s-4.83301 -12.334 -5.5 -17.001s-1 -10.334 -1 -17.001c0 -17.333 7.33301 -31.833 22 -43.5s43 -18.167 85 -19.5v-31h-398v31
c28.667 2.66699 54.834 8.33398 78.501 17.001s46.167 20.667 67.5 36s42.666 34 63.999 56s43.666 48 66.999 78l264 334l-221 323c-30 44 -57.167 79.833 -81.5 107.5s-47.833 49.334 -70.5 65.001s-45.5 26.5 -68.5 32.5s-48.5 9.66699 -76.5 11v30h518v-30
c-44 -2 -74.167 -9.33301 -90.5 -22s-24.5 -26.667 -24.5 -42c0 -20.667 13.333 -50.334 40 -89.001l172 -257l199 252l28.5 37.5c7 9.66699 12.167 17.667 15.5 24s5.33301 12 6 17s1 10.5 1 16.5c0 23.333 -9.16699 39.333 -27.5 48s-49.166 13.667 -92.499 15v30h398v-30
c-38 -2.66699 -68.667 -9.83398 -92 -21.501s-45.666 -26.834 -66.999 -45.501c-26 -22.667 -61 -62 -105 -118z" />
    <glyph glyph-name="Y" unicode="Y" horiz-adv-x="1223" 
d="M807 1121l391 0.000976562v-30h-21c-30 0 -63.333 -14.333 -100 -43s-77.334 -77.667 -122.001 -147l-270 -425v-282c0 -68.667 7.66699 -111.667 23 -129c20.667 -22.667 53.667 -34 99 -34h37v-31h-477v31h40c47.333 0 81 14.333 101 43c12 16.667 18 56.667 18 120
v266l-308 470c-18.667 28 -34.334 50.667 -47.001 68s-24.5 31.333 -35.5 42s-22 19 -33 25s-23.833 12 -38.5 18c-5.33301 2 -12 3.83301 -20 5.5s-17.333 2.5 -28 2.5v30h479v-30h-24c-13.333 0 -26.166 -1.5 -38.499 -4.5s-23.5 -7.66699 -33.5 -14s-18 -14 -24 -23
s-9 -19.5 -9 -31.5c0 -10.667 4.33301 -24.834 13 -42.501s21.334 -39.167 38.001 -64.5l234 -362l220 346c32.667 51.333 49 90 49 116c0 22.667 -8 41.667 -24 57s-45.667 23 -89 23v30z" />
    <glyph glyph-name="Z" unicode="Z" horiz-adv-x="1035" 
d="M974 1121l-737 -1053h460c35.333 0 66.166 3.33301 92.499 10s49.833 18.667 70.5 36s38.834 41.166 54.501 71.499s30.834 69.166 45.501 116.499l27 -5l-52 -297h-913v31l719 1023h-359c-45.333 0 -81.333 -3.33301 -108 -10s-47.834 -18.334 -63.501 -35.001
s-27.5 -38.667 -35.5 -66s-15.333 -61.333 -22 -102h-31l23 280h829z" />
    <glyph glyph-name="bracketleft" unicode="[" horiz-adv-x="564" 
d="M503 -336h-364v1483h364v-65h-240v-1353h240v-65z" />
    <glyph glyph-name="backslash" unicode="\" horiz-adv-x="471" 
d="M69 1176l405 -1199h-66l-406 1199h67z" />
    <glyph glyph-name="bracketright" unicode="]" horiz-adv-x="564" 
d="M62 1147h364v-1484h-364v66h240v1353h-240v65z" />
    <glyph glyph-name="asciicircum" unicode="^" horiz-adv-x="795" 
d="M412 1145l351 -593h-76l-289 484l-290 -484h-77l356 593h25z" />
    <glyph glyph-name="underscore" unicode="_" 
d="M862 -366h-876v70h876v-70z" />
    <glyph glyph-name="grave" unicode="`" horiz-adv-x="564" 
d="M98 1150h184l88 -286h-29z" />
    <glyph glyph-name="a" unicode="a" horiz-adv-x="752" 
d="M482 109c-77.333 -60.667 -126 -95.333 -146 -104c-30 -14 -61.667 -21 -95 -21c-26 0 -50.167 4.83301 -72.5 14.5s-41.5 23 -57.5 40s-28.5 37.5 -37.5 61.5s-13.5 50.333 -13.5 79c0 34.667 6.83301 65.5 20.5 92.5s36.834 52.667 69.501 77s76 48.666 130 72.999
s121.333 51.166 202 80.499v30c0 38 -3.16699 69.667 -9.5 95s-15.5 45.5 -27.5 60.5s-26.667 25.667 -44 32s-37 9.5 -59 9.5c-18 0 -34 -2.66699 -48 -8s-26 -12.333 -36 -21s-17.667 -18.5 -23 -29.5s-8 -22.167 -8 -33.5c0 -8.66699 0.333008 -17.667 1 -27
s1 -17.666 1 -24.999c0 -25.333 -6.5 -44.333 -19.5 -57s-29.833 -19 -50.5 -19s-37.5 7.16699 -50.5 21.5s-19.5 34.166 -19.5 59.499c0 23.333 6.33301 46.333 19 69s30.834 43 54.501 61s52.667 32.5 87 43.5s73.166 16.5 116.499 16.5
c58.667 0 108.667 -8.66699 150 -26s70.666 -46.666 87.999 -87.999c10 -24 15 -72.667 15 -146v-257c0 -43.333 0.666992 -76.666 2 -99.999s3.5 -40.5 6.5 -51.5s7 -17.5 12 -19.5s11.167 -3 18.5 -3c6 0 11.5 0.833008 16.5 2.5s10.667 5 17 10s14 11.833 23 20.5
l33.5 33v-46c-60.667 -82.667 -119.667 -124 -177 -124c-26 0 -47.333 9.33301 -64 28s-25 50.667 -25 96zM482 452.001c-57.333 -23.333 -104.333 -43.999 -141 -61.999s-65.5 -35.833 -86.5 -53.5s-35.5 -35.834 -43.5 -54.501s-12 -40 -12 -64
c0 -19.333 3.16699 -37.5 9.5 -54.5s15 -31.667 26 -44s23.5 -22 37.5 -29s29 -10.5 45 -10.5c41.333 0 96.333 27.667 165 83v289z" />
    <glyph glyph-name="b" unicode="b" 
d="M261 627c72.667 102 151.667 153.001 237 153.001c38 0 74.333 -8.5 109 -25.5s65.5 -41.5 92.5 -73.5s48.5 -71 64.5 -117s24 -98 24 -156c0 -62 -10.833 -119.167 -32.5 -171.5s-50.5 -97.833 -86.5 -136.5s-77.5 -68.834 -124.5 -90.501s-95.833 -32.5 -146.5 -32.5
c-88 0 -179.333 32 -274 96v785c0 86 -2 138.667 -6 158c-4 20 -10.5 33.667 -19.5 41s-20.167 11 -33.5 11c-14.667 0 -34 -4.66699 -58 -14l-11 29l227 93h38v-549zM261 121.001c56 -56 115.667 -83.9961 179 -83.9961c24.667 0 49.167 7 73.5 21s46.166 34.5 65.499 61.5
s35.166 60.667 47.499 101s18.5 87.166 18.5 140.499c0 48.667 -6 91.667 -18 129s-27.833 68.666 -47.5 93.999s-42.334 44.666 -68.001 57.999s-51.834 20 -78.501 20c-13.333 0 -26.166 -1 -38.499 -3s-25.166 -6.16699 -38.499 -12.5s-27.666 -15.333 -42.999 -27
s-32.666 -26.834 -51.999 -45.501v-453z" />
    <glyph glyph-name="c" unicode="c" horiz-adv-x="752" 
d="M696 288c-10 -49.333 -25.3301 -93.3262 -45.9971 -131.993s-45.167 -71.334 -73.5 -98.001s-59.333 -46.834 -93 -60.501s-68.5 -20.5 -104.5 -20.5c-42.667 0 -83.334 9.33301 -122.001 28s-72.834 45.5 -102.501 80.5s-53.167 77.167 -70.5 126.5
s-26 104.666 -26 165.999c0 60 9.66699 114.667 29 164s45.5 91.666 78.5 126.999s71.333 62.666 115 81.999s89.834 29 138.501 29c37.333 0 71.666 -5.5 102.999 -16.5s58.333 -25.333 81 -43s40.334 -37.334 53.001 -59.001s19 -42.834 19 -63.501
c0 -21.333 -6.83301 -38.333 -20.5 -51s-32.5 -19 -56.5 -19c-13.333 0 -25.166 1.33301 -35.499 4s-19.5 7.5 -27.5 14.5s-14.5 16.833 -19.5 29.5s-8.5 29 -10.5 49c-6 66 -43.667 99 -113 99c-32.667 0 -61.334 -7.33301 -86.001 -22s-45.5 -34.5 -62.5 -59.5
s-29.833 -54.167 -38.5 -87.5s-13 -68.666 -13 -105.999c0 -44.667 5.66699 -87.667 17 -129s27.666 -77.833 48.999 -109.5s47.166 -57 77.499 -76s64.5 -28.5 102.5 -28.5c22.667 0 44.5 2.66699 65.5 8s41.167 15.166 60.5 29.499s37.833 34 55.5 59
s35.167 57.167 52.5 96.5z" />
    <glyph glyph-name="d" unicode="d" 
d="M588 85c-36.667 -38.667 -72.667 -66.333 -108 -83s-73.333 -25 -114 -25c-41.333 0 -80.666 9 -117.999 27s-70.333 43.333 -99 76s-51.334 71.667 -68.001 117s-25 95.333 -25 150c0 53.333 9 105.833 27 157.5s43.167 98 75.5 139s71 74.167 116 99.5
s94.5 38 148.5 38c67.333 0 122.333 -21.333 165 -64v140c0 86.667 -2 139.667 -6 159c-4 20 -10.5 33.667 -19.5 41s-20.167 11 -33.5 11s-32.333 -4.66699 -57 -14l-11 29l226 93h37v-876c0 -88.667 2 -143 6 -163c4 -19.333 10.667 -32.833 20 -40.5s20 -11.5 32 -11.5
c14 0 34 4.66699 60 14l9 -29l-225 -93h-38v108zM588 533.001c0 28 -5.16797 54 -15.501 78s-23.666 44.833 -39.999 62.5s-34.666 31.334 -54.999 41.001s-40.166 14.5 -59.499 14.5c-30 0 -57.833 -7.33301 -83.5 -22s-47.834 -35.834 -66.501 -63.501
s-33.334 -61 -44.001 -100s-16 -82.5 -16 -130.5c0 -56 6.66699 -105.5 20 -148.5s31 -79 53 -108s47 -51 75 -66s56.667 -22.5 86 -22.5c50 0 98.667 25 146 75v390z" />
    <glyph glyph-name="e" unicode="e" horiz-adv-x="752" 
d="M180 472c0 -56 7.49902 -106.333 22.499 -151s35.167 -82.5 60.5 -113.5s54.666 -54.667 87.999 -71s68.666 -24.5 105.999 -24.5c49.333 0 92.333 13.667 129 41s67.334 74 92.001 140l26 -17c-6 -36 -17.5 -71.833 -34.5 -107.5s-39 -67.667 -66 -96
s-58.167 -51.333 -93.5 -69s-74 -26.5 -116 -26.5c-45.333 0 -88 9.16699 -128 27.5s-75 44.5 -105 78.5s-53.833 75.167 -71.5 123.5s-26.5 102.5 -26.5 162.5c0 64.667 8.83301 122.5 26.5 173.5s42.167 94.167 73.5 129.5s68.333 62.333 111 81s89 28 139 28
c42 0 80.833 -7.33301 116.5 -22s66.334 -35.5 92.001 -62.5s45.834 -59.5 60.501 -97.5s22 -80.333 22 -127h-524zM530.999 520c-3.33301 50 -8.99902 84.332 -16.999 102.999c-14 30.667 -34.667 54.834 -62 72.501s-56 26.5 -86 26.5c-22 0 -43.5 -4.5 -64.5 -13.5
s-40 -22.167 -57 -39.5s-31.333 -38.5 -43 -63.5s-18.834 -53.5 -21.501 -85.5h351z" />
    <glyph glyph-name="f" unicode="f" horiz-adv-x="564" 
d="M349 698l-0.00292969 -497.999c0 -70.667 7.66699 -115.334 23 -134.001c20 -24 47.333 -36 82 -36h69v-30h-453v30h34c22.667 0 42.834 5.5 60.501 16.5s30.167 25.833 37.5 44.5c7.33301 20 11 56.333 11 109v498h-148v60h148v49c0 52.667 7 101.5 21 146.5
s34.333 83.833 61 116.5s59.5 58.167 98.5 76.5s83.833 27.5 134.5 27.5c21.333 0 44.166 -3.5 68.499 -10.5s46.833 -16.667 67.5 -29s37.834 -27 51.501 -44s20.5 -35.5 20.5 -55.5c0 -8 -2 -16.167 -6 -24.5s-9.16699 -15.833 -15.5 -22.5s-13.666 -12 -21.999 -16
s-16.5 -6 -24.5 -6c-6.66699 0 -13.167 0.833008 -19.5 2.5s-13.166 5 -20.499 10s-15.166 12.333 -23.499 22s-17.833 22.167 -28.5 37.5c-20.667 30 -39.334 50.333 -56.001 61s-35.667 16 -57 16c-24 0 -45.167 -6.5 -63.5 -19.5s-31.5 -34.5 -39.5 -64.5
c-7.33301 -29.333 -11 -102.333 -11 -219v-54h195v-60h-195z" />
    <glyph glyph-name="g" unicode="g" 
d="M256 276c-46.667 22.667 -82.3281 54.3291 -106.995 94.9961s-37 85.334 -37 134.001c0 37.333 7.5 72.666 22.5 105.999s35.833 62.5 62.5 87.5s58.5 44.833 95.5 59.5s77.5 22 121.5 22c71.333 0 133.666 -17.667 186.999 -53h161c12 0 21 -0.166992 27 -0.5
s10.5 -0.833008 13.5 -1.5s5 -1.5 6 -2.5s1.83301 -2.5 2.5 -4.5c3.33301 -5.33301 5 -14.333 5 -27c0 -14.667 -1.33301 -24.334 -4 -29.001c-0.666992 -2 -1.5 -3.5 -2.5 -4.5s-3 -1.83301 -6 -2.5s-7.66699 -1.16699 -14 -1.5s-15.5 -0.5 -27.5 -0.5h-99
c31.333 -40.667 47 -91.667 47 -153c0 -34.667 -7 -67.5 -21 -98.5s-34 -58.167 -60 -81.5s-57.5 -41.833 -94.5 -55.5s-78.167 -20.5 -123.5 -20.5c-36.667 0 -75 5.66699 -115 17c-24 -21.333 -40.333 -39.833 -49 -55.5s-13 -29.167 -13 -40.5c0 -8 1.66699 -15 5 -21
s11.166 -11.167 23.499 -15.5s30.666 -7.66602 54.999 -9.99902s57.5 -4.16602 99.5 -5.49902l140 -5c36.667 -1.33301 63.667 -3.33301 81 -6c52 -7.33301 93 -26.5 123 -57.5s45 -68.833 45 -113.5c0 -41.333 -11.833 -80 -35.5 -116s-55.167 -67.5 -94.5 -94.5
s-84.5 -48.167 -135.5 -63.5s-103.833 -23 -158.5 -23c-38 0 -76.667 4.16699 -116 12.5s-75 19.5 -107 33.5s-58.167 30.667 -78.5 50s-30.5 40 -30.5 62c0 16 5 33.167 15 51.5s27.333 42.833 52 73.5c2 2.66699 10 11.334 24 26.001l61 64
c-28.667 16.667 -49 31.834 -61 45.501s-18 28.834 -18 45.501c0 10 1.5 20.333 4.5 31s9.16699 23 18.5 37s22.666 29.833 39.999 47.5s40.666 38.5 69.999 62.5zM399.006 739.995c-40.667 0 -74.666 -16.1689 -101.999 -48.502s-41 -82.166 -41 -149.499
c0 -38 3.83301 -72.667 11.5 -104s18.5 -58.5 32.5 -81.5s31.167 -40.833 51.5 -53.5s43.5 -19 69.5 -19c42 0 76.5 15.833 103.5 47.5s40.5 81.167 40.5 148.5c0 36 -3.66699 69.833 -11 101.5s-18 59.334 -32 83.001s-31.333 42.167 -52 55.5s-44.334 20 -71.001 20z
M247.007 -0.00683594c-52 -56 -78 -104.664 -78 -145.997c0 -18 7.5 -34.5 22.5 -49.5s35.5 -27.667 61.5 -38s56.333 -18.333 91 -24s72 -8.5 112 -8.5c50 0 93.167 5 129.5 15s66.5 23 90.5 39s41.667 33.667 53 53s17 38.333 17 57c0 14.667 -3.16699 27 -9.5 37
s-17.5 18.167 -33.5 24.5s-37.667 11.166 -65 14.499s-62.333 5.66602 -105 6.99902c-62.667 1.33301 -117.5 3.66602 -164.5 6.99902s-87.5 7.33301 -121.5 12z" />
    <glyph glyph-name="h" unicode="h" 
d="M275 1176v-553.999c30.667 34 57.834 61.333 81.501 82s45.167 36.667 64.5 48s37.5 18.833 54.5 22.5s34.5 5.5 52.5 5.5c44 0 81.167 -11.833 111.5 -35.5s53.166 -60.834 68.499 -111.501c10.667 -34 16 -98.667 16 -194v-268c0 -26.667 0.666992 -49 2 -67
s5.5 -32.5 12.5 -43.5s18 -18.833 33 -23.5s36.5 -7 64.5 -7v-30h-372v30h17c24.667 0 44.167 2.16699 58.5 6.5s24.833 12 31.5 23s10.834 25.5 12.501 43.5s2.5 40.667 2.5 68v268c0 42 -1.16699 76.333 -3.5 103s-5.5 46.667 -9.5 60
c-8.66699 26 -22.334 45.5 -41.001 58.5s-41 19.5 -67 19.5c-14 0 -27.833 -1.5 -41.5 -4.5s-28 -8.66699 -43 -17s-31.167 -19.5 -48.5 -33.5s-36.333 -32 -57 -54v-400c0 -52 3 -84.333 9 -97c2.66699 -6 6.66699 -11.667 12 -17s12.333 -10 21 -14
s19.5 -7.16699 32.5 -9.5s29.167 -3.5 48.5 -3.5v-30h-376v30c20 0 37.333 1 52 3s26.667 7.66699 36 17s16.333 23.5 21 42.5s7 45.167 7 78.5v686c0 86.667 -2 139.667 -6 159c-4 20 -10.333 33.667 -19 41s-20 11 -34 11c-11.333 0 -30.333 -4.66699 -57 -14l-11 29
l226 93h38z" />
    <glyph glyph-name="i" unicode="i" horiz-adv-x="471" 
d="M246 1176c11.333 0 22 -2.16602 32 -6.49902s18.833 -10.333 26.5 -18s13.667 -16.5 18 -26.5s6.5 -21 6.5 -33c0 -22.667 -8.16699 -42.334 -24.5 -59.001s-35.833 -25 -58.5 -25c-12 0 -23.167 2.33301 -33.5 7s-19.333 10.834 -27 18.501s-13.667 16.5 -18 26.5
s-6.5 20.667 -6.5 32c0 23.333 8.16699 43.166 24.5 59.499s36.5 24.5 60.5 24.5zM314 780.001l-0.000976562 -609.001c0 -28 1 -51.167 3 -69.5s7 -32.833 15 -43.5s19.667 -18 35 -22s36 -6 62 -6v-30h-368v30c26.667 0 47.667 1.83301 63 5.5s27 10.834 35 21.501
s13 25 15 43s3 41.667 3 71v292c0 47.333 -0.666992 84.833 -2 112.5s-4.16602 48.5 -8.49902 62.5s-10.5 22.833 -18.5 26.5s-18.333 5.5 -31 5.5c-16 0 -34.667 -4.33301 -56 -13l-11 30l228 93h36z" />
    <glyph glyph-name="j" unicode="j" horiz-adv-x="471" 
d="M245 1177c23.333 0 43.333 -8.33301 60 -25s25 -36.667 25 -60s-8.33301 -43.333 -25 -60s-36.667 -25 -60 -25s-43.333 8.33301 -60 25s-25 36.667 -25 60s8.33301 43.333 25 60s36.667 25 60 25zM316 780l-0.000976562 -762.998c0 -64.667 -7.33301 -121 -22 -169
s-35.167 -87.833 -61.5 -119.5s-57.666 -55.334 -93.999 -71.001s-76.5 -23.5 -120.5 -23.5c-25.333 0 -47.333 2.66699 -66 8s-34 12.166 -46 20.499s-21 17.333 -27 27s-9 19.167 -9 28.5c0 19.333 5.83301 35.833 17.5 49.5s28.5 20.5 50.5 20.5c17.333 0 33 -4 47 -12
s31 -21.333 51 -40c26 -24 48.333 -36 67 -36c13.333 0 26.333 5 39 15s22 27 28 51s9 76 9 156v539c0 48.667 -0.833008 87 -2.5 115s-4.66699 49 -9 63s-10.333 22.667 -18 26s-17.5 5 -29.5 5c-16 0 -34.667 -4.33301 -56 -13l-12 30l228 93h36z" />
    <glyph glyph-name="k" unicode="k" 
d="M277 1176l0.000976562 -754.004l193 176l41.5 39c10.333 10 18.166 18.167 23.499 24.5s8.66602 11.5 9.99902 15.5s2 8 2 12c0 10.667 -4.5 20 -13.5 28s-23.833 12.667 -44.5 14v27h329v-27c-23.333 -0.666992 -44 -2.5 -62 -5.5s-35.167 -7.83301 -51.5 -14.5
s-32.333 -15.5 -48 -26.5s-32.5 -24.833 -50.5 -41.5l-194 -180l194 -245l67.5 -83.5c17.667 -21.667 31.5 -37.167 41.5 -46.5l31 -28.5c8.66699 -7.66699 17.834 -13.667 27.501 -18s20.834 -7.33301 33.501 -9s29.334 -2.5 50.001 -2.5v-30h-368v30
c20.667 0.666992 34.834 3.83398 42.501 9.50098s11.5 13.834 11.5 24.501c0 6.66699 -2.83301 14.834 -8.5 24.501s-14.167 21.834 -25.5 36.501l-232 296v-251c0 -35.333 2 -62.5 6 -81.5s10.667 -32.833 20 -41.5s21.833 -13.667 37.5 -15s35.167 -2 58.5 -2v-30h-385v30
c25.333 0 46.166 1.66699 62.499 5s29.166 9.83301 38.499 19.5s15.833 23.334 19.5 41.001s5.5 41.167 5.5 70.5v690c0 87.333 -2 140.666 -6 159.999c-4 20 -10.333 33.667 -19 41s-20.334 11 -35.001 11c-10.667 0 -28 -4.66699 -52 -14l-14 29l225 93h38z" />
    <glyph glyph-name="l" unicode="l" horiz-adv-x="471" 
d="M313 1176l-0.00292969 -1005c0 -28 1 -51.167 3 -69.5s7.16699 -32.666 15.5 -42.999s20.666 -17.666 36.999 -21.999s38.833 -6.5 67.5 -6.5v-30h-371v30c24.667 0 44.334 1.83301 59.001 5.5s25.834 10.667 33.501 21s12.667 24.666 15 42.999s3.5 42.166 3.5 71.499
v688c0 42.667 -0.666992 77.167 -2 103.5s-2.66602 44.166 -3.99902 53.499c-4 20 -10.167 33.667 -18.5 41s-19.166 11 -32.499 11s-31.333 -4.66699 -54 -14l-15 29l226 93h37z" />
    <glyph glyph-name="m" unicode="m" horiz-adv-x="1317" 
d="M278 619l65.5059 65.499c15.667 15.667 26.167 25.5 31.5 29.5c25.333 20.667 52.333 36.834 81 48.501s57 17.5 85 17.5c48 0 89 -13.833 123 -41.5s56.667 -67.5 68 -119.5c28.667 33.333 54.834 60.5 78.501 81.5s45.667 37.333 66 49s40.166 19.667 59.499 24
s39.666 6.5 60.999 6.5c28 0 54 -4.66699 78 -14s45 -25 63 -47s32.167 -51 42.5 -87s15.5 -81 15.5 -135v-326c0 -25.333 0.666992 -47 2 -65s5.66602 -32.667 12.999 -44s18.666 -19.5 33.999 -24.5s37 -7.5 65 -7.5v-30h-374v30h16c20.667 0 38 1.66699 52 5
s25 10.166 33 20.499s13.667 24.666 17 42.999s5 42.5 5 72.5v326c0 36 -2.83301 65.833 -8.5 89.5s-13.834 42.5 -24.501 56.5s-23.834 23.833 -39.501 29.5s-33.5 8.5 -53.5 8.5c-14.667 0 -29.167 -1.66699 -43.5 -5s-29.166 -9 -44.499 -17s-31.833 -18.667 -49.5 -32
s-36.834 -30 -57.501 -50v-406c0 -26 0.5 -47.167 1.5 -63.5s3.16699 -27.5 6.5 -33.5c5.33301 -12.667 16.166 -23.167 32.499 -31.5s43.833 -12.5 82.5 -12.5v-30h-383v30c29.333 0 52.333 2 69 6s29 11.333 37 22s12.833 25.167 14.5 43.5s2.5 41.5 2.5 69.5v326
c0 35.333 -3.16699 64.833 -9.5 88.5s-15.166 42.834 -26.499 57.501s-25 25 -41 31s-33.333 9 -52 9c-18 0 -36.5 -3.33301 -55.5 -10s-37.167 -15.167 -54.5 -25.5s-33.333 -21.833 -48 -34.5s-26.667 -24.667 -36 -36v-406c0 -25.333 0.833008 -45.666 2.5 -60.999
s4.16699 -27.5 7.5 -36.5s7.5 -15.667 12.5 -20s11.167 -8.5 18.5 -12.5c13.333 -7.33301 40.666 -11 81.999 -11v-30h-375v30c26 0 46.667 2.16699 62 6.5s27 11.833 35 22.5s13 25 15 43s3 41 3 69v290c0 48.667 -0.833008 87 -2.5 115s-4.66699 49 -9 63
s-10.333 22.667 -18 26s-17.5 5 -29.5 5c-16 0 -34.667 -4.33301 -56 -13l-12 30l228 93h36v-161z" />
    <glyph glyph-name="n" unicode="n" 
d="M274 619c89.333 107.333 173.999 160.998 253.999 160.998c28 0 54 -4.66699 78 -14s44.667 -25.166 62 -47.499s31 -51.666 41 -87.999s15 -81.5 15 -135.5v-324c0 -26.667 0.833008 -49 2.5 -67s6.16699 -32.5 13.5 -43.5s18.666 -18.833 33.999 -23.5s37 -7 65 -7v-30
h-374v30h15c24.667 0 44.167 2.33301 58.5 7s25.166 12.334 32.499 23.001s11.833 25 13.5 43s2.5 40.667 2.5 68v310c0 70 -9 120.333 -27 151s-48 46 -90 46c-65.333 0 -130.666 -35.667 -195.999 -107v-400c0 -28 0.833008 -49.833 2.5 -65.5
s4.33398 -27.834 8.00098 -36.501s8 -14.667 13 -18s10.5 -6.66602 16.5 -9.99902c14.667 -7.33301 42.334 -11 83.001 -11v-30h-375v30h17c19.333 0 35.333 2.16699 48 6.5s22.667 11.833 30 22.5s12.5 25 15.5 43s4.5 41 4.5 69v281c0 91.333 -2 146.666 -6 165.999
c-4 20 -10.333 33.667 -19 41s-20 11 -34 11c-16 0 -34.667 -4.33301 -56 -13l-12 30l228 93h36v-161z" />
    <glyph glyph-name="o" unicode="o" 
d="M423 780c52 0 100.336 -10.165 145.003 -30.498s83.334 -48 116.001 -83s58.167 -76 76.5 -123s27.5 -97.167 27.5 -150.5c0 -34.667 -4.16699 -68.834 -12.5 -102.501s-20.5 -68.167 -36.5 -103.5c-32.667 -70 -77.334 -122.5 -134.001 -157.5
s-120.334 -52.5 -191.001 -52.5c-52 0 -100 10.667 -144 32s-81.667 50.166 -113 86.499s-55.833 78.333 -73.5 126s-26.5 97.5 -26.5 149.5c0 70 17 139 51 207c17.333 34 37.666 63.667 60.999 89s48.5 46.333 75.5 63s55.667 29.167 86 37.5s61.166 12.5 92.499 12.5z
M398.003 726.002c-24.667 0 -48.3359 -5.16699 -71.0029 -15.5s-42.5 -27 -59.5 -50s-30.667 -52.5 -41 -88.5s-15.5 -79.667 -15.5 -131c0 -54 5.5 -105.5 16.5 -154.5s26.833 -92 47.5 -129s45.834 -66.5 75.501 -88.5s62.834 -33 99.501 -33c26 0 50.167 5 72.5 15
s41.833 26.5 58.5 49.5s29.667 53.167 39 90.5s14 83.333 14 138c0 54 -5.33301 105.167 -16 153.5s-26 90.5 -46 126.5s-44.667 64.5 -74 85.5s-62.666 31.5 -99.999 31.5z" />
    <glyph glyph-name="p" unicode="p" 
d="M-2 682l234.003 94.998h31v-177c20 33.333 39.667 61.5 59 84.5s39 41.5 59 55.5s40.167 24.167 60.5 30.5s41.5 9.5 63.5 9.5c43.333 0 82.5 -9.83301 117.5 -29.5s64.833 -46.5 89.5 -80.5s43.667 -73.667 57 -119s20 -93.666 20 -144.999
c0 -57.333 -8.16699 -111.833 -24.5 -163.5s-39.5 -97.167 -69.5 -136.5s-66.333 -70.666 -109 -93.999s-90.334 -35 -143.001 -35c-18.667 0 -35.667 0.833008 -51 2.5s-30 5 -44 10s-27.833 11.833 -41.5 20.5s-28.167 20 -43.5 34v-231
c0 -27.333 0.666992 -48.833 2 -64.5s3.66602 -27.667 6.99902 -36s7.66602 -14.666 12.999 -18.999s12 -8.5 20 -12.5c15.333 -8.66699 44 -13 86 -13v-30h-397v30h21c21.333 0 41.5 3.16699 60.5 9.5s32.833 18.833 41.5 37.5c6 12.667 9 47 9 103v716
c0 30 -1 53.667 -3 71s-5.5 30.666 -10.5 39.999s-11.833 15.333 -20.5 18s-19.667 4 -33 4c-12 0 -29 -3.66699 -51 -11zM263.003 267.998c0 -62.667 2.33496 -103.002 7.00195 -121.002c4 -16 10.833 -31.333 20.5 -46s21.834 -27.5 36.501 -38.5s31.5 -19.833 50.5 -26.5
s40.167 -10 63.5 -10c32 0 60.333 7.5 85 22.5s45.667 35.833 63 62.5s30.5 58.5 39.5 95.5s13.5 77.5 13.5 121.5c0 47.333 -4.83301 91.333 -14.5 132s-23.334 75.834 -41.001 105.501s-38.834 52.834 -63.501 69.501s-52.334 25 -83.001 25
c-26 0 -52.333 -6.66699 -79 -20c-19.333 -10 -52 -39.667 -98 -89v-283z" />
    <glyph glyph-name="q" unicode="q" 
d="M724 780l-0.000976562 -973.997c0 -26 0.833008 -46.5 2.5 -61.5s4 -26.667 7 -35s7 -14.333 12 -18s11.167 -7.5 18.5 -11.5c14.667 -8 42.334 -12 83.001 -12v-30h-382v30h15c18.667 0 34.834 1.33301 48.501 4s24.834 8.66699 33.501 18s15 23.166 19 41.499
s6 43.166 6 74.499v325c-25.333 -29.333 -48.5 -53.833 -69.5 -73.5s-41.333 -35.5 -61 -47.5s-39 -20.5 -58 -25.5s-38.833 -7.5 -59.5 -7.5c-36 0 -71 8.66699 -105 26s-64.167 42 -90.5 74s-47.5 70.667 -63.5 116s-24 96 -24 152c0 64 10.333 122.667 31 176
s48.667 99.166 84 137.499s76.666 68.166 123.999 89.499s97.666 32 150.999 32c62 0 114.667 -17.667 158 -53c31.333 14.667 62 32.334 92 53.001h28zM586.999 539.003c0 54 -13.333 98 -40 132s-69 51 -127 51c-30 0 -58.667 -6.33301 -86 -19s-51.333 -32.167 -72 -58.5
s-37 -59.333 -49 -99s-18 -86.5 -18 -140.5c0 -51.333 6 -96.5 18 -135.5s28.5 -71.5 49.5 -97.5s45.5 -45.667 73.5 -59s57.667 -20 89 -20c32.667 0 61.667 7.16699 87 21.5s50.333 37.5 75 69.5v355z" />
    <glyph glyph-name="r" unicode="r" horiz-adv-x="564" 
d="M275 780l0.000976562 -170.998c62.667 114 127.667 171 195 171c14.667 0 28.5 -2.5 41.5 -7.5s24.167 -11.833 33.5 -20.5s16.666 -18.5 21.999 -29.5s8 -22.5 8 -34.5c0 -21.333 -7.16699 -39.5 -21.5 -54.5s-31.5 -22.5 -51.5 -22.5c-9.33301 0 -19.666 3 -30.999 9
s-22.666 12.5 -33.999 19.5l-31.5 19.5c-9.66699 6 -16.834 9 -21.501 9c-15.333 0 -32.666 -12 -51.999 -36s-38.333 -54.667 -57 -92v-363c0 -23.333 1.33301 -44 4 -62s8.66699 -33.333 18 -46s22.666 -22.334 39.999 -29.001s40.666 -10 69.999 -10v-30h-388v30
c25.333 0 45.833 1.66699 61.5 5s27.667 10 36 20s14 24.167 17 42.5s4.5 42.5 4.5 72.5v294c0 87.333 -2 139.666 -6 156.999s-10.667 29.833 -20 37.5s-21 11.5 -35 11.5c-18.667 0 -38 -4.33301 -58 -13l-8 30l229 93h35z" />
    <glyph glyph-name="s" unicode="s" horiz-adv-x="659" 
d="M543 780l0.000976562 -258.005h-28c-10.667 40.667 -22.667 74.5 -36 101.5s-28.5 48.5 -45.5 64.5s-35.833 27.167 -56.5 33.5s-43.334 9.5 -68.001 9.5c-19.333 0 -36.833 -2.83301 -52.5 -8.5s-29.167 -13 -40.5 -22s-20.166 -19.5 -26.499 -31.5s-9.5 -24 -9.5 -36
c0 -15.333 1.83301 -29.5 5.5 -42.5s10.334 -25.5 20.001 -37.5s23 -23.833 40 -35.5s38.833 -23.834 65.5 -36.501l121 -58c56.667 -27.333 98.834 -59.166 126.501 -95.499s41.5 -76.5 41.5 -120.5c0 -34.667 -7.33301 -66.167 -22 -94.5s-33.834 -52.5 -57.501 -72.5
s-50.667 -35.5 -81 -46.5s-61.166 -16.5 -92.499 -16.5c-48 0 -101 8.33301 -159 25c-20 5.33301 -35 8 -45 8c-13.333 0 -23.333 -7.33301 -30 -22h-27v271h27c7.33301 -39.333 18.666 -73.5 33.999 -102.5s33.5 -53.167 54.5 -72.5s44 -33.833 69 -43.5
s50.833 -14.5 77.5 -14.5c18.667 0 36 3 52 9s29.667 14.167 41 24.5s20.166 22.333 26.499 36s9.5 28.5 9.5 44.5c0 16.667 -2 31.834 -6 45.501s-11.5 26.834 -22.5 39.501s-25.833 25.334 -44.5 38.001s-42.334 26.667 -71.001 42l-108 56
c-30 15.333 -54.167 30.333 -72.5 45s-32.666 30 -42.999 46s-17.333 32.833 -21 50.5s-5.5 37.167 -5.5 58.5c0 30.667 5.66699 59.334 17 86.001s27.166 49.834 47.499 69.501s44.5 35.167 72.5 46.5s59 17 93 17c10 0 23.167 -1.66699 39.5 -5s33 -7 50 -11l46 -11
c13.667 -3.33301 23.167 -5 28.5 -5c8.66699 0 15.5 2 20.5 6s10.833 12.667 17.5 26h28z" />
    <glyph glyph-name="t" unicode="t" horiz-adv-x="471" 
d="M273 1006l-0.00390625 -248.001h177v-58h-177v-492c0 -24 1.83301 -44 5.5 -60s8.83398 -28.833 15.501 -38.5s14.5 -16.334 23.5 -20.001s19.167 -5.5 30.5 -5.5c18 0 35.667 5.5 53 16.5s30.666 27.833 39.999 50.5h32c-19.333 -54.667 -46.666 -95.5 -81.999 -122.5
s-71.666 -40.5 -108.999 -40.5c-25.333 0 -50.333 7 -75 21c-12 6.66699 -22.5 14.834 -31.5 24.501s-16.333 21.5 -22 35.5s-10 30.833 -13 50.5s-4.5 43.167 -4.5 70.5v510h-119v27c30 12 60.833 32.5 92.5 61.5s59.834 63.5 84.501 103.5
c6.66699 10.667 14.334 25.334 23.001 44.001s18.667 42 30 70h26z" />
    <glyph glyph-name="u" unicode="u" 
d="M717 758l0.00390625 -459.001c0 -88 2 -142 6 -162c4 -19.333 10.667 -32.833 20 -40.5s20 -11.5 32 -11.5c16.667 0 36 4.66699 58 14l11 -29l-226 -93h-37v160c-32.667 -36 -60.834 -64.667 -84.501 -86s-45.167 -37.5 -64.5 -48.5s-37.5 -18 -54.5 -21
s-35.167 -4.5 -54.5 -4.5c-42.667 0 -79.667 12.167 -111 36.5s-52.666 55.833 -63.999 94.5c-12 38.667 -18 93.334 -18 164.001v338c0 22 -1.33301 40.333 -4 55s-8.5 26.667 -17.5 36s-21.833 16 -38.5 20s-39.334 6 -68.001 6v31h265v-507c0 -36 3.5 -65.333 10.5 -88
s16.333 -40.167 28 -52.5s25 -20.666 40 -24.999s30.833 -6.5 47.5 -6.5c23.333 0 50.166 7.33301 80.499 22s66.166 43 107.499 85v429c0 21.333 -1.83301 39.166 -5.5 53.499s-10 25.666 -19 33.999s-21.333 14.333 -37 18s-35.834 5.83398 -60.501 6.50098v31h258z" />
    <glyph glyph-name="v" unicode="v" 
d="M14 758h355.998v-31h-23c-21.333 0 -37.666 -5.16699 -48.999 -15.5s-17 -24.5 -17 -42.5c0 -19.333 6 -42.333 18 -69l176 -418l177 434c12.667 30 19 53.333 19 70c0 13.333 -5.83301 23.5 -17.5 30.5s-34.834 10.5 -69.501 10.5v31h247v-31
c-17.333 -1.33301 -31.666 -4.33301 -42.999 -9s-21 -11 -29 -19s-15 -18 -21 -30s-12.333 -26 -19 -42l-268 -650h-34l-271 639c-8.66699 20 -16.667 36.333 -24 49s-15.666 23 -24.999 31s-20.5 14.167 -33.5 18.5s-29.5 8.5 -49.5 12.5v31z" />
    <glyph glyph-name="w" unicode="w" horiz-adv-x="1223" 
d="M11 758l317.001 0.000976562v-31c-29.333 -2 -48.5 -7.16699 -57.5 -15.5s-13.5 -20.166 -13.5 -35.499c0 -16.667 4.66699 -37.334 14 -62.001l162 -436l163 355l-43 111c-5.33301 14 -11 26 -17 36s-13.333 18.167 -22 24.5s-19.5 11.333 -32.5 15
s-29.167 6.16699 -48.5 7.5v31h361v-31c-34 -2 -59.333 -7.5 -76 -16.5s-25 -24.833 -25 -47.5c0 -11.333 2.33301 -22.666 7 -33.999l172 -435l159 420c11.333 30 17 53.667 17 71c0 10 -5.33301 19.167 -16 27.5s-32 13.166 -64 14.499v31h239v-31
c-48 -6.66699 -83 -39.334 -105 -98.001l-253 -652h-34l-190 484l-221 -484h-30l-243 637c-8 20 -15.5 36.5 -22.5 49.5s-15 23.667 -24 32s-19.333 14.833 -31 19.5s-25.834 8.66699 -42.501 12v31z" />
    <glyph glyph-name="x" unicode="x" 
d="M22 758l357 -0.00195312v-31c-22.667 0 -38.5 -3.83301 -47.5 -11.5s-13.5 -17.834 -13.5 -30.501c0 -6.66699 2.5 -15 7.5 -25s12.167 -22 21.5 -36l81 -128l62 86c39.333 54.667 59 89.334 59 104.001c0 11.333 -4.66699 21 -14 29s-24.333 12 -45 12v31h256v-31
c-16.667 -1.33301 -31.5 -4.33301 -44.5 -9s-26.167 -12.5 -39.5 -23.5s-27.666 -25.5 -42.999 -43.5s-33.333 -41 -54 -69l-104 -138l189 -271c24 -34 43.5 -60.667 58.5 -80s28.5 -33.5 40.5 -42.5s23.667 -14.667 35 -17s25.333 -3.5 42 -3.5v-30h-357v30
c21.333 0 39 4 53 12s21 19.667 21 35c0 12.667 -17.667 44.667 -53 96l-111 162l-122 -162c-37.333 -49.333 -56 -79 -56 -89c0 -13.333 6.16699 -25.5 18.5 -36.5s30.833 -16.833 55.5 -17.5v-30h-247v30c12 2 23 5 33 9s20.5 11 31.5 21s23.833 24 38.5 42l55 71l159 211
l-144 208c-21.333 30 -39.333 53.833 -54 71.5s-28.334 31.334 -41.001 41.001s-25.5 15.834 -38.5 18.501s-28.167 4 -45.5 4v31z" />
    <glyph glyph-name="y" unicode="y" 
d="M10 758l353.001 0.0078125v-31h-17c-25.333 0 -44.166 -5.33301 -56.499 -16s-18.5 -24 -18.5 -40c0 -22.667 9.33301 -52.667 28 -90l184 -382l170 419c9.33301 24 14 46.333 14 67c0 6 -0.833008 11.5 -2.5 16.5s-5.16699 9.33301 -10.5 13s-13 6.66699 -23 9
s-23.667 3.5 -41 3.5v31h247v-31c-13.333 -1.33301 -24.833 -3.33301 -34.5 -6s-18.5 -7.83398 -26.5 -15.501s-16 -18.834 -24 -33.501s-17 -34.334 -27 -59.001l-308 -756c-14.667 -36 -32.167 -68 -52.5 -96s-42 -51.333 -65 -70s-46.5 -32.834 -70.5 -42.501
s-47 -14.5 -69 -14.5c-16 0 -30.833 2.66699 -44.5 8s-25.334 12.166 -35.001 20.499s-17.334 18.166 -23.001 29.499s-8.5 23 -8.5 35c0 23.333 7.5 42 22.5 56s35.833 21 62.5 21c6 0 14.833 -1.66699 26.5 -5l36 -10.5l34 -10.5c10.333 -3.33301 16.833 -5 19.5 -5
c8 0 16.667 2 26 6s18.666 10.667 27.999 20s19 22.166 29 38.499s20 36.5 30 60.5l54 132l-272 571l-14 24.5c-6 10.333 -12.667 20.666 -20 30.999s-14.666 19.833 -21.999 28.5s-13.333 15 -18 19c-12 8 -32.333 15.667 -61 23v31z" />
    <glyph glyph-name="z" unicode="z" horiz-adv-x="752" 
d="M711 232l-0.00292969 -232.001h-677v30l503 670h-248c-27.333 0 -49.166 -0.833008 -65.499 -2.5s-29.5 -4.33398 -39.5 -8.00098s-18 -8.66699 -24 -15s-11.667 -14.5 -17 -24.5c-7.33301 -13.333 -13.166 -28.666 -17.499 -45.999s-7.16602 -36.333 -8.49902 -57h-33
v211h640v-31l-507 -672h276c30 0 54.333 1 73 3s34 5.5 46 10.5s21.5 11.833 28.5 20.5s13.833 19.334 20.5 32.001c8.66699 16 16 53 22 111h28z" />
    <glyph glyph-name="braceleft" unicode="{" horiz-adv-x="813" 
d="M696 -366c-46 6.66699 -88.0049 20.0059 -126.005 40.0059s-70.833 44.5 -98.5 73.5s-49 61.167 -64 96.5s-22.5 71.666 -22.5 108.999c0 18 2 39.167 6 63.5s8.33301 49 13 74l13 70.5c4 22 6 39.667 6 53c0 20 -4.33301 39.667 -13 59s-21.167 36.833 -37.5 52.5
s-36.166 29.167 -59.499 40.5s-49.666 19 -78.999 23v34c30 3.33301 56.667 10.666 80 21.999s43 25 59 41s28.333 33.667 37 53s13 38.666 13 57.999c0 12.667 -2 30 -6 52l-13 70.5c-4.66699 25 -9 49.833 -13 74.5s-6 46 -6 64c0 37.333 7.5 73.666 22.5 108.999
s36.333 67.5 64 96.5s60.5 53.5 98.5 73.5s80 33 126 39v-29c-32 -8 -59.833 -18.5 -83.5 -31.5s-43.167 -27.833 -58.5 -44.5s-26.666 -34.834 -33.999 -54.501s-11 -39.834 -11 -60.501c0 -15.333 2 -34.5 6 -57.5l12.5 -72l12.5 -73.5c4 -24 6 -44.667 6 -62
c0 -27.333 -5.16699 -54.666 -15.5 -81.999s-25.666 -53.5 -45.999 -78.5s-45.666 -48 -75.999 -69s-65.833 -38.833 -106.5 -53.5c39.333 -14.667 74.166 -32.834 104.499 -54.501s55.833 -45.167 76.5 -70.5s36.334 -52 47.001 -80s16 -55.667 16 -83
c0 -17.333 -2 -38 -6 -62l-12.5 -73.5l-12.5 -72.5c-4 -23.333 -6 -42.333 -6 -57c0 -42 15 -80.5 45 -115.5s77.333 -60.5 142 -76.5v-29z" />
    <glyph glyph-name="bar" unicode="|" horiz-adv-x="339" 
d="M202 1176v-1542h-69v1542h69z" />
    <glyph glyph-name="braceright" unicode="}" horiz-adv-x="813" 
d="M146 1176c46 -6 87.9961 -19.0068 125.996 -39.0068s70.833 -44.5 98.5 -73.5s49 -61.167 64 -96.5s22.5 -71.666 22.5 -108.999c0 -18 -2 -39.333 -6 -64s-8.33301 -49.5 -13 -74.5l-13 -70.5c-4 -22 -6 -39.333 -6 -52c0 -19.333 4.33301 -38.666 13 -57.999
s21 -37 37 -53s35.667 -29.667 59 -41s50 -18.666 80 -21.999v-34c-29.333 -4 -55.666 -11.667 -78.999 -23s-43.166 -24.833 -59.499 -40.5s-28.833 -33.167 -37.5 -52.5s-13 -39 -13 -59c0 -13.333 2 -31 6 -53l13 -70.5c4.66699 -25 9 -49.667 13 -74s6 -45.5 6 -63.5
c0 -37.333 -7.66699 -73.666 -23 -108.999s-36.666 -67.5 -63.999 -96.5s-60 -53.5 -98 -73.5s-80 -33.333 -126 -40v29c64.667 16 112 41.5 142 76.5s45 73.5 45 115.5c0 14.667 -2 33.667 -6 57l-13 72.5c-4.66699 25 -9 49.5 -13 73.5s-6 44.333 -6 61
c0 28 5.16699 55.833 15.5 83.5s25.666 54 45.999 79s45.833 48 76.5 69s66.334 38.833 107.001 53.5c-40 14.667 -75.333 32.667 -106 54s-56.167 44.833 -76.5 70.5s-35.833 52.334 -46.5 80.001s-16 55.167 -16 82.5c0 17.333 2 38 6 62s8.33301 48.5 13 73.5l13 72
c4 23 6 42.167 6 57.5c0 20.667 -3.66699 40.834 -11 60.501s-18.666 37.834 -33.999 54.501s-34.833 31.5 -58.5 44.5s-51.5 23.5 -83.5 31.5v29z" />
    <glyph glyph-name="asciitilde" unicode="~" horiz-adv-x="916" 
d="M919 558c-1.33301 -35.333 -7.49902 -67.166 -18.499 -95.499s-25.5 -52.333 -43.5 -72s-39 -34.834 -63 -45.501s-50 -16 -78 -16c-10.667 0 -19.834 0.166992 -27.501 0.5s-16 1.5 -25 3.5s-19.667 5 -32 9s-28.166 9.83301 -47.499 17.5l-71.5 28l-104.5 41.5
c-43.333 17.333 -80 30.5 -110 39.5s-53.667 13.5 -71 13.5c-38.667 0 -71.334 -11.667 -98.001 -35s-45.334 -62 -56.001 -116h-37c1.33301 37.333 7.66602 70.333 18.999 99s25.833 52.667 43.5 72s37.834 34 60.501 44s46.334 15 71.001 15
c33.333 0 74.333 -8.66699 123 -26s107.667 -41 177 -71c94 -40 160 -60 198 -60c42 0 76.833 13.167 104.5 39.5s44.167 64.5 49.5 114.5h37z" />
    <glyph glyph-name="exclamdown" unicode="&#xa1;" horiz-adv-x="564" 
d="M283 805c26 0 47.832 -8.83301 65.499 -26.5s26.5 -39.167 26.5 -64.5c0 -12.667 -2.33301 -24.5 -7 -35.5s-11.167 -20.667 -19.5 -29s-18.166 -14.833 -29.499 -19.5s-23.333 -7 -36 -7c-25.333 0 -46.833 8.83301 -64.5 26.5s-26.5 39.167 -26.5 64.5
s8.83301 46.833 26.5 64.5s39.167 26.5 64.5 26.5zM265.999 485l31.999 -0.000976562l73 -669c1.33301 -14.667 2.33301 -27.5 3 -38.5s1 -20.167 1 -27.5c0 -17.333 -2.5 -33.166 -7.5 -47.499s-11.667 -26.5 -20 -36.5s-18.166 -17.833 -29.499 -23.5
s-23.333 -8.5 -36 -8.5c-26 0 -48 10.5 -66 31.5s-27 52.5 -27 94.5c0 6.66699 0.333008 14.667 1 24s1.66699 20 3 32z" />
    <glyph glyph-name="cent" unicode="&#xa2;" 
d="M744 289c-11.333 -45.333 -26.498 -86.834 -45.498 -124.501s-41.667 -70.167 -68 -97.5s-56.5 -48.666 -90.5 -63.999s-71.667 -23 -113 -23c-43.333 0 -88 9.66699 -134 29l-118 -322h-58l129 353c-26.667 24.667 -48.834 49.667 -66.501 75
s-31.834 51.666 -42.501 78.999s-18.334 55.833 -23.001 85.5s-7 61.167 -7 94.5c0 60 9.16699 115.167 27.5 165.5s43.5 93.5 75.5 129.5s69.667 64 113 84s89.666 30 138.999 30c10.667 0 27.667 -1 51 -3l116 317h59l-120 -333c31.333 -14 57 -27.833 77 -41.5
s35.667 -27.167 47 -40.5s19.166 -27.166 23.499 -41.499s6.5 -28.833 6.5 -43.5c0 -21.333 -6.66699 -38.333 -20 -51s-32.666 -19 -57.999 -19c-12 0 -23.167 1.33301 -33.5 4s-19.333 7.66699 -27 15s-14.167 17.5 -19.5 30.5s-9.33301 29.5 -12 49.5
c-1.33301 8.66699 -3.16602 17.5 -5.49902 26.5s-5.16602 18.167 -8.49902 27.5l-189 -522c14 -9.33301 26.333 -17.166 37 -23.499s21 -11.5 31 -15.5s20.333 -6.83301 31 -8.5s22.667 -2.5 36 -2.5c16 0 32.167 1.83301 48.5 5.5s32 8.83398 47 15.501
s28.667 14.167 41 22.5s22.5 17.166 30.5 26.499c16 19.333 38.667 59.666 68 120.999zM490.002 714.999c-14 6.66699 -30.335 9.99609 -49.002 9.99609c-33.333 0 -62.666 -7.5 -87.999 -22.5s-46.5 -35.333 -63.5 -61s-29.667 -55.667 -38 -90s-12.5 -70.833 -12.5 -109.5
c0 -21.333 1.16699 -41.166 3.5 -59.499s6 -36.666 11 -54.999s11.833 -37.166 20.5 -56.499s19.334 -40.666 32.001 -63.999z" />
    <glyph glyph-name="sterling" unicode="&#xa3;" 
d="M598 545l-212.997 -0.000976562v-56c0 -27.333 -0.833008 -52.5 -2.5 -75.5s-4.5 -46 -8.5 -69s-9.16699 -46.667 -15.5 -71s-14.5 -51.166 -24.5 -80.499c107.333 -34.667 169 -53.667 185 -57c27.333 -6.66699 55.666 -10 84.999 -10c46 0 83.167 10.5 111.5 31.5
s49.166 54.5 62.499 100.5l30 -7c-5.33301 -44 -15.5 -83 -30.5 -117s-33.167 -62.333 -54.5 -85s-45 -39.834 -71 -51.501s-53 -17.5 -81 -17.5c-20.667 0 -38.5 1 -53.5 3s-31.5 7.16699 -49.5 15.5s-39.833 21.333 -65.5 39s-59.5 42.5 -101.5 74.5
c-44 -88 -95.333 -132 -154 -132c-28 0 -51.167 9.33301 -69.5 28s-27.5 45 -27.5 79c0 18.667 3.5 35.834 10.5 51.501s16.5 29.334 28.5 41.001s26.333 20.667 43 27s34.667 9.5 54 9.5c9.33301 0 19.833 -0.5 31.5 -1.5s24.5 -2.83301 38.5 -5.5
c1.33301 14.667 2.16602 27.167 2.49902 37.5s0.5 19.166 0.5 26.499c0 48 -6 138.667 -18 272h-160v79h160c-4 47.333 -6.66699 85.333 -8 114s-2 48.667 -2 60c0 48.667 8 94.167 24 136.5s37.667 79 65 110s59 55.5 95 73.5s73.667 27 113 27
c36 0 67.667 -5.16699 95 -15.5s50.166 -23.833 68.499 -40.5s32 -35 41 -55s13.5 -39.333 13.5 -58c0 -18 -6.83301 -33.833 -20.5 -47.5s-28.5 -20.5 -44.5 -20.5c-8 0 -15.667 1.16699 -23 3.5s-13.833 6.83301 -19.5 13.5s-10.334 16.167 -14.001 28.5
s-6.16699 28.833 -7.5 49.5c-2 34 -11.333 58.5 -28 73.5s-40.667 22.5 -72 22.5c-21.333 0 -41.166 -3.83301 -59.499 -11.5s-34.166 -20.5 -47.499 -38.5s-24 -41.667 -32 -71s-12 -66 -12 -110c0 -20.667 0.833008 -43.667 2.5 -69s4.16699 -54 7.5 -86l9 -89h213v-79z
M246.003 141.999c-23.333 15.333 -46.666 22.999 -69.999 22.999c-24.667 0 -43.834 -6.66699 -57.501 -20s-20.5 -30.666 -20.5 -51.999c0 -20 5.33301 -35.833 16 -47.5s23 -17.5 37 -17.5c18.667 0 36.667 8.5 54 25.5s31 46.5 41 88.5z" />
    <glyph glyph-name="currency" unicode="&#xa4;" horiz-adv-x="1106" 
d="M867 904l69.001 -71l-99 -100c46.667 -68.667 70 -139.667 70 -213c0 -40 -5.5 -76.5 -16.5 -109.5s-28.833 -67.5 -53.5 -103.5l99 -99l-69 -70l-100 99c-36 -25.333 -70.667 -43.5 -104 -54.5s-70 -16.5 -110 -16.5c-40.667 0 -77.5 5.5 -110.5 16.5
s-67.5 28.833 -103.5 53.5l-99 -98l-70 70l99 98c-24.667 36 -42.667 70.667 -54 104s-17 70 -17 110s5.66699 76.667 17 110s29.333 68 54 104l-99 99l69 71l100 -99c70.667 46.667 142 70 214 70c39.333 0 75.666 -5.5 108.999 -16.5s68.333 -29.167 105 -54.5z
M808.001 520c0 34.667 -6.66797 67.499 -20.001 98.499s-31.5 58.167 -54.5 81.5s-50 41.833 -81 55.5s-64.167 20.5 -99.5 20.5s-68.333 -6.66699 -99 -20s-57.667 -31.666 -81 -54.999s-41.666 -50.5 -54.999 -81.5s-20 -64.167 -20 -99.5s6.66699 -68.5 20 -99.5
s31.5 -58 54.5 -81s50 -41.167 81 -54.5s64.167 -20 99.5 -20s68.5 6.83301 99.5 20.5s58 32 81 55s41.167 50 54.5 81s20 63.833 20 98.5z" />
    <glyph glyph-name="yen" unicode="&#xa5;" 
d="M494 351l351.997 -0.00292969v-60h-352v-89c0 -28.667 0.5 -51.667 1.5 -69s2.66699 -31.166 5 -41.499s6 -18.333 11 -24s11.5 -10.834 19.5 -15.501c20 -12 43.333 -18 70 -18h34v-34h-426v34h27c34 0 59.833 5.16699 77.5 15.5s29.5 28.166 35.5 53.499
c2 10 3 43 3 99v89h-350v60h350v120l-12 29h-338v61h311l-176 410c-10 24 -19.667 43.667 -29 59s-19.166 27.333 -29.499 36s-21.666 14.667 -33.999 18s-26.5 5.33301 -42.5 6v31h365v-31c-20 -1.33301 -36.333 -3.66602 -49 -6.99902s-22.834 -7.33301 -30.501 -12
s-13 -9.66699 -16 -15s-4.5 -11 -4.5 -17c0 -10 5 -26.333 15 -49l177 -429l176 417c12 26.667 18 47.334 18 62.001c0 4 -0.666992 8.5 -2 13.5s-4.33301 9.83301 -9 14.5s-11.834 8.83398 -21.501 12.501s-22.5 6.16699 -38.5 7.5l-22 2v31h286v-31
c-19.333 0 -35.666 -2.33301 -48.999 -7s-25.166 -12.167 -35.499 -22.5s-20.166 -23.666 -29.499 -39.999s-19 -35.833 -29 -58.5l-177 -401h320v-61h-346l-6 -13v-136z" />
    <glyph glyph-name="brokenbar" unicode="&#xa6;" horiz-adv-x="339" 
d="M202 1176v-614h-69v614h69zM202 248v-614h-69v614h69z" />
    <glyph glyph-name="section" unicode="&#xa7;" 
d="M312 697c-38 40.667 -64.6641 77.8252 -79.9971 111.492s-23 67.834 -23 102.501c0 32 6.16699 62.333 18.5 91s29.166 53.5 50.499 74.5s46.166 37.667 74.499 50s58.833 18.5 91.5 18.5c30 0 57.833 -5.16699 83.5 -15.5s47.834 -24 66.501 -41
s33.167 -36.5 43.5 -58.5s15.5 -44.333 15.5 -67c0 -18.667 -5.5 -35.834 -16.5 -51.501s-27.167 -23.5 -48.5 -23.5c-18.667 0 -34.167 6.33301 -46.5 19s-18.5 27.667 -18.5 45c0 2.66699 0.5 7 1.5 13s2.33301 12.667 4 20s3 15.166 4 23.499s1.5 15.833 1.5 22.5
c0 22.667 -8 41.5 -24 56.5s-38 22.5 -66 22.5c-20 0 -38.667 -3.83301 -56 -11.5s-32.5 -18.167 -45.5 -31.5s-23.333 -28.666 -31 -45.999s-11.5 -36 -11.5 -56c0 -21.333 3.16699 -40.833 9.5 -58.5s15.666 -34.834 27.999 -51.501s27.666 -33 45.999 -49
s39.5 -32.667 63.5 -50c48 -35.333 89.167 -68.166 123.5 -98.499s62.5 -59.666 84.5 -87.999s38 -56.333 48 -84s15 -56.5 15 -86.5c0 -50.667 -14.667 -101 -44 -151s-75.666 -94 -138.999 -132c19.333 -22 35.5 -41.833 48.5 -59.5s23.5 -34.834 31.5 -51.501
s13.667 -32.834 17 -48.501s5 -32.5 5 -50.5c0 -33.333 -6 -64.333 -18 -93s-28.667 -53.667 -50 -75s-46.333 -38.166 -75 -50.499s-59.334 -18.5 -92.001 -18.5c-29.333 0 -56.5 5 -81.5 15s-47 23.5 -66 40.5s-33.833 36.833 -44.5 59.5s-16 46.334 -16 71.001
c0 20.667 6.5 38 19.5 52s28.167 21 45.5 21c16.667 0 31.167 -6.5 43.5 -19.5s18.5 -30.5 18.5 -52.5c0 -7.33301 -0.666992 -15.166 -2 -23.499s-2.83301 -16.666 -4.5 -24.999s-3.16699 -16.166 -4.5 -23.499s-2 -13.333 -2 -18c0 -10.667 3 -20 9 -28
s13.667 -14.833 23 -20.5s20 -9.83398 32 -12.501s23.667 -4 35 -4c18 0 35.833 4 53.5 12s33.167 18.5 46.5 31.5s24.166 27.667 32.499 44s12.5 32.833 12.5 49.5c0 20.667 -3.33301 40.334 -10 59.001s-17 37.167 -31 55.5s-31.667 37 -53 56s-46.333 39.5 -75 61.5
c-46.667 34.667 -86.167 66.834 -118.5 96.501s-58.5 58.334 -78.5 86.001s-34.5 54.834 -43.5 81.501s-13.5 54.334 -13.5 83.001c0 50.667 14.833 100.5 44.5 149.5s75.834 92.5 138.501 130.5zM338.003 671.991c-83.333 -51.333 -125.001 -112.667 -125.001 -184
c0 -22.667 3.5 -44.167 10.5 -64.5s18.167 -41 33.5 -62s35.333 -42.667 60 -65s54.667 -46.833 90 -73.5l54 -42.5c16.667 -13.667 32.334 -27.167 47.001 -40.5c84 50.667 126 111.334 126 182.001c0 17.333 -2.5 35 -7.5 53s-14.333 37.167 -28 57.5
s-32.5 42.666 -56.5 66.999s-55.333 51.5 -94 81.5l-61.5 48.5c-18.333 15 -34.5 29.167 -48.5 42.5z" />
    <glyph glyph-name="dieresis" unicode="&#xa8;" horiz-adv-x="564" 
d="M428 1106c12.667 0 24.498 -2.33496 35.498 -7.00195s20.5 -11.167 28.5 -19.5s14.333 -18 19 -29s7 -22.5 7 -34.5c0 -25.333 -8.66699 -46.666 -26 -63.999s-38.666 -26 -63.999 -26c-12 0 -23.5 2.33301 -34.5 7s-20.667 11 -29 19s-14.833 17.5 -19.5 28.5
s-7 22.833 -7 35.5c0 24.667 8.83301 45.834 26.5 63.501s38.834 26.5 63.501 26.5zM135.998 1106c12.667 0 24.5 -2.33398 35.5 -7.00098s20.667 -11.167 29 -19.5s14.833 -18 19.5 -29s7 -22.5 7 -34.5c0 -12.667 -2.33301 -24.5 -7 -35.5s-11.167 -20.5 -19.5 -28.5
s-18 -14.333 -29 -19s-22.5 -7 -34.5 -7s-23.5 2.33301 -34.5 7s-20.667 11 -29 19s-14.833 17.5 -19.5 28.5s-7 22.833 -7 35.5c0 24.667 8.66699 45.834 26 63.501s38.333 26.5 63 26.5z" />
    <glyph glyph-name="copyright" unicode="&#xa9;" horiz-adv-x="1287" 
d="M643 1147c48.667 0 96.832 -6.33398 144.499 -19.001s93.334 -31 137.001 -55s84.167 -53.333 121.5 -88s69.666 -73.667 96.999 -117s48.833 -90.833 64.5 -142.5s23.5 -106.5 23.5 -164.5c0 -50 -6.66699 -99.333 -20 -148s-32.166 -94.667 -56.499 -138
s-54 -83.5 -89 -120.5s-74.333 -68.833 -118 -95.5s-91.167 -47.5 -142.5 -62.5s-105.333 -22.5 -162 -22.5c-75.333 0 -148.166 14.667 -218.499 44s-132.833 70 -187.5 122s-98.334 113.833 -131.001 185.5s-49 150.167 -49 235.5c0 76.667 14.833 150.334 44.5 221.001
s70.834 133 123.501 187s114.667 97.167 186 129.5s148.666 48.5 231.999 48.5zM642.998 1097c-65.333 0 -129.834 -12.835 -193.501 -38.502s-120.834 -62 -171.501 -109s-91.667 -103.333 -123 -169s-47 -138.834 -47 -219.501c0 -69.333 13.333 -136.166 40 -200.499
s63.667 -121.333 111 -171s103.833 -89.5 169.5 -119.5s137.167 -45 214.5 -45c68.667 0 135.334 13.333 200.001 40s121.834 63.834 171.501 111.501s89.5 104.167 119.5 169.5s45 137 45 215c0 70 -13.5 137.167 -40.5 201.5s-64.5 121.333 -112.5 171
s-104.667 89.334 -170 119.001s-136.333 44.5 -213 44.5zM933.997 937.997l16.001 -231.996h-32c-20 66.667 -51.667 115.834 -95 147.501s-95.333 47.5 -156 47.5c-40 0 -76.333 -7.16699 -109 -21.5s-60.5 -35.333 -83.5 -63s-40.833 -61.334 -53.5 -101.001
s-19 -84.834 -19 -135.501c0 -59.333 6.5 -110.5 19.5 -153.5s31.5 -78.5 55.5 -106.5s52.833 -48.667 86.5 -62s71.167 -20 112.5 -20c106.667 0 192.667 44.667 258 134l30 -16c-77.333 -111.333 -182.666 -167 -315.999 -167c-55.333 0 -106.333 9.5 -153 28.5
s-87 45.167 -121 78.5s-60.667 72.166 -80 116.499s-29 92.166 -29 143.499c0 52.667 10.167 102.167 30.5 148.5s48.666 86.833 84.999 121.5s79.666 62.167 129.999 82.5s105.5 30.5 165.5 30.5c14 0 25.667 -0.166992 35 -0.5s19 -1.5 29 -3.5s21.667 -5.16699 35 -9.5
s31.333 -10.5 54 -18.5c7.33301 -2.66699 13.5 -4.33398 18.5 -5.00098s9.16699 -1 12.5 -1c8.66699 0 16.167 2.33301 22.5 7s12.5 14.667 18.5 30h33z" />
    <glyph glyph-name="ordfeminine" unicode="&#xaa;" horiz-adv-x="467" 
d="M281 976c0 30.667 -2.00098 55.501 -6.00098 74.501s-9.66699 33.833 -17 44.5s-16.333 17.667 -27 21s-23 5 -37 5c-26.667 0 -46.334 -5.83301 -59.001 -17.5s-19 -30.167 -19 -55.5c0 -24.667 -4.66699 -42.667 -14 -54s-20.666 -17 -33.999 -17
c-12.667 0 -23.5 4.66699 -32.5 14s-13.5 21 -13.5 35c0 15.333 3.83301 30.166 11.5 44.499s19.334 27 35.001 38s35.667 19.833 60 26.5s53.166 10 86.499 10c25.333 0 47.833 -2.5 67.5 -7.5s36.334 -11.333 50.001 -19s24.834 -16.167 33.501 -25.5
s14.667 -18.333 18 -27c7.33301 -18.667 11 -48.667 11 -90v-180c0 -16 0.166992 -28.167 0.5 -36.5s0.833008 -14.5 1.5 -18.5s1.66699 -6.66699 3 -8s3.33301 -2.66602 6 -3.99902c4.66699 -3.33301 8.33398 -5 11.001 -5c6.66699 0 22.667 8 48 24v-39
c-20.667 -14.667 -37.167 -26 -49.5 -34s-22.5 -14 -30.5 -18s-15.167 -6.5 -21.5 -7.5s-13.5 -1.5 -21.5 -1.5c-14 0 -26.333 5.5 -37 16.5s-18.667 31.5 -24 61.5c-34.667 -24.667 -66.834 -43.334 -96.501 -56.001s-56.834 -19 -81.501 -19
c-14 0 -27.5 2.83301 -40.5 8.5s-24.5 13.167 -34.5 22.5s-18 20.166 -24 32.499s-9 25.166 -9 38.499c0 28.667 8.33301 53.667 25 75s44 43.333 82 66c14.667 8.66699 36.667 19.834 66 33.501s67 29.834 113 48.501zM280.999 944.001
c-33.333 -11.333 -60.833 -23.001 -82.5 -35.001s-39.167 -24.5 -52.5 -37.5s-22.666 -26.167 -27.999 -39.5s-8 -26.666 -8 -39.999c0 -18.667 7 -35.167 21 -49.5s31.667 -21.5 53 -21.5c25.333 0 57.666 12.333 96.999 37v186z" />
    <glyph glyph-name="guillemotleft" unicode="&#xab;" 
d="M420 -7h-47l-320 391l320 388h47l-202 -388zM794 -7h-48l-326 391l326 388h48l-201 -388z" />
    <glyph glyph-name="logicalnot" unicode="&#xac;" horiz-adv-x="955" 
d="M30 726h893v-336h-65v269h-828v67z" />
    <glyph glyph-name="registered" unicode="&#xae;" horiz-adv-x="1287" 
d="M643 1147c48.667 0 96.832 -6.33398 144.499 -19.001s93.334 -31 137.001 -55s84.167 -53.333 121.5 -88s69.666 -73.667 96.999 -117s48.833 -90.833 64.5 -142.5s23.5 -106.5 23.5 -164.5c0 -50 -6.66699 -99.333 -20 -148s-32.166 -94.667 -56.499 -138
s-54 -83.5 -89 -120.5s-74.333 -68.833 -118 -95.5s-91.167 -47.5 -142.5 -62.5s-105.333 -22.5 -162 -22.5c-75.333 0 -148.166 14.667 -218.499 44s-132.833 70 -187.5 122s-98.334 113.833 -131.001 185.5s-49 150.167 -49 235.5c0 76.667 14.833 150.334 44.5 221.001
s70.834 133 123.501 187s114.667 97.167 186 129.5s148.666 48.5 231.999 48.5zM642.998 1097c-65.333 0 -129.834 -12.835 -193.501 -38.502s-120.834 -62 -171.501 -109s-91.667 -103.333 -123 -169s-47 -138.834 -47 -219.501c0 -69.333 13.333 -136.166 40 -200.499
s63.667 -121.333 111 -171s103.833 -89.5 169.5 -119.5s137.167 -45 214.5 -45c68.667 0 135.334 13.333 200.001 40s121.834 63.834 171.501 111.501s89.5 104.167 119.5 169.5s45 137 45 215c0 70 -13.5 137.167 -40.5 201.5s-64.5 121.333 -112.5 171
s-104.667 89.334 -170 119.001s-136.333 44.5 -213 44.5zM318.997 920.997l318.998 -0.00292969c40 0 75.333 -4.83301 106 -14.5s56.334 -23 77.001 -40s36.334 -36.667 47.001 -59s16 -46.166 16 -71.499c0 -42 -14.167 -78.833 -42.5 -110.5s-75.5 -56.167 -141.5 -73.5
l173 -246c8.66699 -12 16.667 -22.333 24 -31s14.666 -16 21.999 -22s15.333 -10.5 24 -13.5s18.667 -5.16699 30 -6.5v-27h-152l-243 335h-63v-256c2 -9.33301 4.66699 -17.166 8 -23.499s8.5 -11.666 15.5 -15.999s16.5 -7.5 28.5 -9.5s27.333 -3 46 -3v-27h-304v27
c20 0 35.667 1.16699 47 3.5s19.833 7.5 25.5 15.5s9.33398 19.5 11.001 34.5s2.5 35.167 2.5 60.5v433c0 24 -0.5 43.333 -1.5 58s-3.83301 26 -8.5 34s-12.167 13.333 -22.5 16s-24.833 4 -43.5 4v29zM514.995 575.994c85.333 0 145.999 13.333 181.999 40
s54 63.667 54 111c0 22.667 -4.16699 43.667 -12.5 63s-20 36 -35 50s-32.667 25 -53 33s-42.166 12 -65.499 12c-22.667 0 -46 -4.33301 -70 -13v-296z" />
    <glyph glyph-name="macron" unicode="&#xaf;" 
d="M862 1209h-876v70h876v-70z" />
    <glyph glyph-name="degree" unicode="&#xb0;" horiz-adv-x="677" 
d="M335 1146c34.667 0 67.502 -6.66699 98.502 -20s58.167 -31.5 81.5 -54.5s41.666 -50 54.999 -81s20 -63.833 20 -98.5c0 -35.333 -6.66699 -68.333 -20 -99s-31.5 -57.5 -54.5 -80.5s-50 -41.167 -81 -54.5s-64.167 -20 -99.5 -20c-34.667 0 -67.334 6.5 -98.001 19.5
s-57.5 31 -80.5 54s-41.333 50 -55 81s-20.5 64.167 -20.5 99.5c0 34.667 6.66699 67.5 20 98.5s31.5 58 54.5 81s49.833 41.167 80.5 54.5s63.667 20 99 20zM335.002 1077c-25.333 0 -49.166 -4.83008 -71.499 -14.4971s-41.833 -22.834 -58.5 -39.501
s-29.834 -36.334 -39.501 -59.001s-14.5 -46.667 -14.5 -72s4.83301 -49.166 14.5 -71.499s22.834 -41.833 39.501 -58.5s36.167 -29.834 58.5 -39.501s46.166 -14.5 71.499 -14.5s49.166 4.83301 71.499 14.5s41.833 22.834 58.5 39.501s29.834 36.167 39.501 58.5
s14.5 46.166 14.5 71.499s-4.83301 49.166 -14.5 71.499s-22.834 42 -39.501 59s-36.167 30.333 -58.5 40s-46.166 14.5 -71.499 14.5z" />
    <glyph glyph-name="plusminus" unicode="&#xb1;" horiz-adv-x="930" 
d="M19 117v67h412v345h-412v68h412v411h66v-411h414v-68h-414v-345h414v-67h-892z" />
    <glyph glyph-name="twosuperior" unicode="&#xb2;" horiz-adv-x="508" 
d="M476 675l-50.9951 -126.001h-408v24c56 43.333 103.667 82.666 143 117.999s71.5 68.166 96.5 98.499s43.333 58.5 55 84.5s17.5 51.333 17.5 76c0 16.667 -3 32.334 -9 47.001s-14.333 27.334 -25 38.001s-23.334 19 -38.001 25s-31 9 -49 9c-32 0 -59.667 -8 -83 -24
s-41 -40.333 -53 -73h-37c7.33301 54 28.333 96.333 63 127s80.334 46 137.001 46c29.333 0 56.166 -4.5 80.499 -13.5s45.166 -20.667 62.499 -35s30.833 -30.833 40.5 -49.5s14.5 -38 14.5 -58c0 -23.333 -5.33301 -47.333 -16 -72s-27.334 -51.5 -50.001 -80.5
s-52 -60.5 -88 -94.5s-79.333 -71.667 -130 -113h154c25.333 0 45.666 0.666992 60.999 2s27.5 3.83301 36.5 7.5s16.167 8.33398 21.5 14.001s10.666 13.167 15.999 22.5h38z" />
    <glyph glyph-name="threesuperior" unicode="&#xb3;" horiz-adv-x="508" 
d="M45 1016c23.333 48 50.667 81.502 82 100.502s67.666 28.5 108.999 28.5c24.667 0 47.167 -3.66699 67.5 -11s37.5 -16.666 51.5 -27.999s24.833 -24.333 32.5 -39s11.5 -29.334 11.5 -44.001c0 -37.333 -28.667 -80 -86 -128c40 -14.667 70 -35.334 90 -62.001
s30 -56.334 30 -89.001c0 -28 -6 -54.5 -18 -79.5s-29.667 -47 -53 -66s-52 -34 -86 -45s-73.333 -16.5 -118 -16.5c-40.667 0 -71.167 5 -91.5 15s-30.5 22.333 -30.5 37c0 9.33301 4.66699 17.833 14 25.5s21 11.5 35 11.5c6.66699 0 16 -2.16699 28 -6.5l38.5 -14
c13.667 -5 27.334 -9.5 41.001 -13.5s25.167 -6 34.5 -6c15.333 0 29.833 3 43.5 9s25.667 14 36 24s18.5 21.667 24.5 35s9 27.333 9 42c0 23.333 -5.33301 43.5 -16 60.5s-24.167 31.167 -40.5 42.5s-34.333 19.833 -54 25.5s-38.5 8.5 -56.5 8.5h-25v23
c21.333 0 41.166 3.66699 59.499 11s34.333 17 48 29s24.334 25.667 32.001 41s11.5 31 11.5 47c0 28 -9.16699 50.333 -27.5 67s-42.833 25 -73.5 25c-46.667 0 -87 -24.333 -121 -73z" />
    <glyph glyph-name="acute" unicode="&#xb4;" horiz-adv-x="564" 
d="M467 1150l-244 -286h-28l87 286h185z" />
    <glyph glyph-name="mu" unicode="&#xb5;" horiz-adv-x="908" 
d="M602 137c-100 -106.667 -186.669 -160 -260.002 -160c-48 0 -92.333 18 -133 54v-43c0 -50 7.66699 -101 23 -153c18 -57.333 27 -95 27 -113c0 -25.333 -8 -46.333 -24 -63s-36 -25 -60 -25s-43.167 9.5 -57.5 28.5s-21.5 42.5 -21.5 70.5c0 20 7 55.667 21 107
c16.667 56 25 111.667 25 167v751h137v-491c0 -50 4 -86.333 12 -109c8.66699 -23.333 23.834 -42.333 45.501 -57s46.5 -22 74.5 -22c48.667 0 112.334 33.667 191.001 101v578h137v-575c0 -48.667 5 -82.167 15 -100.5s27 -27.5 51 -27.5c36.667 0 60.667 36.667 72 110
h30c-10 -125.333 -63 -188 -159 -188c-42 0 -76.333 13.667 -103 41s-41 67 -43 119z" />
    <glyph glyph-name="paragraph" unicode="&#xb6;" horiz-adv-x="767" 
d="M660 1076l-0.000976562 -1442h-60v1442h-154v-1442h-61v863c-105.333 5.33301 -184 19.333 -236 42c-26 12 -49 27.167 -69 45.5s-36.833 39.166 -50.5 62.499s-24 49 -31 77s-10.5 57 -10.5 87c0 50.667 9 95.334 27 134.001s43.333 71 76 97s71.834 45.667 117.501 59
s96.5 20 152.5 20h409v-45h-110z" />
    <glyph glyph-name="periodcentered" unicode="&#xb7;" horiz-adv-x="423" 
d="M212 653c12.667 0 24.667 -2.33301 36 -7s21.166 -11.167 29.499 -19.5s14.833 -18.166 19.5 -29.499s7 -23.333 7 -36s-2.33301 -24.667 -7 -36s-11.167 -21.166 -19.5 -29.499s-18.166 -14.833 -29.499 -19.5s-23.333 -7 -36 -7s-24.667 2.33301 -36 7
s-21.166 11.167 -29.499 19.5s-14.833 18.166 -19.5 29.499s-7 23.333 -7 36s2.33301 24.667 7 36s11.167 21.166 19.5 29.499s18.166 14.833 29.499 19.5s23.333 7 36 7z" />
    <glyph glyph-name="cedilla" unicode="&#xb8;" horiz-adv-x="564" 
d="M299 13h49.0029l-41 -65c34.667 -8.66699 60.5 -23.5 77.5 -44.5s25.5 -46.5 25.5 -76.5c0 -39.333 -16.667 -74 -50 -104c-32.667 -30.667 -75.334 -46 -128.001 -46c-20.667 0 -46.334 2 -77.001 6v36c14.667 -2 27.667 -3 39 -3c14 0 27.167 2.5 39.5 7.5
s23 11.667 32 20s16 17.833 21 28.5s7.5 22 7.5 34c0 16.667 -6.33301 31.167 -19 43.5s-28.334 18.5 -47.001 18.5l-21 -2z" />
    <glyph glyph-name="onesuperior" unicode="&#xb9;" horiz-adv-x="508" 
d="M112 1073l170 71.999h29v-490c0 -32.667 1.66699 -53 5 -61c3.33301 -5.33301 7.66602 -9.33301 12.999 -12c8.66699 -4 30.334 -6 65.001 -6v-27h-268v27c34 0 56 1.66699 66 5c6 2.66699 10.667 7.33398 14 14.001c2.66699 5.33301 4 25.333 4 60v309
c0 40.667 -1.33301 66.667 -4 78c-4 16 -12.333 24 -25 24c-10 0 -28.333 -5.66699 -55 -17z" />
    <glyph glyph-name="ordmasculine" unicode="&#xba;" horiz-adv-x="525" 
d="M268 1145c34 0 65.333 -6.33105 94 -18.998s53.667 -29.834 75 -51.501s38 -47.334 50 -77.001s18 -61.5 18 -95.5c0 -33.333 -6.66699 -65.166 -20 -95.499s-31.333 -57 -54 -80s-49 -41.333 -79 -55s-61.667 -20.5 -95 -20.5c-32 0 -62.167 6 -90.5 18
s-53 28.5 -74 49.5s-37.667 46.167 -50 75.5s-18.5 61 -18.5 95c0 38 6 72.667 18 104s28.667 58.166 50 80.499s47 39.833 77 52.5s63 19 99 19zM245 1109c-28.667 0 -53.168 -12.3379 -73.501 -37.0049s-30.5 -64 -30.5 -118c0 -32 3 -63.667 9 -95
s14.833 -59.166 26.5 -83.499s26.334 -44.166 44.001 -59.499s38.167 -23 61.5 -23c32 0 58.167 12.333 78.5 37s30.5 63.334 30.5 116.001c0 32.667 -3.5 64.834 -10.5 96.501s-16.833 59.834 -29.5 84.501s-28 44.5 -46 59.5s-38 22.5 -60 22.5z" />
    <glyph glyph-name="guillemotright" unicode="&#xbb;" 
d="M427 772h47l320 -390l-320 -389h-47l202 389zM53 772h48l326 -390l-326 -389h-48l201 389z" />
    <glyph glyph-name="onequarter" unicode="&#xbc;" horiz-adv-x="1270" 
d="M112 1073l170 71.999h29v-490c0 -32.667 1.66699 -53 5 -61c3.33301 -5.33301 7.66602 -9.33301 12.999 -12c8.66699 -4 30.334 -6 65.001 -6v-27h-268v27c34 0 56 1.66699 66 5c6 2.66699 10.667 7.33398 14 14.001c2.66699 5.33301 4 25.333 4 60v309
c0 40.667 -1.33301 66.667 -4 78c-4 16 -12.333 24 -25 24c-10 0 -28.333 -5.66699 -55 -17zM1069 1145l-774 -1190h-73l773 1190h74zM1241 186.999v-67h-89v-151h-97v151h-283v61l311 384h69v-378h89zM1055 186.999v262l-215 -262h215z" />
    <glyph glyph-name="onehalf" unicode="&#xbd;" horiz-adv-x="1270" 
d="M112 1073l170 71.999h29v-490c0 -32.667 1.66699 -53 5 -61c3.33301 -5.33301 7.66602 -9.33301 12.999 -12c8.66699 -4 30.334 -6 65.001 -6v-27h-268v27c34 0 56 1.66699 66 5c6 2.66699 10.667 7.33398 14 14.001c2.66699 5.33301 4 25.333 4 60v309
c0 40.667 -1.33301 66.667 -4 78c-4 16 -12.333 24 -25 24c-10 0 -28.333 -5.66699 -55 -17zM1049 1145l-774 -1190h-73l773 1190h74zM1235 94.999l-50.9951 -126.001h-408v24c56 43.333 103.667 82.666 143 117.999s71.5 68.166 96.5 98.499s43.333 58.5 55 84.5
s17.5 51.333 17.5 76c0 16.667 -3 32.334 -9 47.001s-14.333 27.334 -25 38.001s-23.334 19 -38.001 25s-31 9 -49 9c-32 0 -59.667 -8 -83 -24s-41 -40.333 -53 -73h-37c7.33301 54 28.333 96.333 63 127s80.334 46 137.001 46c29.333 0 56.166 -4.5 80.499 -13.5
s45.166 -20.667 62.499 -35s30.833 -30.833 40.5 -49.5s14.5 -38 14.5 -58c0 -23.333 -5.33301 -47.333 -16 -72s-27.334 -51.5 -50.001 -80.5s-52 -60.5 -88 -94.5s-79.333 -71.667 -130 -113h154c25.333 0 45.666 0.666992 60.999 2s27.5 3.83301 36.5 7.5
s16.167 8.33398 21.5 14.001s10.666 13.167 15.999 22.5h38z" />
    <glyph glyph-name="threequarters" unicode="&#xbe;" horiz-adv-x="1270" 
d="M45 1016c23.333 48 50.667 81.502 82 100.502s67.666 28.5 108.999 28.5c24.667 0 47.167 -3.66699 67.5 -11s37.5 -16.666 51.5 -27.999s24.833 -24.333 32.5 -39s11.5 -29.334 11.5 -44.001c0 -37.333 -28.667 -80 -86 -128c40 -14.667 70 -35.334 90 -62.001
s30 -56.334 30 -89.001c0 -28 -6 -54.5 -18 -79.5s-29.667 -47 -53 -66s-52 -34 -86 -45s-73.333 -16.5 -118 -16.5c-40.667 0 -71.167 5 -91.5 15s-30.5 22.333 -30.5 37c0 9.33301 4.66699 17.833 14 25.5s21 11.5 35 11.5c6.66699 0 16 -2.16699 28 -6.5l38.5 -14
c13.667 -5 27.334 -9.5 41.001 -13.5s25.167 -6 34.5 -6c15.333 0 29.833 3 43.5 9s25.667 14 36 24s18.5 21.667 24.5 35s9 27.333 9 42c0 23.333 -5.33301 43.5 -16 60.5s-24.167 31.167 -40.5 42.5s-34.333 19.833 -54 25.5s-38.5 8.5 -56.5 8.5h-25v23
c21.333 0 41.166 3.66699 59.499 11s34.333 17 48 29s24.334 25.667 32.001 41s11.5 31 11.5 47c0 28 -9.16699 50.333 -27.5 67s-42.833 25 -73.5 25c-46.667 0 -87 -24.333 -121 -73zM1058 1145l-774 -1190h-73l773 1190h74zM1241 187.002v-67h-89v-151h-97v151h-283v61
l311 384h69v-378h89zM1055 187.002v262l-215 -262h215z" />
    <glyph glyph-name="questiondown" unicode="&#xbf;" horiz-adv-x="752" 
d="M374 806c12.667 0 24.667 -2.33301 36 -7s21.166 -11.167 29.499 -19.5s14.833 -18 19.5 -29s7 -22.833 7 -35.5c0 -13.333 -2.33301 -25.5 -7 -36.5s-11.167 -20.667 -19.5 -29s-18.166 -14.833 -29.499 -19.5s-23.333 -7 -36 -7s-24.667 2.33301 -36 7
s-21.166 11.167 -29.499 19.5s-14.833 18 -19.5 29s-7 23.167 -7 36.5c0 12.667 2.33301 24.5 7 35.5s11.167 20.667 19.5 29s18.166 14.833 29.499 19.5s23.333 7 36 7zM397 518l-3.49805 -65.499c-1 -18.333 -2.83301 -35.5 -5.5 -51.5s-6.16699 -31.667 -10.5 -47
s-10.166 -32.333 -17.499 -51s-16.5 -40.167 -27.5 -64.5l-40.5 -87.5c-45.333 -96.667 -68 -176.334 -68 -239.001c0 -37.333 5 -70.166 15 -98.499s23.667 -52.166 41 -71.499s37.833 -33.833 61.5 -43.5s49.5 -14.5 77.5 -14.5c24 0 45.667 3.16699 65 9.5
s35.666 14.666 48.999 24.999s23.5 22 30.5 35s10.5 25.833 10.5 38.5c0 7.33301 -2.66699 17.333 -8 30l-17.5 40l-17.5 40c-5.33301 12.667 -8 23 -8 31c0 18.667 6.5 34.5 19.5 47.5s28.833 19.5 47.5 19.5c11.333 0 22.5 -3 33.5 -9s20.667 -14.5 29 -25.5
s15.166 -24.333 20.499 -40s8 -32.834 8 -51.501c0 -31.333 -6.83301 -61.333 -20.5 -90s-33.5 -54.167 -59.5 -76.5s-57.667 -40.166 -95 -53.499s-79.333 -20 -126 -20c-46 0 -87.833 7 -125.5 21s-69.834 33 -96.501 57s-47.334 51.833 -62.001 83.5s-22 65.5 -22 101.5
c0 26.667 2.83301 52.167 8.5 76.5s14.5 48.666 26.5 72.999s27.167 49.333 45.5 75s40.5 53.5 66.5 83.5c30.667 36 55.167 66.167 73.5 90.5s32.333 47.333 42 69s16.334 44.167 20.001 67.5s6.5 52 8.5 86h32z" />
    <glyph glyph-name="Agrave" unicode="&#xc0;" horiz-adv-x="1223" 
d="M775 375l-434.002 -0.00195312l-76 -177c-18.667 -42 -28 -74.333 -28 -97c0 -18 8 -33.333 24 -46c16 -13.333 51 -21.333 105 -24v-31h-353v31c47.333 8 77.666 18.667 90.999 32c28 26.667 59.333 80.334 94 161.001l394 923h29l390 -933
c31.333 -73.333 60 -122 86 -146c24.667 -21.333 60.334 -33.666 107.001 -36.999v-31h-442v31c22 0.666992 40.333 3 55 7s26.334 9 35.001 15s14.834 12.833 18.501 20.5s5.5 16.167 5.5 25.5c0 24.667 -11 63 -33 115zM751.998 436.998l-190 453l-196 -453h386z
M424.998 1487h184l88 -286h-29z" />
    <glyph glyph-name="Aacute" unicode="&#xc1;" horiz-adv-x="1223" 
d="M775 375l-434.002 -0.00195312l-76 -177c-18.667 -42 -28 -74.333 -28 -97c0 -18 8 -33.333 24 -46c16 -13.333 51 -21.333 105 -24v-31h-353v31c47.333 8 77.666 18.667 90.999 32c28 26.667 59.333 80.334 94 161.001l394 923h29l390 -933
c31.333 -73.333 60 -122 86 -146c24.667 -21.333 60.334 -33.666 107.001 -36.999v-31h-442v31c22 0.666992 40.333 3 55 7s26.334 9 35.001 15s14.834 12.833 18.501 20.5s5.5 16.167 5.5 25.5c0 24.667 -11 63 -33 115zM751.998 436.998l-190 453l-196 -453h386z
M792.998 1487l-244 -286h-28l87 286h185z" />
    <glyph glyph-name="Acircumflex" unicode="&#xc2;" horiz-adv-x="1223" 
d="M775 375l-434.002 -0.00195312l-76 -177c-18.667 -42 -28 -74.333 -28 -97c0 -18 8 -33.333 24 -46c16 -13.333 51 -21.333 105 -24v-31h-353v31c47.333 8 77.666 18.667 90.999 32c28 26.667 59.333 80.334 94 161.001l394 923h29l390 -933
c31.333 -73.333 60 -122 86 -146c24.667 -21.333 60.334 -33.666 107.001 -36.999v-31h-442v31c22 0.666992 40.333 3 55 7s26.334 9 35.001 15s14.834 12.833 18.501 20.5s5.5 16.167 5.5 25.5c0 24.667 -11 63 -33 115zM751.998 436.998l-190 453l-196 -453h386z
M531.998 1482h152l157 -273h-25l-226 176l-190 -176h-24z" />
    <glyph glyph-name="Atilde" unicode="&#xc3;" horiz-adv-x="1223" 
d="M775 375l-434.002 -0.00195312l-76 -177c-18.667 -42 -28 -74.333 -28 -97c0 -18 8 -33.333 24 -46c16 -13.333 51 -21.333 105 -24v-31h-353v31c47.333 8 77.666 18.667 90.999 32c28 26.667 59.333 80.334 94 161.001l394 923h29l390 -933
c31.333 -73.333 60 -122 86 -146c24.667 -21.333 60.334 -33.666 107.001 -36.999v-31h-442v31c22 0.666992 40.333 3 55 7s26.334 9 35.001 15s14.834 12.833 18.501 20.5s5.5 16.167 5.5 25.5c0 24.667 -11 63 -33 115zM751.998 436.998l-190 453l-196 -453h386z
M344.998 1211c1.33301 38 6.16699 70.498 14.5 97.498s19.333 49.167 33 66.5s29.667 30 48 38s38.5 12 60.5 12c13.333 0 25.666 -1 36.999 -3s23.333 -5.5 36 -10.5s26.334 -12.167 41.001 -21.5l53 -35c22 -15.333 41.5 -26.666 58.5 -33.999s31.167 -11 42.5 -11
c8.66699 0 17 1.66699 25 5s15.333 9.16602 22 17.499s12.667 20 18 35s10 34.167 14 57.5h26v-13c0 -35.333 -4.66699 -65.5 -14 -90.5s-21.333 -45.833 -36 -62.5s-31.5 -29.167 -50.5 -37.5s-37.833 -12.833 -56.5 -13.5c-44 0 -98.333 22 -163 66l-43.5 28.5
c-11 7 -20 12.167 -27 15.5s-13 5.33301 -18 6s-10.5 1 -16.5 1c-10 0 -18.5 -0.833008 -25.5 -2.5s-13.5 -6.16699 -19.5 -13.5s-11.5 -18.666 -16.5 -33.999s-10.167 -36.666 -15.5 -63.999h-27z" />
    <glyph glyph-name="Adieresis" unicode="&#xc4;" horiz-adv-x="1223" 
d="M775 375l-434.002 -0.00195312l-76 -177c-18.667 -42 -28 -74.333 -28 -97c0 -18 8 -33.333 24 -46c16 -13.333 51 -21.333 105 -24v-31h-353v31c47.333 8 77.666 18.667 90.999 32c28 26.667 59.333 80.334 94 161.001l394 923h29l390 -933
c31.333 -73.333 60 -122 86 -146c24.667 -21.333 60.334 -33.666 107.001 -36.999v-31h-442v31c22 0.666992 40.333 3 55 7s26.334 9 35.001 15s14.834 12.833 18.501 20.5s5.5 16.167 5.5 25.5c0 24.667 -11 63 -33 115zM751.998 436.998l-190 453l-196 -453h386z
M752.998 1413c12.667 0 24.498 -2.33496 35.498 -7.00195s20.5 -11.167 28.5 -19.5s14.333 -18 19 -29s7 -22.5 7 -34.5c0 -25.333 -8.66699 -46.666 -26 -63.999s-38.666 -26 -63.999 -26c-12 0 -23.5 2.33301 -34.5 7s-20.667 11 -29 19s-14.833 17.5 -19.5 28.5
s-7 22.833 -7 35.5c0 24.667 8.83301 45.834 26.5 63.501s38.834 26.5 63.501 26.5zM460.996 1413c12.667 0 24.5 -2.33398 35.5 -7.00098s20.667 -11.167 29 -19.5s14.833 -18 19.5 -29s7 -22.5 7 -34.5c0 -12.667 -2.33301 -24.5 -7 -35.5s-11.167 -20.5 -19.5 -28.5
s-18 -14.333 -29 -19s-22.5 -7 -34.5 -7s-23.5 2.33301 -34.5 7s-20.667 11 -29 19s-14.833 17.5 -19.5 28.5s-7 22.833 -7 35.5c0 24.667 8.66699 45.834 26 63.501s38.333 26.5 63 26.5z" />
    <glyph glyph-name="Aring" unicode="&#xc5;" horiz-adv-x="1223" 
d="M775 375l-434.002 -0.00195312l-76 -177c-18.667 -42 -28 -74.333 -28 -97c0 -18 8 -33.333 24 -46c16 -13.333 51 -21.333 105 -24v-31h-353v31c47.333 8 77.666 18.667 90.999 32c28 26.667 59.333 80.334 94 161.001l394 923h29l390 -933
c31.333 -73.333 60 -122 86 -146c24.667 -21.333 60.334 -33.666 107.001 -36.999v-31h-442v31c22 0.666992 40.333 3 55 7s26.334 9 35.001 15s14.834 12.833 18.501 20.5s5.5 16.167 5.5 25.5c0 24.667 -11 63 -33 115zM751.998 436.998l-190 453l-196 -453h386z
M604.998 1407c21.333 0 41.668 -4.16699 61.001 -12.5s36.166 -19.833 50.499 -34.5s25.833 -31.5 34.5 -50.5s13 -39.167 13 -60.5c0 -22 -4.16699 -42.667 -12.5 -62s-19.833 -36.166 -34.5 -50.499s-31.5 -25.666 -50.5 -33.999s-39.5 -12.5 -61.5 -12.5
s-42.5 4.16699 -61.5 12.5s-35.667 19.666 -50 33.999s-25.666 31.166 -33.999 50.499s-12.5 40 -12.5 62c0 21.333 4.16699 41.5 12.5 60.5s19.666 35.833 33.999 50.5s31 26.167 50 34.5s39.5 12.5 61.5 12.5zM605 1350c-14 0 -27.167 -2.66699 -39.5 -8
s-23 -12.5 -32 -21.5s-16.167 -19.667 -21.5 -32s-8 -25.5 -8 -39.5s2.66699 -27.167 8 -39.5s12.5 -23 21.5 -32s19.667 -16.167 32 -21.5s25.5 -8 39.5 -8s27.167 2.66699 39.5 8s23 12.5 32 21.5s16.167 19.667 21.5 32s8 25.5 8 39.5s-2.66699 27.167 -8 39.5
s-12.5 23 -21.5 32s-19.667 16.167 -32 21.5s-25.5 8 -39.5 8z" />
    <glyph glyph-name="AE" unicode="&#xc6;" horiz-adv-x="1506" 
d="M849 1060l0.000976562 -443.004h213c32 0 59 2.66699 81 8s39.833 14.333 53.5 27s24 29.5 31 50.5s11.5 46.833 13.5 77.5h30v-390h-30c-3.33301 28 -7.16602 50.833 -11.499 68.5s-9.5 32 -15.5 43s-13.5 19.833 -22.5 26.5s-20.167 13 -33.5 19
c-7.33301 3.33301 -18.833 5.83301 -34.5 7.5s-36.167 2.5 -61.5 2.5h-213v-372c0 -50 2 -80 6 -90c4 -9.33301 12 -17.333 24 -24s33.667 -10 65 -10h151c30.667 0 57.167 1 79.5 3s42.166 5.83301 59.499 11.5s33.5 13.167 48.5 22.5s30.167 21.333 45.5 36
c20 19.333 38.5 41 55.5 65s31.5 51.667 43.5 83h32l-89 -282h-842v31h42c22 0 41.667 3.33301 59 10s31.333 16.667 42 30c13.333 17.333 20 59.666 20 126.999v236h-328l-102 -193c-38.667 -73.333 -58 -121 -58 -143c0 -7.33301 1.66699 -14.666 5 -21.999
s9.66602 -14.166 18.999 -20.499s22.333 -11.666 39 -15.999s38.667 -7.16602 66 -8.49902v-31h-352v31c18 0 34.5 2.83301 49.5 8.5s29.833 15.667 44.5 30s30.167 34.166 46.5 59.499s35.166 58 56.499 98l341 637c42 78.667 63 132 63 160
c0 9.33301 -2.16699 17.833 -6.5 25.5s-12 14.334 -23 20.001s-25.667 10.334 -44 14.001s-41.5 6.16699 -69.5 7.5v30h919v-246h-16c-6 48.667 -16.667 87.5 -32 116.5s-39.666 49.167 -72.999 60.5c-17.333 5.33301 -55 8 -113 8h-274zM691.001 1060l-296 -565h296v565z
" />
    <glyph glyph-name="Ccedilla" unicode="&#xc7;" horiz-adv-x="1130" 
d="M1020 1147l25.0039 -381.001h-25c-18 58 -39.5 107.5 -64.5 148.5s-53.5 74.333 -85.5 100s-67.333 44.334 -106 56.001s-80.667 17.5 -126 17.5c-55.333 0 -106.666 -11.167 -153.999 -33.5s-88.333 -56 -123 -101s-61.834 -101.833 -81.501 -170.5
s-29.5 -149 -29.5 -241c0 -78.667 9.66699 -148.667 29 -210s47.166 -113.166 83.499 -155.499s80.333 -74.5 132 -96.5s109.834 -33 174.501 -33c36.667 0 70.667 3.33301 102 10s61.666 18.834 90.999 36.501s58.666 41.5 87.999 71.5s61 68.333 95 115l26 -17
c-56 -100 -121.5 -173.167 -196.5 -219.5s-164.167 -69.5 -267.5 -69.5c-79.333 0 -152.333 14 -219 42s-124.334 67.333 -173.001 118s-86.5 110.667 -113.5 180s-40.5 145.666 -40.5 228.999c0 84.667 14.5 163.667 43.5 237s69 137.166 120 191.499
s111.333 97.166 181 128.499s145.167 47 226.5 47c40 0 80.167 -4.83301 120.5 -14.5s80.166 -24.5 119.499 -44.5c11.333 -6 21 -10.667 29 -14s14.667 -5 20 -5c18 0 32.833 7.33301 44.5 22s20.167 33.334 25.5 56.001h29zM578.004 12.999h49.0029l-41 -65
c34.667 -8.66699 60.5 -23.5 77.5 -44.5s25.5 -46.5 25.5 -76.5c0 -39.333 -16.667 -74 -50 -104c-32.667 -30.667 -75.334 -46 -128.001 -46c-20.667 0 -46.334 2 -77.001 6v36c14.667 -2 27.667 -3 39 -3c14 0 27.167 2.5 39.5 7.5s23 11.667 32 20s16 17.833 21 28.5
s7.5 22 7.5 34c0 16.667 -6.33301 31.167 -19 43.5s-28.334 18.5 -47.001 18.5l-21 -2z" />
    <glyph glyph-name="Egrave" unicode="&#xc8;" horiz-adv-x="1035" 
d="M354 1060l-0.000976562 -442.996h246c36 0 65.167 3.16699 87.5 9.5s40 16.166 53 29.499s22 30.166 27 50.499s8.16699 44.833 9.5 73.5h30v-390h-30c-4.66699 31.333 -9.66699 57.666 -15 78.999s-13.833 38.5 -25.5 51.5s-28.167 22.333 -49.5 28s-50.333 8.5 -87 8.5
h-246v-370c0 -50 2 -80.333 6 -91c2 -5.33301 4.83301 -10.166 8.5 -14.499s8.66699 -8 15 -11s14.5 -5.33301 24.5 -7s23 -2.5 39 -2.5h190c32 0 59 0.833008 81 2.5s41 5 57 10s30.333 11.667 43 20s26 19.5 40 33.5c33.333 32 68.333 83.333 105 154h33l-97 -281h-864v31
h39c10.667 0 21.834 1.16699 33.501 3.5s22.5 5.83301 32.5 10.5s19 10.667 27 18s14 16 18 26c6.66699 17.333 10 53.666 10 108.999v728c0 35.333 -1.66699 64.166 -5 86.499s-8.66602 37.5 -15.999 45.5c-20 22 -53.333 33 -100 33h-39v30h864v-245h-20
c-8 40.667 -16.5 73.167 -25.5 97.5s-21.333 43 -37 56s-35.834 21.333 -60.501 25s-56 5.5 -94 5.5h-308zM335.999 1487h184l88 -286h-29z" />
    <glyph glyph-name="Eacute" unicode="&#xc9;" horiz-adv-x="1035" 
d="M354 1060l-0.000976562 -442.996h246c36 0 65.167 3.16699 87.5 9.5s40 16.166 53 29.499s22 30.166 27 50.499s8.16699 44.833 9.5 73.5h30v-390h-30c-4.66699 31.333 -9.66699 57.666 -15 78.999s-13.833 38.5 -25.5 51.5s-28.167 22.333 -49.5 28s-50.333 8.5 -87 8.5
h-246v-370c0 -50 2 -80.333 6 -91c2 -5.33301 4.83301 -10.166 8.5 -14.499s8.66699 -8 15 -11s14.5 -5.33301 24.5 -7s23 -2.5 39 -2.5h190c32 0 59 0.833008 81 2.5s41 5 57 10s30.333 11.667 43 20s26 19.5 40 33.5c33.333 32 68.333 83.333 105 154h33l-97 -281h-864v31
h39c10.667 0 21.834 1.16699 33.501 3.5s22.5 5.83301 32.5 10.5s19 10.667 27 18s14 16 18 26c6.66699 17.333 10 53.666 10 108.999v728c0 35.333 -1.66699 64.166 -5 86.499s-8.66602 37.5 -15.999 45.5c-20 22 -53.333 33 -100 33h-39v30h864v-245h-20
c-8 40.667 -16.5 73.167 -25.5 97.5s-21.333 43 -37 56s-35.834 21.333 -60.501 25s-56 5.5 -94 5.5h-308zM704.999 1487l-244 -286h-28l87 286h185z" />
    <glyph glyph-name="Ecircumflex" unicode="&#xca;" horiz-adv-x="1035" 
d="M354 1060l-0.000976562 -442.996h246c36 0 65.167 3.16699 87.5 9.5s40 16.166 53 29.499s22 30.166 27 50.499s8.16699 44.833 9.5 73.5h30v-390h-30c-4.66699 31.333 -9.66699 57.666 -15 78.999s-13.833 38.5 -25.5 51.5s-28.167 22.333 -49.5 28s-50.333 8.5 -87 8.5
h-246v-370c0 -50 2 -80.333 6 -91c2 -5.33301 4.83301 -10.166 8.5 -14.499s8.66699 -8 15 -11s14.5 -5.33301 24.5 -7s23 -2.5 39 -2.5h190c32 0 59 0.833008 81 2.5s41 5 57 10s30.333 11.667 43 20s26 19.5 40 33.5c33.333 32 68.333 83.333 105 154h33l-97 -281h-864v31
h39c10.667 0 21.834 1.16699 33.501 3.5s22.5 5.83301 32.5 10.5s19 10.667 27 18s14 16 18 26c6.66699 17.333 10 53.666 10 108.999v728c0 35.333 -1.66699 64.166 -5 86.499s-8.66602 37.5 -15.999 45.5c-20 22 -53.333 33 -100 33h-39v30h864v-245h-20
c-8 40.667 -16.5 73.167 -25.5 97.5s-21.333 43 -37 56s-35.834 21.333 -60.501 25s-56 5.5 -94 5.5h-308zM443.999 1482h152l157 -273h-25l-226 176l-190 -176h-24z" />
    <glyph glyph-name="Edieresis" unicode="&#xcb;" horiz-adv-x="1035" 
d="M354 1060l-0.000976562 -442.996h246c36 0 65.167 3.16699 87.5 9.5s40 16.166 53 29.499s22 30.166 27 50.499s8.16699 44.833 9.5 73.5h30v-390h-30c-4.66699 31.333 -9.66699 57.666 -15 78.999s-13.833 38.5 -25.5 51.5s-28.167 22.333 -49.5 28s-50.333 8.5 -87 8.5
h-246v-370c0 -50 2 -80.333 6 -91c2 -5.33301 4.83301 -10.166 8.5 -14.499s8.66699 -8 15 -11s14.5 -5.33301 24.5 -7s23 -2.5 39 -2.5h190c32 0 59 0.833008 81 2.5s41 5 57 10s30.333 11.667 43 20s26 19.5 40 33.5c33.333 32 68.333 83.333 105 154h33l-97 -281h-864v31
h39c10.667 0 21.834 1.16699 33.501 3.5s22.5 5.83301 32.5 10.5s19 10.667 27 18s14 16 18 26c6.66699 17.333 10 53.666 10 108.999v728c0 35.333 -1.66699 64.166 -5 86.499s-8.66602 37.5 -15.999 45.5c-20 22 -53.333 33 -100 33h-39v30h864v-245h-20
c-8 40.667 -16.5 73.167 -25.5 97.5s-21.333 43 -37 56s-35.834 21.333 -60.501 25s-56 5.5 -94 5.5h-308zM664.999 1413c12.667 0 24.498 -2.33496 35.498 -7.00195s20.5 -11.167 28.5 -19.5s14.333 -18 19 -29s7 -22.5 7 -34.5c0 -25.333 -8.66699 -46.666 -26 -63.999
s-38.666 -26 -63.999 -26c-12 0 -23.5 2.33301 -34.5 7s-20.667 11 -29 19s-14.833 17.5 -19.5 28.5s-7 22.833 -7 35.5c0 24.667 8.83301 45.834 26.5 63.501s38.834 26.5 63.501 26.5zM372.997 1413c12.667 0 24.5 -2.33398 35.5 -7.00098s20.667 -11.167 29 -19.5
s14.833 -18 19.5 -29s7 -22.5 7 -34.5c0 -12.667 -2.33301 -24.5 -7 -35.5s-11.167 -20.5 -19.5 -28.5s-18 -14.333 -29 -19s-22.5 -7 -34.5 -7s-23.5 2.33301 -34.5 7s-20.667 11 -29 19s-14.833 17.5 -19.5 28.5s-7 22.833 -7 35.5c0 24.667 8.66699 45.834 26 63.501
s38.333 26.5 63 26.5z" />
    <glyph glyph-name="Igrave" unicode="&#xcc;" horiz-adv-x="564" 
d="M523 31l-0.00195312 -31.002h-481v31h40c46.667 0 80.334 13.333 101.001 40c13.333 18.667 20 61 20 127v725c0 26 -0.5 47.333 -1.5 64s-3.16699 30.334 -6.5 41.001s-8 19.167 -14 25.5s-13.667 12.166 -23 17.499c-24.667 13.333 -50 20 -76 20h-40v30h481v-30h-41
c-45.333 0 -78.666 -13.667 -99.999 -41c-14 -17.333 -21 -59.666 -21 -126.999v-725c0 -26.667 0.5 -48.334 1.5 -65.001s3.16699 -30.167 6.5 -40.5s8 -18.666 14 -24.999s14 -12.166 24 -17.499c22.667 -12.667 47.667 -19 75 -19h41zM98.998 1487h184l88 -286h-29z" />
    <glyph glyph-name="Iacute" unicode="&#xcd;" horiz-adv-x="564" 
d="M523 31l-0.00195312 -31.002h-481v31h40c46.667 0 80.334 13.333 101.001 40c13.333 18.667 20 61 20 127v725c0 26 -0.5 47.333 -1.5 64s-3.16699 30.334 -6.5 41.001s-8 19.167 -14 25.5s-13.667 12.166 -23 17.499c-24.667 13.333 -50 20 -76 20h-40v30h481v-30h-41
c-45.333 0 -78.666 -13.667 -99.999 -41c-14 -17.333 -21 -59.666 -21 -126.999v-725c0 -26.667 0.5 -48.334 1.5 -65.001s3.16699 -30.167 6.5 -40.5s8 -18.666 14 -24.999s14 -12.166 24 -17.499c22.667 -12.667 47.667 -19 75 -19h41zM466.998 1487l-244 -286h-28l87 286
h185z" />
    <glyph glyph-name="Icircumflex" unicode="&#xce;" horiz-adv-x="564" 
d="M523 31l-0.00195312 -31.002h-481v31h40c46.667 0 80.334 13.333 101.001 40c13.333 18.667 20 61 20 127v725c0 26 -0.5 47.333 -1.5 64s-3.16699 30.334 -6.5 41.001s-8 19.167 -14 25.5s-13.667 12.166 -23 17.499c-24.667 13.333 -50 20 -76 20h-40v30h481v-30h-41
c-45.333 0 -78.666 -13.667 -99.999 -41c-14 -17.333 -21 -59.666 -21 -126.999v-725c0 -26.667 0.5 -48.334 1.5 -65.001s3.16699 -30.167 6.5 -40.5s8 -18.666 14 -24.999s14 -12.166 24 -17.499c22.667 -12.667 47.667 -19 75 -19h41zM205.998 1482h152l157 -273h-25
l-226 176l-190 -176h-24z" />
    <glyph glyph-name="Idieresis" unicode="&#xcf;" horiz-adv-x="564" 
d="M523 31l-0.00195312 -31.002h-481v31h40c46.667 0 80.334 13.333 101.001 40c13.333 18.667 20 61 20 127v725c0 26 -0.5 47.333 -1.5 64s-3.16699 30.334 -6.5 41.001s-8 19.167 -14 25.5s-13.667 12.166 -23 17.499c-24.667 13.333 -50 20 -76 20h-40v30h481v-30h-41
c-45.333 0 -78.666 -13.667 -99.999 -41c-14 -17.333 -21 -59.666 -21 -126.999v-725c0 -26.667 0.5 -48.334 1.5 -65.001s3.16699 -30.167 6.5 -40.5s8 -18.666 14 -24.999s14 -12.166 24 -17.499c22.667 -12.667 47.667 -19 75 -19h41zM427.998 1413
c12.667 0 24.498 -2.33496 35.498 -7.00195s20.5 -11.167 28.5 -19.5s14.333 -18 19 -29s7 -22.5 7 -34.5c0 -25.333 -8.66699 -46.666 -26 -63.999s-38.666 -26 -63.999 -26c-12 0 -23.5 2.33301 -34.5 7s-20.667 11 -29 19s-14.833 17.5 -19.5 28.5s-7 22.833 -7 35.5
c0 24.667 8.83301 45.834 26.5 63.501s38.834 26.5 63.501 26.5zM135.996 1413c12.667 0 24.5 -2.33398 35.5 -7.00098s20.667 -11.167 29 -19.5s14.833 -18 19.5 -29s7 -22.5 7 -34.5c0 -12.667 -2.33301 -24.5 -7 -35.5s-11.167 -20.5 -19.5 -28.5s-18 -14.333 -29 -19
s-22.5 -7 -34.5 -7s-23.5 2.33301 -34.5 7s-20.667 11 -29 19s-14.833 17.5 -19.5 28.5s-7 22.833 -7 35.5c0 24.667 8.66699 45.834 26 63.501s38.333 26.5 63 26.5z" />
    <glyph glyph-name="Eth" unicode="&#xd0;" horiz-adv-x="1223" 
d="M29 0l0.000976562 31h42c47.333 0 81.333 15.333 102 46c11.333 17.333 17 57.666 17 120.999v363h-161v61h161v301c0 70 -7.66699 113.667 -23 131c-20.667 24.667 -52.667 37 -96 37h-42v30h456c88 0 163.167 -4.66699 225.5 -14s116.166 -24 161.499 -44
s84 -45.667 116 -77s61.667 -69 89 -113c54 -87.333 81 -189 81 -305c0 -157.333 -50.667 -291.666 -152 -402.999c-101.333 -110 -260.333 -165 -477 -165h-500zM350.001 83c71.333 -15.333 130 -23 176 -23c63.333 0 122.166 11.667 176.499 35s101.333 56.666 141 99.999
s70.667 95.833 93 157.5s33.5 130.834 33.5 207.501s-11.167 146 -33.5 208s-53.5 114.5 -93.5 157.5s-87.667 76.167 -143 99.5s-115.666 35 -180.999 35c-50 0 -106.333 -8 -169 -24v-414h325v-61h-325v-478z" />
    <glyph glyph-name="Ntilde" unicode="&#xd1;" horiz-adv-x="1223" 
d="M-22 1121h304l686 -841v647c0 68 -8 111 -24 129c-21.333 23.333 -53.333 35 -96 35h-39v30h390v-30h-40c-20 0 -37.333 -1.66699 -52 -5s-27 -10.666 -37 -21.999s-17.5 -27.833 -22.5 -49.5s-7.5 -50.834 -7.5 -87.501v-945h-29l-740 903v-691
c0 -68.667 7.66699 -111.667 23 -129c20.667 -22.667 52.667 -34 96 -34h40v-31h-390v31h39c47.333 0 81 14.333 101 43c12 16.667 18 56.667 18 120v780c-16.667 20 -30.667 35.833 -42 47.5s-22 21.167 -32 28.5s-20.667 13.333 -32 18s-25.333 9.66699 -42 15
c-17.333 5.33301 -41.333 8 -72 8v30zM344 1211c1.33301 38 6.16699 70.498 14.5 97.498s19.333 49.167 33 66.5s29.667 30 48 38s38.5 12 60.5 12c13.333 0 25.666 -1 36.999 -3s23.333 -5.5 36 -10.5s26.334 -12.167 41.001 -21.5l53 -35
c22 -15.333 41.5 -26.666 58.5 -33.999s31.167 -11 42.5 -11c8.66699 0 17 1.66699 25 5s15.333 9.16602 22 17.499s12.667 20 18 35s10 34.167 14 57.5h26v-13c0 -35.333 -4.66699 -65.5 -14 -90.5s-21.333 -45.833 -36 -62.5s-31.5 -29.167 -50.5 -37.5
s-37.833 -12.833 -56.5 -13.5c-44 0 -98.333 22 -163 66l-43.5 28.5c-11 7 -20 12.167 -27 15.5s-13 5.33301 -18 6s-10.5 1 -16.5 1c-10 0 -18.5 -0.833008 -25.5 -2.5s-13.5 -6.16699 -19.5 -13.5s-11.5 -18.666 -16.5 -33.999s-10.167 -36.666 -15.5 -63.999h-27z" />
    <glyph glyph-name="Ograve" unicode="&#xd2;" horiz-adv-x="1223" 
d="M619 1147c80.667 0 154.167 -16.3311 220.5 -48.998s123 -76 170 -130s83.5 -115.833 109.5 -185.5s39 -141.5 39 -215.5c0 -84 -14.5 -162.167 -43.5 -234.5s-68.5 -135 -118.5 -188s-108.5 -94.667 -175.5 -125s-138.5 -45.5 -214.5 -45.5
c-76.667 0 -148.167 14.5 -214.5 43.5s-124 69.667 -173 122s-87.667 114.666 -116 186.999s-42.5 151.833 -42.5 238.5c0 80.667 14 156.5 42 227.5s67 132.667 117 185s109.167 93.666 177.5 123.999s142.5 45.5 222.5 45.5zM604 1087c-56.667 0 -107 -12.167 -151 -36.5
s-81.167 -59 -111.5 -104s-53.333 -99.5 -69 -163.5s-23.5 -135.667 -23.5 -215s7.66699 -151.666 23 -216.999s38 -121.666 68 -168.999s67.167 -84 111.5 -110s95.5 -39 153.5 -39c52 0 100 10 144 30s82.333 50.833 115 92.5s58.167 94.667 76.5 159
s27.5 141.166 27.5 230.499c0 86 -7.66699 162.5 -23 229.5s-38.333 123.667 -69 170s-68.667 81.666 -114 105.999s-98 36.5 -158 36.5zM423 1487h184l88 -286h-29z" />
    <glyph glyph-name="Oacute" unicode="&#xd3;" horiz-adv-x="1223" 
d="M619 1147c80.667 0 154.167 -16.3311 220.5 -48.998s123 -76 170 -130s83.5 -115.833 109.5 -185.5s39 -141.5 39 -215.5c0 -84 -14.5 -162.167 -43.5 -234.5s-68.5 -135 -118.5 -188s-108.5 -94.667 -175.5 -125s-138.5 -45.5 -214.5 -45.5
c-76.667 0 -148.167 14.5 -214.5 43.5s-124 69.667 -173 122s-87.667 114.666 -116 186.999s-42.5 151.833 -42.5 238.5c0 80.667 14 156.5 42 227.5s67 132.667 117 185s109.167 93.666 177.5 123.999s142.5 45.5 222.5 45.5zM604 1087c-56.667 0 -107 -12.167 -151 -36.5
s-81.167 -59 -111.5 -104s-53.333 -99.5 -69 -163.5s-23.5 -135.667 -23.5 -215s7.66699 -151.666 23 -216.999s38 -121.666 68 -168.999s67.167 -84 111.5 -110s95.5 -39 153.5 -39c52 0 100 10 144 30s82.333 50.833 115 92.5s58.167 94.667 76.5 159
s27.5 141.166 27.5 230.499c0 86 -7.66699 162.5 -23 229.5s-38.333 123.667 -69 170s-68.667 81.666 -114 105.999s-98 36.5 -158 36.5zM791 1487l-244 -286h-28l87 286h185z" />
    <glyph glyph-name="Ocircumflex" unicode="&#xd4;" horiz-adv-x="1223" 
d="M619 1147c80.667 0 154.167 -16.3311 220.5 -48.998s123 -76 170 -130s83.5 -115.833 109.5 -185.5s39 -141.5 39 -215.5c0 -84 -14.5 -162.167 -43.5 -234.5s-68.5 -135 -118.5 -188s-108.5 -94.667 -175.5 -125s-138.5 -45.5 -214.5 -45.5
c-76.667 0 -148.167 14.5 -214.5 43.5s-124 69.667 -173 122s-87.667 114.666 -116 186.999s-42.5 151.833 -42.5 238.5c0 80.667 14 156.5 42 227.5s67 132.667 117 185s109.167 93.666 177.5 123.999s142.5 45.5 222.5 45.5zM604 1087c-56.667 0 -107 -12.167 -151 -36.5
s-81.167 -59 -111.5 -104s-53.333 -99.5 -69 -163.5s-23.5 -135.667 -23.5 -215s7.66699 -151.666 23 -216.999s38 -121.666 68 -168.999s67.167 -84 111.5 -110s95.5 -39 153.5 -39c52 0 100 10 144 30s82.333 50.833 115 92.5s58.167 94.667 76.5 159
s27.5 141.166 27.5 230.499c0 86 -7.66699 162.5 -23 229.5s-38.333 123.667 -69 170s-68.667 81.666 -114 105.999s-98 36.5 -158 36.5zM530 1482h152l157 -273h-25l-226 176l-190 -176h-24z" />
    <glyph glyph-name="Otilde" unicode="&#xd5;" horiz-adv-x="1223" 
d="M619 1147c80.667 0 154.167 -16.3311 220.5 -48.998s123 -76 170 -130s83.5 -115.833 109.5 -185.5s39 -141.5 39 -215.5c0 -84 -14.5 -162.167 -43.5 -234.5s-68.5 -135 -118.5 -188s-108.5 -94.667 -175.5 -125s-138.5 -45.5 -214.5 -45.5
c-76.667 0 -148.167 14.5 -214.5 43.5s-124 69.667 -173 122s-87.667 114.666 -116 186.999s-42.5 151.833 -42.5 238.5c0 80.667 14 156.5 42 227.5s67 132.667 117 185s109.167 93.666 177.5 123.999s142.5 45.5 222.5 45.5zM604 1087c-56.667 0 -107 -12.167 -151 -36.5
s-81.167 -59 -111.5 -104s-53.333 -99.5 -69 -163.5s-23.5 -135.667 -23.5 -215s7.66699 -151.666 23 -216.999s38 -121.666 68 -168.999s67.167 -84 111.5 -110s95.5 -39 153.5 -39c52 0 100 10 144 30s82.333 50.833 115 92.5s58.167 94.667 76.5 159
s27.5 141.166 27.5 230.499c0 86 -7.66699 162.5 -23 229.5s-38.333 123.667 -69 170s-68.667 81.666 -114 105.999s-98 36.5 -158 36.5zM342 1211c1.33301 38 6.16699 70.498 14.5 97.498s19.333 49.167 33 66.5s29.667 30 48 38s38.5 12 60.5 12
c13.333 0 25.666 -1 36.999 -3s23.333 -5.5 36 -10.5s26.334 -12.167 41.001 -21.5l53 -35c22 -15.333 41.5 -26.666 58.5 -33.999s31.167 -11 42.5 -11c8.66699 0 17 1.66699 25 5s15.333 9.16602 22 17.499s12.667 20 18 35s10 34.167 14 57.5h26v-13
c0 -35.333 -4.66699 -65.5 -14 -90.5s-21.333 -45.833 -36 -62.5s-31.5 -29.167 -50.5 -37.5s-37.833 -12.833 -56.5 -13.5c-44 0 -98.333 22 -163 66l-43.5 28.5c-11 7 -20 12.167 -27 15.5s-13 5.33301 -18 6s-10.5 1 -16.5 1c-10 0 -18.5 -0.833008 -25.5 -2.5
s-13.5 -6.16699 -19.5 -13.5s-11.5 -18.666 -16.5 -33.999s-10.167 -36.666 -15.5 -63.999h-27z" />
    <glyph glyph-name="Odieresis" unicode="&#xd6;" horiz-adv-x="1223" 
d="M619 1147c80.667 0 154.167 -16.3311 220.5 -48.998s123 -76 170 -130s83.5 -115.833 109.5 -185.5s39 -141.5 39 -215.5c0 -84 -14.5 -162.167 -43.5 -234.5s-68.5 -135 -118.5 -188s-108.5 -94.667 -175.5 -125s-138.5 -45.5 -214.5 -45.5
c-76.667 0 -148.167 14.5 -214.5 43.5s-124 69.667 -173 122s-87.667 114.666 -116 186.999s-42.5 151.833 -42.5 238.5c0 80.667 14 156.5 42 227.5s67 132.667 117 185s109.167 93.666 177.5 123.999s142.5 45.5 222.5 45.5zM604 1087c-56.667 0 -107 -12.167 -151 -36.5
s-81.167 -59 -111.5 -104s-53.333 -99.5 -69 -163.5s-23.5 -135.667 -23.5 -215s7.66699 -151.666 23 -216.999s38 -121.666 68 -168.999s67.167 -84 111.5 -110s95.5 -39 153.5 -39c52 0 100 10 144 30s82.333 50.833 115 92.5s58.167 94.667 76.5 159
s27.5 141.166 27.5 230.499c0 86 -7.66699 162.5 -23 229.5s-38.333 123.667 -69 170s-68.667 81.666 -114 105.999s-98 36.5 -158 36.5zM751 1413c12.667 0 24.498 -2.33496 35.498 -7.00195s20.5 -11.167 28.5 -19.5s14.333 -18 19 -29s7 -22.5 7 -34.5
c0 -25.333 -8.66699 -46.666 -26 -63.999s-38.666 -26 -63.999 -26c-12 0 -23.5 2.33301 -34.5 7s-20.667 11 -29 19s-14.833 17.5 -19.5 28.5s-7 22.833 -7 35.5c0 24.667 8.83301 45.834 26.5 63.501s38.834 26.5 63.501 26.5zM458.998 1413
c12.667 0 24.5 -2.33398 35.5 -7.00098s20.667 -11.167 29 -19.5s14.833 -18 19.5 -29s7 -22.5 7 -34.5c0 -12.667 -2.33301 -24.5 -7 -35.5s-11.167 -20.5 -19.5 -28.5s-18 -14.333 -29 -19s-22.5 -7 -34.5 -7s-23.5 2.33301 -34.5 7s-20.667 11 -29 19
s-14.833 17.5 -19.5 28.5s-7 22.833 -7 35.5c0 24.667 8.66699 45.834 26 63.501s38.333 26.5 63 26.5z" />
    <glyph glyph-name="multiply" unicode="&#xd7;" horiz-adv-x="955" 
d="M136 271l292 292l-291 291l48 48l291 -291l291 291l47 -47l-291 -291l292 -293l-47 -48l-292 293l-292 -292z" />
    <glyph glyph-name="Oslash" unicode="&#xd8;" horiz-adv-x="1223" 
d="M1057 1158l48 -36.999l-110 -138c28.667 -31.333 53.334 -62.5 74.001 -93.5s37.667 -63 51 -96s23.166 -67.833 29.499 -104.5s9.5 -77 9.5 -121c0 -189.333 -67.333 -342.333 -202 -459c-104 -90 -218 -135 -342 -135c-28 0 -57.333 2.66699 -88 8
s-61 13.166 -91 23.499s-59 22.833 -87 37.5s-53.333 31.334 -76 50.001l-107 -132l-49 39l110 136c-111.333 114.667 -167 260 -167 436c0 161.333 54 297.666 162 408.999c108.667 110.667 239 166 391 166c124.667 0 236.667 -41 336 -123zM879 939.001
c-64 99.333 -154.001 149 -270.001 149c-65.333 0 -120.666 -13.667 -165.999 -41s-82.333 -64.333 -111 -111s-49.5 -101 -62.5 -163s-19.5 -127.667 -19.5 -197c0 -128 20 -240.333 60 -337zM343.999 179.001c35.333 -53.333 74.6689 -90.832 118.002 -112.499
s90.666 -32.5 141.999 -32.5c28.667 0 54.667 2.16699 78 6.5s44.666 10.833 63.999 19.5s37.333 19.667 54 33s33 29 49 47c32.667 36.667 60.667 88.167 84 154.5s35 149.166 35 248.499c0 30.667 -0.833008 59.167 -2.5 85.5s-4.5 52.5 -8.5 78.5
s-9.66699 52.833 -17 80.5s-17 58.167 -29 91.5z" />
    <glyph glyph-name="Ugrave" unicode="&#xd9;" horiz-adv-x="1223" 
d="M808 1091v29.999h397v-30h-42c-44 0 -78 -18.667 -102 -56c-11.333 -17.333 -17 -57 -17 -119v-455c0 -47.333 -1.66699 -89.5 -5 -126.5s-9.16602 -70.5 -17.499 -100.5s-19.333 -56.833 -33 -80.5s-30.834 -45.834 -51.501 -66.501
c-23.333 -23.333 -48 -42.333 -74 -57s-52.833 -26.167 -80.5 -34.5s-55.834 -14 -84.501 -17s-57.334 -4.5 -86.001 -4.5c-72.667 0 -134.167 7.5 -184.5 22.5s-91.833 35.333 -124.5 61s-57.834 55.5 -75.501 89.5s-30.667 70 -39 108s-13.166 76.667 -14.499 116
s-2 77.333 -2 114v438c0 35.333 -2.5 64 -7.5 86s-12.5 39 -22.5 51s-22.5 20.167 -37.5 24.5s-32.833 6.5 -53.5 6.5h-42v30h485v-30h-43c-20 0 -37.5 -2 -52.5 -6s-27.5 -12 -37.5 -24s-17.5 -29 -22.5 -51s-7.5 -51 -7.5 -87v-489c0 -46 2.83301 -92 8.5 -138
s18.334 -87.667 38.001 -125s48.834 -67.666 87.501 -90.999s91 -35 157 -35c52.667 0 102 8.5 148 25.5s84 40.5 114 70.5c20.667 20.667 36.667 44.334 48 71.001s19.833 54.5 25.5 83.5s9 58.333 10 88s1.5 58.167 1.5 85.5v454c0 70 -7.66699 113.667 -23 131
c-20.667 24.667 -52.667 37 -96 37h-42zM465 1487h184l88 -286h-29z" />
    <glyph glyph-name="Uacute" unicode="&#xda;" horiz-adv-x="1223" 
d="M808 1091v29.999h397v-30h-42c-44 0 -78 -18.667 -102 -56c-11.333 -17.333 -17 -57 -17 -119v-455c0 -47.333 -1.66699 -89.5 -5 -126.5s-9.16602 -70.5 -17.499 -100.5s-19.333 -56.833 -33 -80.5s-30.834 -45.834 -51.501 -66.501
c-23.333 -23.333 -48 -42.333 -74 -57s-52.833 -26.167 -80.5 -34.5s-55.834 -14 -84.501 -17s-57.334 -4.5 -86.001 -4.5c-72.667 0 -134.167 7.5 -184.5 22.5s-91.833 35.333 -124.5 61s-57.834 55.5 -75.501 89.5s-30.667 70 -39 108s-13.166 76.667 -14.499 116
s-2 77.333 -2 114v438c0 35.333 -2.5 64 -7.5 86s-12.5 39 -22.5 51s-22.5 20.167 -37.5 24.5s-32.833 6.5 -53.5 6.5h-42v30h485v-30h-43c-20 0 -37.5 -2 -52.5 -6s-27.5 -12 -37.5 -24s-17.5 -29 -22.5 -51s-7.5 -51 -7.5 -87v-489c0 -46 2.83301 -92 8.5 -138
s18.334 -87.667 38.001 -125s48.834 -67.666 87.501 -90.999s91 -35 157 -35c52.667 0 102 8.5 148 25.5s84 40.5 114 70.5c20.667 20.667 36.667 44.334 48 71.001s19.833 54.5 25.5 83.5s9 58.333 10 88s1.5 58.167 1.5 85.5v454c0 70 -7.66699 113.667 -23 131
c-20.667 24.667 -52.667 37 -96 37h-42zM794 1487l-244 -286h-28l87 286h185z" />
    <glyph glyph-name="Ucircumflex" unicode="&#xdb;" horiz-adv-x="1223" 
d="M808 1091v29.999h397v-30h-42c-44 0 -78 -18.667 -102 -56c-11.333 -17.333 -17 -57 -17 -119v-455c0 -47.333 -1.66699 -89.5 -5 -126.5s-9.16602 -70.5 -17.499 -100.5s-19.333 -56.833 -33 -80.5s-30.834 -45.834 -51.501 -66.501
c-23.333 -23.333 -48 -42.333 -74 -57s-52.833 -26.167 -80.5 -34.5s-55.834 -14 -84.501 -17s-57.334 -4.5 -86.001 -4.5c-72.667 0 -134.167 7.5 -184.5 22.5s-91.833 35.333 -124.5 61s-57.834 55.5 -75.501 89.5s-30.667 70 -39 108s-13.166 76.667 -14.499 116
s-2 77.333 -2 114v438c0 35.333 -2.5 64 -7.5 86s-12.5 39 -22.5 51s-22.5 20.167 -37.5 24.5s-32.833 6.5 -53.5 6.5h-42v30h485v-30h-43c-20 0 -37.5 -2 -52.5 -6s-27.5 -12 -37.5 -24s-17.5 -29 -22.5 -51s-7.5 -51 -7.5 -87v-489c0 -46 2.83301 -92 8.5 -138
s18.334 -87.667 38.001 -125s48.834 -67.666 87.501 -90.999s91 -35 157 -35c52.667 0 102 8.5 148 25.5s84 40.5 114 70.5c20.667 20.667 36.667 44.334 48 71.001s19.833 54.5 25.5 83.5s9 58.333 10 88s1.5 58.167 1.5 85.5v454c0 70 -7.66699 113.667 -23 131
c-20.667 24.667 -52.667 37 -96 37h-42zM572 1482h152l157 -273h-25l-226 176l-190 -176h-24z" />
    <glyph glyph-name="Udieresis" unicode="&#xdc;" horiz-adv-x="1223" 
d="M808 1091v29.999h397v-30h-42c-44 0 -78 -18.667 -102 -56c-11.333 -17.333 -17 -57 -17 -119v-455c0 -47.333 -1.66699 -89.5 -5 -126.5s-9.16602 -70.5 -17.499 -100.5s-19.333 -56.833 -33 -80.5s-30.834 -45.834 -51.501 -66.501
c-23.333 -23.333 -48 -42.333 -74 -57s-52.833 -26.167 -80.5 -34.5s-55.834 -14 -84.501 -17s-57.334 -4.5 -86.001 -4.5c-72.667 0 -134.167 7.5 -184.5 22.5s-91.833 35.333 -124.5 61s-57.834 55.5 -75.501 89.5s-30.667 70 -39 108s-13.166 76.667 -14.499 116
s-2 77.333 -2 114v438c0 35.333 -2.5 64 -7.5 86s-12.5 39 -22.5 51s-22.5 20.167 -37.5 24.5s-32.833 6.5 -53.5 6.5h-42v30h485v-30h-43c-20 0 -37.5 -2 -52.5 -6s-27.5 -12 -37.5 -24s-17.5 -29 -22.5 -51s-7.5 -51 -7.5 -87v-489c0 -46 2.83301 -92 8.5 -138
s18.334 -87.667 38.001 -125s48.834 -67.666 87.501 -90.999s91 -35 157 -35c52.667 0 102 8.5 148 25.5s84 40.5 114 70.5c20.667 20.667 36.667 44.334 48 71.001s19.833 54.5 25.5 83.5s9 58.333 10 88s1.5 58.167 1.5 85.5v454c0 70 -7.66699 113.667 -23 131
c-20.667 24.667 -52.667 37 -96 37h-42zM794 1413c12.667 0 24.498 -2.33496 35.498 -7.00195s20.5 -11.167 28.5 -19.5s14.333 -18 19 -29s7 -22.5 7 -34.5c0 -25.333 -8.66699 -46.666 -26 -63.999s-38.666 -26 -63.999 -26c-12 0 -23.5 2.33301 -34.5 7
s-20.667 11 -29 19s-14.833 17.5 -19.5 28.5s-7 22.833 -7 35.5c0 24.667 8.83301 45.834 26.5 63.501s38.834 26.5 63.501 26.5zM501.998 1413c12.667 0 24.5 -2.33398 35.5 -7.00098s20.667 -11.167 29 -19.5s14.833 -18 19.5 -29s7 -22.5 7 -34.5
c0 -12.667 -2.33301 -24.5 -7 -35.5s-11.167 -20.5 -19.5 -28.5s-18 -14.333 -29 -19s-22.5 -7 -34.5 -7s-23.5 2.33301 -34.5 7s-20.667 11 -29 19s-14.833 17.5 -19.5 28.5s-7 22.833 -7 35.5c0 24.667 8.66699 45.834 26 63.501s38.333 26.5 63 26.5z" />
    <glyph glyph-name="Yacute" unicode="&#xdd;" horiz-adv-x="1223" 
d="M807 1121l391 0.000976562v-30h-21c-30 0 -63.333 -14.333 -100 -43s-77.334 -77.667 -122.001 -147l-270 -425v-282c0 -68.667 7.66699 -111.667 23 -129c20.667 -22.667 53.667 -34 99 -34h37v-31h-477v31h40c47.333 0 81 14.333 101 43c12 16.667 18 56.667 18 120
v266l-308 470c-18.667 28 -34.334 50.667 -47.001 68s-24.5 31.333 -35.5 42s-22 19 -33 25s-23.833 12 -38.5 18c-5.33301 2 -12 3.83301 -20 5.5s-17.333 2.5 -28 2.5v30h479v-30h-24c-13.333 0 -26.166 -1.5 -38.499 -4.5s-23.5 -7.66699 -33.5 -14s-18 -14 -24 -23
s-9 -19.5 -9 -31.5c0 -10.667 4.33301 -24.834 13 -42.501s21.334 -39.167 38.001 -64.5l234 -362l220 346c32.667 51.333 49 90 49 116c0 22.667 -8 41.667 -24 57s-45.667 23 -89 23v30zM823 1487l-244 -286h-28l87 286h185z" />
    <glyph glyph-name="Thorn" unicode="&#xde;" horiz-adv-x="942" 
d="M347 867l62 0.00390625c49.333 0 91 -1.16699 125 -3.5s63.333 -6 88 -11s46.167 -11.667 64.5 -20s36.833 -18.166 55.5 -29.499c39.333 -25.333 71.666 -58.833 96.999 -100.5s38 -88.5 38 -140.5c0 -40 -6.66699 -77.333 -20 -112s-33 -65.334 -59 -92.001
s-58.667 -48.834 -98 -66.501s-85 -29.5 -137 -35.5c-10 -1.33301 -28.167 -2.5 -54.5 -3.5s-60.833 -1.5 -103.5 -1.5h-58v-50c0 -36.667 2.16699 -66.167 6.5 -88.5s11.5 -39.5 21.5 -51.5s23.167 -20 39.5 -24s36.166 -6 59.499 -6h34v-31h-478v31h31
c51.333 0 88 15.333 110 46c11.333 15.333 17 55.666 17 120.999v718c0 63.333 -3 102 -9 116c-6 14.667 -19.333 28.167 -40 40.5s-46 18.5 -76 18.5h-33v30h478v-30h-33c-9.33301 0 -19.666 -0.833008 -30.999 -2.5s-22.333 -4.83398 -33 -9.50098
s-20.667 -10.834 -30 -18.501s-16.666 -17.5 -21.999 -29.5c-8 -19.333 -12 -56.333 -12 -111v-53zM347 802.004l0.000976562 -492h37c54 0 100.167 6.16699 138.5 18.5s69.666 29.666 93.999 51.999s42 48.833 53 79.5s16.5 64 16.5 100c0 32 -4.83301 61.333 -14.5 88
s-23 50.334 -40 71.001s-36.833 37.667 -59.5 51s-46.667 22 -72 26c-22 4 -59.667 6 -113 6h-40z" />
    <glyph glyph-name="germandbls" unicode="&#xdf;" 
d="M29 0l0.00195312 30c26 2 46.167 5.5 60.5 10.5s25.166 13 32.499 24s11.833 26.167 13.5 45.5s2.5 44.666 2.5 75.999v613c0 69.333 6.66699 128 20 176s32.5 86.833 57.5 116.5s55.833 51.167 92.5 64.5s78.334 20 125.001 20c44 0 84 -6.66699 120 -20
s66.667 -32 92 -56s44.833 -52.5 58.5 -85.5s20.5 -68.833 20.5 -107.5c0 -25.333 -2.33301 -49 -7 -71s-13 -42.5 -25 -61.5s-28.167 -36.333 -48.5 -52s-46.166 -30.167 -77.499 -43.5c150.667 -44.667 226 -154.667 226 -330c0 -46.667 -6.33301 -91.667 -19 -135
s-31 -81.666 -55 -114.999s-53.167 -60 -87.5 -80s-72.833 -30 -115.5 -30c-24 0 -45.833 3.66699 -65.5 11s-36.5 17 -50.5 29s-24.667 26.167 -32 42.5s-11 33.5 -11 51.5c0 23.333 6 41.166 18 53.499s28 18.5 48 18.5c21.333 0 38 -5.83301 50 -17.5s18 -27.5 18 -47.5
c0 -10 -1.5 -20.667 -4.5 -32s-4.5 -19.333 -4.5 -24c0 -9.33301 3.83301 -18 11.5 -26s19.5 -12 35.5 -12c40 0 70.667 19.667 92 59s32 93.666 32 162.999c0 57.333 -5 109 -15 155s-25.167 85.333 -45.5 118s-45.833 58.334 -76.5 77.001s-66.334 29.334 -107.001 32.001
v47c58 0 102.167 17.333 132.5 52s45.5 92 45.5 172c0 74 -14.5 127.5 -43.5 160.5s-67.5 49.5 -115.5 49.5c-21.333 0 -41.333 -3.5 -60 -10.5s-34.834 -20.333 -48.501 -40s-24.334 -46.5 -32.001 -80.5s-11.5 -78 -11.5 -132v-858h-246z" />
    <glyph glyph-name="agrave" unicode="&#xe0;" horiz-adv-x="752" 
d="M482 109c-77.333 -60.667 -126 -95.333 -146 -104c-30 -14 -61.667 -21 -95 -21c-26 0 -50.167 4.83301 -72.5 14.5s-41.5 23 -57.5 40s-28.5 37.5 -37.5 61.5s-13.5 50.333 -13.5 79c0 34.667 6.83301 65.5 20.5 92.5s36.834 52.667 69.501 77s76 48.666 130 72.999
s121.333 51.166 202 80.499v30c0 38 -3.16699 69.667 -9.5 95s-15.5 45.5 -27.5 60.5s-26.667 25.667 -44 32s-37 9.5 -59 9.5c-18 0 -34 -2.66699 -48 -8s-26 -12.333 -36 -21s-17.667 -18.5 -23 -29.5s-8 -22.167 -8 -33.5c0 -8.66699 0.333008 -17.667 1 -27
s1 -17.666 1 -24.999c0 -25.333 -6.5 -44.333 -19.5 -57s-29.833 -19 -50.5 -19s-37.5 7.16699 -50.5 21.5s-19.5 34.166 -19.5 59.499c0 23.333 6.33301 46.333 19 69s30.834 43 54.501 61s52.667 32.5 87 43.5s73.166 16.5 116.499 16.5
c58.667 0 108.667 -8.66699 150 -26s70.666 -46.666 87.999 -87.999c10 -24 15 -72.667 15 -146v-257c0 -43.333 0.666992 -76.666 2 -99.999s3.5 -40.5 6.5 -51.5s7 -17.5 12 -19.5s11.167 -3 18.5 -3c6 0 11.5 0.833008 16.5 2.5s10.667 5 17 10s14 11.833 23 20.5
l33.5 33v-46c-60.667 -82.667 -119.667 -124 -177 -124c-26 0 -47.333 9.33301 -64 28s-25 50.667 -25 96zM482 452.001c-57.333 -23.333 -104.333 -43.999 -141 -61.999s-65.5 -35.833 -86.5 -53.5s-35.5 -35.834 -43.5 -54.501s-12 -40 -12 -64
c0 -19.333 3.16699 -37.5 9.5 -54.5s15 -31.667 26 -44s23.5 -22 37.5 -29s29 -10.5 45 -10.5c41.333 0 96.333 27.667 165 83v289zM215 1150h184l88 -286h-29z" />
    <glyph glyph-name="aacute" unicode="&#xe1;" horiz-adv-x="752" 
d="M482 109c-77.333 -60.667 -126 -95.333 -146 -104c-30 -14 -61.667 -21 -95 -21c-26 0 -50.167 4.83301 -72.5 14.5s-41.5 23 -57.5 40s-28.5 37.5 -37.5 61.5s-13.5 50.333 -13.5 79c0 34.667 6.83301 65.5 20.5 92.5s36.834 52.667 69.501 77s76 48.666 130 72.999
s121.333 51.166 202 80.499v30c0 38 -3.16699 69.667 -9.5 95s-15.5 45.5 -27.5 60.5s-26.667 25.667 -44 32s-37 9.5 -59 9.5c-18 0 -34 -2.66699 -48 -8s-26 -12.333 -36 -21s-17.667 -18.5 -23 -29.5s-8 -22.167 -8 -33.5c0 -8.66699 0.333008 -17.667 1 -27
s1 -17.666 1 -24.999c0 -25.333 -6.5 -44.333 -19.5 -57s-29.833 -19 -50.5 -19s-37.5 7.16699 -50.5 21.5s-19.5 34.166 -19.5 59.499c0 23.333 6.33301 46.333 19 69s30.834 43 54.501 61s52.667 32.5 87 43.5s73.166 16.5 116.499 16.5
c58.667 0 108.667 -8.66699 150 -26s70.666 -46.666 87.999 -87.999c10 -24 15 -72.667 15 -146v-257c0 -43.333 0.666992 -76.666 2 -99.999s3.5 -40.5 6.5 -51.5s7 -17.5 12 -19.5s11.167 -3 18.5 -3c6 0 11.5 0.833008 16.5 2.5s10.667 5 17 10s14 11.833 23 20.5
l33.5 33v-46c-60.667 -82.667 -119.667 -124 -177 -124c-26 0 -47.333 9.33301 -64 28s-25 50.667 -25 96zM482 452.001c-57.333 -23.333 -104.333 -43.999 -141 -61.999s-65.5 -35.833 -86.5 -53.5s-35.5 -35.834 -43.5 -54.501s-12 -40 -12 -64
c0 -19.333 3.16699 -37.5 9.5 -54.5s15 -31.667 26 -44s23.5 -22 37.5 -29s29 -10.5 45 -10.5c41.333 0 96.333 27.667 165 83v289zM564 1150l-244 -286h-28l87 286h185z" />
    <glyph glyph-name="acircumflex" unicode="&#xe2;" horiz-adv-x="752" 
d="M482 109c-77.333 -60.667 -126 -95.333 -146 -104c-30 -14 -61.667 -21 -95 -21c-26 0 -50.167 4.83301 -72.5 14.5s-41.5 23 -57.5 40s-28.5 37.5 -37.5 61.5s-13.5 50.333 -13.5 79c0 34.667 6.83301 65.5 20.5 92.5s36.834 52.667 69.501 77s76 48.666 130 72.999
s121.333 51.166 202 80.499v30c0 38 -3.16699 69.667 -9.5 95s-15.5 45.5 -27.5 60.5s-26.667 25.667 -44 32s-37 9.5 -59 9.5c-18 0 -34 -2.66699 -48 -8s-26 -12.333 -36 -21s-17.667 -18.5 -23 -29.5s-8 -22.167 -8 -33.5c0 -8.66699 0.333008 -17.667 1 -27
s1 -17.666 1 -24.999c0 -25.333 -6.5 -44.333 -19.5 -57s-29.833 -19 -50.5 -19s-37.5 7.16699 -50.5 21.5s-19.5 34.166 -19.5 59.499c0 23.333 6.33301 46.333 19 69s30.834 43 54.501 61s52.667 32.5 87 43.5s73.166 16.5 116.499 16.5
c58.667 0 108.667 -8.66699 150 -26s70.666 -46.666 87.999 -87.999c10 -24 15 -72.667 15 -146v-257c0 -43.333 0.666992 -76.666 2 -99.999s3.5 -40.5 6.5 -51.5s7 -17.5 12 -19.5s11.167 -3 18.5 -3c6 0 11.5 0.833008 16.5 2.5s10.667 5 17 10s14 11.833 23 20.5
l33.5 33v-46c-60.667 -82.667 -119.667 -124 -177 -124c-26 0 -47.333 9.33301 -64 28s-25 50.667 -25 96zM482 452.001c-57.333 -23.333 -104.333 -43.999 -141 -61.999s-65.5 -35.833 -86.5 -53.5s-35.5 -35.834 -43.5 -54.501s-12 -40 -12 -64
c0 -19.333 3.16699 -37.5 9.5 -54.5s15 -31.667 26 -44s23.5 -22 37.5 -29s29 -10.5 45 -10.5c41.333 0 96.333 27.667 165 83v289zM303 1145h152l157 -273h-25l-226 176l-190 -176h-24z" />
    <glyph glyph-name="atilde" unicode="&#xe3;" horiz-adv-x="752" 
d="M482 109c-77.333 -60.667 -126 -95.333 -146 -104c-30 -14 -61.667 -21 -95 -21c-26 0 -50.167 4.83301 -72.5 14.5s-41.5 23 -57.5 40s-28.5 37.5 -37.5 61.5s-13.5 50.333 -13.5 79c0 34.667 6.83301 65.5 20.5 92.5s36.834 52.667 69.501 77s76 48.666 130 72.999
s121.333 51.166 202 80.499v30c0 38 -3.16699 69.667 -9.5 95s-15.5 45.5 -27.5 60.5s-26.667 25.667 -44 32s-37 9.5 -59 9.5c-18 0 -34 -2.66699 -48 -8s-26 -12.333 -36 -21s-17.667 -18.5 -23 -29.5s-8 -22.167 -8 -33.5c0 -8.66699 0.333008 -17.667 1 -27
s1 -17.666 1 -24.999c0 -25.333 -6.5 -44.333 -19.5 -57s-29.833 -19 -50.5 -19s-37.5 7.16699 -50.5 21.5s-19.5 34.166 -19.5 59.499c0 23.333 6.33301 46.333 19 69s30.834 43 54.501 61s52.667 32.5 87 43.5s73.166 16.5 116.499 16.5
c58.667 0 108.667 -8.66699 150 -26s70.666 -46.666 87.999 -87.999c10 -24 15 -72.667 15 -146v-257c0 -43.333 0.666992 -76.666 2 -99.999s3.5 -40.5 6.5 -51.5s7 -17.5 12 -19.5s11.167 -3 18.5 -3c6 0 11.5 0.833008 16.5 2.5s10.667 5 17 10s14 11.833 23 20.5
l33.5 33v-46c-60.667 -82.667 -119.667 -124 -177 -124c-26 0 -47.333 9.33301 -64 28s-25 50.667 -25 96zM482 452.001c-57.333 -23.333 -104.333 -43.999 -141 -61.999s-65.5 -35.833 -86.5 -53.5s-35.5 -35.834 -43.5 -54.501s-12 -40 -12 -64
c0 -19.333 3.16699 -37.5 9.5 -54.5s15 -31.667 26 -44s23.5 -22 37.5 -29s29 -10.5 45 -10.5c41.333 0 96.333 27.667 165 83v289zM115 907.002c1.33301 38 6.16699 70.498 14.5 97.498s19.333 49.167 33 66.5s29.667 30 48 38s38.5 12 60.5 12
c13.333 0 25.666 -1 36.999 -3s23.333 -5.5 36 -10.5s26.334 -12.167 41.001 -21.5l53 -35c22 -15.333 41.5 -26.666 58.5 -33.999s31.167 -11 42.5 -11c8.66699 0 17 1.66699 25 5s15.333 9.16602 22 17.499s12.667 20 18 35s10 34.167 14 57.5h26v-13
c0 -35.333 -4.66699 -65.5 -14 -90.5s-21.333 -45.833 -36 -62.5s-31.5 -29.167 -50.5 -37.5s-37.833 -12.833 -56.5 -13.5c-44 0 -98.333 22 -163 66l-43.5 28.5c-11 7 -20 12.167 -27 15.5s-13 5.33301 -18 6s-10.5 1 -16.5 1c-10 0 -18.5 -0.833008 -25.5 -2.5
s-13.5 -6.16699 -19.5 -13.5s-11.5 -18.666 -16.5 -33.999s-10.167 -36.666 -15.5 -63.999h-27z" />
    <glyph glyph-name="adieresis" unicode="&#xe4;" horiz-adv-x="752" 
d="M482 109c-77.333 -60.667 -126 -95.333 -146 -104c-30 -14 -61.667 -21 -95 -21c-26 0 -50.167 4.83301 -72.5 14.5s-41.5 23 -57.5 40s-28.5 37.5 -37.5 61.5s-13.5 50.333 -13.5 79c0 34.667 6.83301 65.5 20.5 92.5s36.834 52.667 69.501 77s76 48.666 130 72.999
s121.333 51.166 202 80.499v30c0 38 -3.16699 69.667 -9.5 95s-15.5 45.5 -27.5 60.5s-26.667 25.667 -44 32s-37 9.5 -59 9.5c-18 0 -34 -2.66699 -48 -8s-26 -12.333 -36 -21s-17.667 -18.5 -23 -29.5s-8 -22.167 -8 -33.5c0 -8.66699 0.333008 -17.667 1 -27
s1 -17.666 1 -24.999c0 -25.333 -6.5 -44.333 -19.5 -57s-29.833 -19 -50.5 -19s-37.5 7.16699 -50.5 21.5s-19.5 34.166 -19.5 59.499c0 23.333 6.33301 46.333 19 69s30.834 43 54.501 61s52.667 32.5 87 43.5s73.166 16.5 116.499 16.5
c58.667 0 108.667 -8.66699 150 -26s70.666 -46.666 87.999 -87.999c10 -24 15 -72.667 15 -146v-257c0 -43.333 0.666992 -76.666 2 -99.999s3.5 -40.5 6.5 -51.5s7 -17.5 12 -19.5s11.167 -3 18.5 -3c6 0 11.5 0.833008 16.5 2.5s10.667 5 17 10s14 11.833 23 20.5
l33.5 33v-46c-60.667 -82.667 -119.667 -124 -177 -124c-26 0 -47.333 9.33301 -64 28s-25 50.667 -25 96zM482 452.001c-57.333 -23.333 -104.333 -43.999 -141 -61.999s-65.5 -35.833 -86.5 -53.5s-35.5 -35.834 -43.5 -54.501s-12 -40 -12 -64
c0 -19.333 3.16699 -37.5 9.5 -54.5s15 -31.667 26 -44s23.5 -22 37.5 -29s29 -10.5 45 -10.5c41.333 0 96.333 27.667 165 83v289zM524 1106c12.667 0 24.498 -2.33496 35.498 -7.00195s20.5 -11.167 28.5 -19.5s14.333 -18 19 -29s7 -22.5 7 -34.5
c0 -25.333 -8.66699 -46.666 -26 -63.999s-38.666 -26 -63.999 -26c-12 0 -23.5 2.33301 -34.5 7s-20.667 11 -29 19s-14.833 17.5 -19.5 28.5s-7 22.833 -7 35.5c0 24.667 8.83301 45.834 26.5 63.501s38.834 26.5 63.501 26.5zM231.998 1106
c12.667 0 24.5 -2.33398 35.5 -7.00098s20.667 -11.167 29 -19.5s14.833 -18 19.5 -29s7 -22.5 7 -34.5c0 -12.667 -2.33301 -24.5 -7 -35.5s-11.167 -20.5 -19.5 -28.5s-18 -14.333 -29 -19s-22.5 -7 -34.5 -7s-23.5 2.33301 -34.5 7s-20.667 11 -29 19
s-14.833 17.5 -19.5 28.5s-7 22.833 -7 35.5c0 24.667 8.66699 45.834 26 63.501s38.333 26.5 63 26.5z" />
    <glyph glyph-name="aring" unicode="&#xe5;" horiz-adv-x="752" 
d="M482 109c-77.333 -60.667 -126 -95.333 -146 -104c-30 -14 -61.667 -21 -95 -21c-26 0 -50.167 4.83301 -72.5 14.5s-41.5 23 -57.5 40s-28.5 37.5 -37.5 61.5s-13.5 50.333 -13.5 79c0 34.667 6.83301 65.5 20.5 92.5s36.834 52.667 69.501 77s76 48.666 130 72.999
s121.333 51.166 202 80.499v30c0 38 -3.16699 69.667 -9.5 95s-15.5 45.5 -27.5 60.5s-26.667 25.667 -44 32s-37 9.5 -59 9.5c-18 0 -34 -2.66699 -48 -8s-26 -12.333 -36 -21s-17.667 -18.5 -23 -29.5s-8 -22.167 -8 -33.5c0 -8.66699 0.333008 -17.667 1 -27
s1 -17.666 1 -24.999c0 -25.333 -6.5 -44.333 -19.5 -57s-29.833 -19 -50.5 -19s-37.5 7.16699 -50.5 21.5s-19.5 34.166 -19.5 59.499c0 23.333 6.33301 46.333 19 69s30.834 43 54.501 61s52.667 32.5 87 43.5s73.166 16.5 116.499 16.5
c58.667 0 108.667 -8.66699 150 -26s70.666 -46.666 87.999 -87.999c10 -24 15 -72.667 15 -146v-257c0 -43.333 0.666992 -76.666 2 -99.999s3.5 -40.5 6.5 -51.5s7 -17.5 12 -19.5s11.167 -3 18.5 -3c6 0 11.5 0.833008 16.5 2.5s10.667 5 17 10s14 11.833 23 20.5
l33.5 33v-46c-60.667 -82.667 -119.667 -124 -177 -124c-26 0 -47.333 9.33301 -64 28s-25 50.667 -25 96zM482 452.001c-57.333 -23.333 -104.333 -43.999 -141 -61.999s-65.5 -35.833 -86.5 -53.5s-35.5 -35.834 -43.5 -54.501s-12 -40 -12 -64
c0 -19.333 3.16699 -37.5 9.5 -54.5s15 -31.667 26 -44s23.5 -22 37.5 -29s29 -10.5 45 -10.5c41.333 0 96.333 27.667 165 83v289zM379 1180c21.333 0 41.668 -4.16699 61.001 -12.5s36.166 -19.833 50.499 -34.5s25.833 -31.5 34.5 -50.5s13 -39.167 13 -60.5
c0 -22 -4.16699 -42.667 -12.5 -62s-19.833 -36.166 -34.5 -50.499s-31.5 -25.666 -50.5 -33.999s-39.5 -12.5 -61.5 -12.5s-42.5 4.16699 -61.5 12.5s-35.667 19.666 -50 33.999s-25.666 31.166 -33.999 50.499s-12.5 40 -12.5 62c0 21.333 4.16699 41.5 12.5 60.5
s19.666 35.833 33.999 50.5s31 26.167 50 34.5s39.5 12.5 61.5 12.5zM379.002 1123c-14 0 -27.167 -2.66699 -39.5 -8s-23 -12.5 -32 -21.5s-16.167 -19.667 -21.5 -32s-8 -25.5 -8 -39.5s2.66699 -27.167 8 -39.5s12.5 -23 21.5 -32s19.667 -16.167 32 -21.5
s25.5 -8 39.5 -8s27.167 2.66699 39.5 8s23 12.5 32 21.5s16.167 19.667 21.5 32s8 25.5 8 39.5s-2.66699 27.167 -8 39.5s-12.5 23 -21.5 32s-19.667 16.167 -32 21.5s-25.5 8 -39.5 8z" />
    <glyph glyph-name="ae" unicode="&#xe6;" horiz-adv-x="1130" 
d="M607 469c-0.666992 -14 -0.996094 -26.001 -0.996094 -36.001v-25c0 -56.667 5.33301 -104.5 16 -143.5s25.5 -70.667 44.5 -95s41.333 -41.833 67 -52.5s53.834 -16 84.501 -16c22.667 0 44.167 2.16699 64.5 6.5s40 13 59 26s37.667 31.5 56 55.5s36.5 55.333 54.5 94
l26 -18c-8 -36 -20.333 -71.333 -37 -106s-37.834 -65.5 -63.501 -92.5s-55.667 -48.667 -90 -65s-72.833 -24.5 -115.5 -24.5c-29.333 0 -56.833 3.16699 -82.5 9.5s-49.167 16.166 -70.5 29.499c-10 6 -22.5 16.833 -37.5 32.5s-32.833 35.834 -53.5 60.501
c-3.33301 -2 -10.333 -7.33301 -21 -16s-22.334 -17.667 -35.001 -27l-35 -26c-10.667 -8 -17 -12.667 -19 -14c-26 -15.333 -53.667 -27.333 -83 -36s-59.333 -13 -90 -13c-26 0 -50.167 4.83301 -72.5 14.5s-41.833 23 -58.5 40s-29.834 37 -39.501 60
s-14.5 47.833 -14.5 74.5c0 24 2.66699 46 8 66s14.666 39 27.999 57s31.333 35.333 54 52s51.667 34 87 52c43.333 22 83.833 41.5 121.5 58.5s73.5 31.167 107.5 42.5v76c0 59.333 -11.167 101.333 -33.5 126s-51.833 37 -88.5 37c-18.667 0 -35.167 -2.66699 -49.5 -8
s-26.5 -12.166 -36.5 -20.499s-17.667 -17.666 -23 -27.999s-8 -20.5 -8 -30.5c0 -28 -1 -50.667 -3 -68s-5.5 -30.666 -10.5 -39.999s-11.833 -15.666 -20.5 -18.999s-19.334 -5 -32.001 -5s-23.667 2.5 -33 7.5s-17 11.167 -23 18.5s-10.5 15.666 -13.5 24.999
s-4.5 18.333 -4.5 27c0 22 6.16699 44.333 18.5 67s30.333 43 54 61s52.667 32.667 87 44s73.5 17 117.5 17c68 0 119.5 -9.83301 154.5 -29.5s57.833 -43.834 68.5 -72.501c30.667 38 63.5 64.5 98.5 79.5s76.5 22.5 124.5 22.5c38.667 0 74.5 -6.83301 107.5 -20.5
s61.333 -33.667 85 -60s42.167 -58.833 55.5 -97.5s20 -83.334 20 -134.001h-471zM920.004 522.999c-1.33301 69.333 -16.1689 119.833 -44.502 151.5s-64.5 47.5 -108.5 47.5c-22 0 -42.667 -4.33301 -62 -13s-36.166 -21.5 -50.499 -38.5s-25.666 -37.833 -33.999 -62.5
s-12.833 -53 -13.5 -85h313zM504.001 151.999c-6 12 -11.333 26.335 -16 43.002s-8.66699 34.5 -12 53.5s-5.83301 38.5 -7.5 58.5s-2.5 39.667 -2.5 59v74c-28.667 -8.66699 -58.667 -20 -90 -34s-60.166 -30.5 -86.499 -49.5s-48 -40.5 -65 -64.5s-25.5 -50.333 -25.5 -79
c0 -22 3.5 -42 10.5 -60s16.667 -33.5 29 -46.5s26.5 -23.167 42.5 -30.5s33 -11 51 -11c11.333 0 22.333 1.16699 33 3.5s22.5 6.66602 35.5 12.999s27.667 15.166 44 26.499s36.166 26 59.499 44z" />
    <glyph glyph-name="ccedilla" unicode="&#xe7;" horiz-adv-x="752" 
d="M696 288c-10 -49.333 -25.3301 -93.3262 -45.9971 -131.993s-45.167 -71.334 -73.5 -98.001s-59.333 -46.834 -93 -60.501s-68.5 -20.5 -104.5 -20.5c-42.667 0 -83.334 9.33301 -122.001 28s-72.834 45.5 -102.501 80.5s-53.167 77.167 -70.5 126.5
s-26 104.666 -26 165.999c0 60 9.66699 114.667 29 164s45.5 91.666 78.5 126.999s71.333 62.666 115 81.999s89.834 29 138.501 29c37.333 0 71.666 -5.5 102.999 -16.5s58.333 -25.333 81 -43s40.334 -37.334 53.001 -59.001s19 -42.834 19 -63.501
c0 -21.333 -6.83301 -38.333 -20.5 -51s-32.5 -19 -56.5 -19c-13.333 0 -25.166 1.33301 -35.499 4s-19.5 7.5 -27.5 14.5s-14.5 16.833 -19.5 29.5s-8.5 29 -10.5 49c-6 66 -43.667 99 -113 99c-32.667 0 -61.334 -7.33301 -86.001 -22s-45.5 -34.5 -62.5 -59.5
s-29.833 -54.167 -38.5 -87.5s-13 -68.666 -13 -105.999c0 -44.667 5.66699 -87.667 17 -129s27.666 -77.833 48.999 -109.5s47.166 -57 77.499 -76s64.5 -28.5 102.5 -28.5c22.667 0 44.5 2.66699 65.5 8s41.167 15.166 60.5 29.499s37.833 34 55.5 59
s35.167 57.167 52.5 96.5zM389.003 13.0068h49.0029l-41 -65c34.667 -8.66699 60.5 -23.5 77.5 -44.5s25.5 -46.5 25.5 -76.5c0 -39.333 -16.667 -74 -50 -104c-32.667 -30.667 -75.334 -46 -128.001 -46c-20.667 0 -46.334 2 -77.001 6v36c14.667 -2 27.667 -3 39 -3
c14 0 27.167 2.5 39.5 7.5s23 11.667 32 20s16 17.833 21 28.5s7.5 22 7.5 34c0 16.667 -6.33301 31.167 -19 43.5s-28.334 18.5 -47.001 18.5l-21 -2z" />
    <glyph glyph-name="egrave" unicode="&#xe8;" horiz-adv-x="752" 
d="M180 472c0 -56 7.49902 -106.333 22.499 -151s35.167 -82.5 60.5 -113.5s54.666 -54.667 87.999 -71s68.666 -24.5 105.999 -24.5c49.333 0 92.333 13.667 129 41s67.334 74 92.001 140l26 -17c-6 -36 -17.5 -71.833 -34.5 -107.5s-39 -67.667 -66 -96
s-58.167 -51.333 -93.5 -69s-74 -26.5 -116 -26.5c-45.333 0 -88 9.16699 -128 27.5s-75 44.5 -105 78.5s-53.833 75.167 -71.5 123.5s-26.5 102.5 -26.5 162.5c0 64.667 8.83301 122.5 26.5 173.5s42.167 94.167 73.5 129.5s68.333 62.333 111 81s89 28 139 28
c42 0 80.833 -7.33301 116.5 -22s66.334 -35.5 92.001 -62.5s45.834 -59.5 60.501 -97.5s22 -80.333 22 -127h-524zM530.999 520c-3.33301 50 -8.99902 84.332 -16.999 102.999c-14 30.667 -34.667 54.834 -62 72.501s-56 26.5 -86 26.5c-22 0 -43.5 -4.5 -64.5 -13.5
s-40 -22.167 -57 -39.5s-31.333 -38.5 -43 -63.5s-18.834 -53.5 -21.501 -85.5h351zM236 1150h184l88 -286h-29z" />
    <glyph glyph-name="eacute" unicode="&#xe9;" horiz-adv-x="752" 
d="M180 472c0 -56 7.49902 -106.333 22.499 -151s35.167 -82.5 60.5 -113.5s54.666 -54.667 87.999 -71s68.666 -24.5 105.999 -24.5c49.333 0 92.333 13.667 129 41s67.334 74 92.001 140l26 -17c-6 -36 -17.5 -71.833 -34.5 -107.5s-39 -67.667 -66 -96
s-58.167 -51.333 -93.5 -69s-74 -26.5 -116 -26.5c-45.333 0 -88 9.16699 -128 27.5s-75 44.5 -105 78.5s-53.833 75.167 -71.5 123.5s-26.5 102.5 -26.5 162.5c0 64.667 8.83301 122.5 26.5 173.5s42.167 94.167 73.5 129.5s68.333 62.333 111 81s89 28 139 28
c42 0 80.833 -7.33301 116.5 -22s66.334 -35.5 92.001 -62.5s45.834 -59.5 60.501 -97.5s22 -80.333 22 -127h-524zM530.999 520c-3.33301 50 -8.99902 84.332 -16.999 102.999c-14 30.667 -34.667 54.834 -62 72.501s-56 26.5 -86 26.5c-22 0 -43.5 -4.5 -64.5 -13.5
s-40 -22.167 -57 -39.5s-31.333 -38.5 -43 -63.5s-18.834 -53.5 -21.501 -85.5h351zM575 1150l-244 -286h-28l87 286h185z" />
    <glyph glyph-name="ecircumflex" unicode="&#xea;" horiz-adv-x="752" 
d="M180 472c0 -56 7.49902 -106.333 22.499 -151s35.167 -82.5 60.5 -113.5s54.666 -54.667 87.999 -71s68.666 -24.5 105.999 -24.5c49.333 0 92.333 13.667 129 41s67.334 74 92.001 140l26 -17c-6 -36 -17.5 -71.833 -34.5 -107.5s-39 -67.667 -66 -96
s-58.167 -51.333 -93.5 -69s-74 -26.5 -116 -26.5c-45.333 0 -88 9.16699 -128 27.5s-75 44.5 -105 78.5s-53.833 75.167 -71.5 123.5s-26.5 102.5 -26.5 162.5c0 64.667 8.83301 122.5 26.5 173.5s42.167 94.167 73.5 129.5s68.333 62.333 111 81s89 28 139 28
c42 0 80.833 -7.33301 116.5 -22s66.334 -35.5 92.001 -62.5s45.834 -59.5 60.501 -97.5s22 -80.333 22 -127h-524zM530.999 520c-3.33301 50 -8.99902 84.332 -16.999 102.999c-14 30.667 -34.667 54.834 -62 72.501s-56 26.5 -86 26.5c-22 0 -43.5 -4.5 -64.5 -13.5
s-40 -22.167 -57 -39.5s-31.333 -38.5 -43 -63.5s-18.834 -53.5 -21.501 -85.5h351zM333 1145h152l157 -273h-25l-226 176l-190 -176h-24z" />
    <glyph glyph-name="edieresis" unicode="&#xeb;" horiz-adv-x="752" 
d="M180 472c0 -56 7.49902 -106.333 22.499 -151s35.167 -82.5 60.5 -113.5s54.666 -54.667 87.999 -71s68.666 -24.5 105.999 -24.5c49.333 0 92.333 13.667 129 41s67.334 74 92.001 140l26 -17c-6 -36 -17.5 -71.833 -34.5 -107.5s-39 -67.667 -66 -96
s-58.167 -51.333 -93.5 -69s-74 -26.5 -116 -26.5c-45.333 0 -88 9.16699 -128 27.5s-75 44.5 -105 78.5s-53.833 75.167 -71.5 123.5s-26.5 102.5 -26.5 162.5c0 64.667 8.83301 122.5 26.5 173.5s42.167 94.167 73.5 129.5s68.333 62.333 111 81s89 28 139 28
c42 0 80.833 -7.33301 116.5 -22s66.334 -35.5 92.001 -62.5s45.834 -59.5 60.501 -97.5s22 -80.333 22 -127h-524zM530.999 520c-3.33301 50 -8.99902 84.332 -16.999 102.999c-14 30.667 -34.667 54.834 -62 72.501s-56 26.5 -86 26.5c-22 0 -43.5 -4.5 -64.5 -13.5
s-40 -22.167 -57 -39.5s-31.333 -38.5 -43 -63.5s-18.834 -53.5 -21.501 -85.5h351zM555 1106c12.667 0 24.498 -2.33496 35.498 -7.00195s20.5 -11.167 28.5 -19.5s14.333 -18 19 -29s7 -22.5 7 -34.5c0 -25.333 -8.66699 -46.666 -26 -63.999s-38.666 -26 -63.999 -26
c-12 0 -23.5 2.33301 -34.5 7s-20.667 11 -29 19s-14.833 17.5 -19.5 28.5s-7 22.833 -7 35.5c0 24.667 8.83301 45.834 26.5 63.501s38.834 26.5 63.501 26.5zM262.998 1106c12.667 0 24.5 -2.33398 35.5 -7.00098s20.667 -11.167 29 -19.5s14.833 -18 19.5 -29
s7 -22.5 7 -34.5c0 -12.667 -2.33301 -24.5 -7 -35.5s-11.167 -20.5 -19.5 -28.5s-18 -14.333 -29 -19s-22.5 -7 -34.5 -7s-23.5 2.33301 -34.5 7s-20.667 11 -29 19s-14.833 17.5 -19.5 28.5s-7 22.833 -7 35.5c0 24.667 8.66699 45.834 26 63.501s38.333 26.5 63 26.5z
" />
    <glyph glyph-name="igrave" unicode="&#xec;" horiz-adv-x="471" 
d="M313 780l-0.00195312 -608.997c0 -46.667 3.66699 -78.334 11 -95.001c4 -8 8.33301 -14.833 13 -20.5s10.834 -10.334 18.501 -14.001s17.334 -6.5 29.001 -8.5s26.5 -3 44.5 -3v-30h-368v30c37.333 0 62.333 3.33301 75 10s22.667 18.667 30 36
c7.33301 18 11 49.667 11 95v292c0 83.333 -2.33301 136.666 -7 159.999c-4 17.333 -10.167 29.5 -18.5 36.5s-19.833 10.5 -34.5 10.5c-16 0 -34.667 -4.33301 -56 -13l-11 30l228 93h35zM66.998 1150h184l88 -286h-29z" />
    <glyph glyph-name="iacute" unicode="&#xed;" horiz-adv-x="471" 
d="M313 780l-0.00195312 -608.997c0 -46.667 3.66699 -78.334 11 -95.001c4 -8 8.33301 -14.833 13 -20.5s10.834 -10.334 18.501 -14.001s17.334 -6.5 29.001 -8.5s26.5 -3 44.5 -3v-30h-368v30c37.333 0 62.333 3.33301 75 10s22.667 18.667 30 36
c7.33301 18 11 49.667 11 95v292c0 83.333 -2.33301 136.666 -7 159.999c-4 17.333 -10.167 29.5 -18.5 36.5s-19.833 10.5 -34.5 10.5c-16 0 -34.667 -4.33301 -56 -13l-11 30l228 93h35zM413.998 1150l-244 -286h-28l87 286h185z" />
    <glyph glyph-name="icircumflex" unicode="&#xee;" horiz-adv-x="471" 
d="M313 780l-0.00195312 -608.997c0 -46.667 3.66699 -78.334 11 -95.001c4 -8 8.33301 -14.833 13 -20.5s10.834 -10.334 18.501 -14.001s17.334 -6.5 29.001 -8.5s26.5 -3 44.5 -3v-30h-368v30c37.333 0 62.333 3.33301 75 10s22.667 18.667 30 36
c7.33301 18 11 49.667 11 95v292c0 83.333 -2.33301 136.666 -7 159.999c-4 17.333 -10.167 29.5 -18.5 36.5s-19.833 10.5 -34.5 10.5c-16 0 -34.667 -4.33301 -56 -13l-11 30l228 93h35zM169.998 1145h152l157 -273h-25l-226 176l-190 -176h-24z" />
    <glyph glyph-name="idieresis" unicode="&#xef;" horiz-adv-x="471" 
d="M313 780l-0.00195312 -608.997c0 -46.667 3.66699 -78.334 11 -95.001c4 -8 8.33301 -14.833 13 -20.5s10.834 -10.334 18.501 -14.001s17.334 -6.5 29.001 -8.5s26.5 -3 44.5 -3v-30h-368v30c37.333 0 62.333 3.33301 75 10s22.667 18.667 30 36
c7.33301 18 11 49.667 11 95v292c0 83.333 -2.33301 136.666 -7 159.999c-4 17.333 -10.167 29.5 -18.5 36.5s-19.833 10.5 -34.5 10.5c-16 0 -34.667 -4.33301 -56 -13l-11 30l228 93h35zM384.998 1106c12.667 0 24.498 -2.33496 35.498 -7.00195s20.5 -11.167 28.5 -19.5
s14.333 -18 19 -29s7 -22.5 7 -34.5c0 -25.333 -8.66699 -46.666 -26 -63.999s-38.666 -26 -63.999 -26c-12 0 -23.5 2.33301 -34.5 7s-20.667 11 -29 19s-14.833 17.5 -19.5 28.5s-7 22.833 -7 35.5c0 24.667 8.83301 45.834 26.5 63.501s38.834 26.5 63.501 26.5z
M92.9961 1106c12.667 0 24.5 -2.33398 35.5 -7.00098s20.667 -11.167 29 -19.5s14.833 -18 19.5 -29s7 -22.5 7 -34.5c0 -12.667 -2.33301 -24.5 -7 -35.5s-11.167 -20.5 -19.5 -28.5s-18 -14.333 -29 -19s-22.5 -7 -34.5 -7s-23.5 2.33301 -34.5 7s-20.667 11 -29 19
s-14.833 17.5 -19.5 28.5s-7 22.833 -7 35.5c0 24.667 8.66699 45.834 26 63.501s38.333 26.5 63 26.5z" />
    <glyph glyph-name="eth" unicode="&#xf0;" 
d="M184 855l-25.0059 46.001l192 109l-47.5 47.5c-12.333 12.333 -23.666 22.833 -33.999 31.5s-21.166 16.834 -32.499 24.501l-41 26.5l22 36c34 -16.667 67.833 -35.667 101.5 -57s68.167 -45 103.5 -71l206 115l28 -46l-190 -107c53.333 -46.667 100 -96 140 -148
s73.167 -105 99.5 -159s46 -108.167 59 -162.5s19.5 -107.166 19.5 -158.499c0 -56 -9.33301 -108.5 -28 -157.5s-44.334 -91.833 -77.001 -128.5s-71 -65.667 -115 -87s-91.333 -32 -142 -32s-98.167 9.5 -142.5 28.5s-83.166 45.667 -116.499 80
s-59.666 75.166 -78.999 122.499s-29 99.666 -29 156.999c0 51.333 8.5 101.5 25.5 150.5s40.833 92.5 71.5 130.5s67.334 68.667 110.001 92s89.667 35 141 35c12.667 0 24.334 -0.5 35.001 -1.5s21.167 -3.16699 31.5 -6.5s21.333 -8.33301 33 -15
s24.834 -15.334 39.501 -26.001c-43.333 90 -95 171 -155 243zM395.994 723.001c-26 0 -50.332 -5.16895 -72.999 -15.502s-42.5 -27.166 -59.5 -50.499s-30.333 -53.833 -40 -91.5s-14.5 -83.5 -14.5 -137.5c0 -63.333 7 -119.333 21 -168s32.333 -89.667 55 -123
s48.5 -58.666 77.5 -75.999s58.833 -26 89.5 -26c24.667 0 48 5.16699 70 15.5s41.167 26.666 57.5 48.999s29.166 51 38.499 86s14 77.167 14 126.5c0 60.667 -5.66699 116.334 -17 167.001s-27.5 94 -48.5 130s-46 64 -75 84s-60.833 30 -95.5 30z" />
    <glyph glyph-name="ntilde" unicode="&#xf1;" 
d="M274 619c89.333 107.333 173.999 160.998 253.999 160.998c28 0 54 -4.66699 78 -14s44.667 -25.166 62 -47.499s31 -51.666 41 -87.999s15 -81.5 15 -135.5v-324c0 -26.667 0.833008 -49 2.5 -67s6.16699 -32.5 13.5 -43.5s18.666 -18.833 33.999 -23.5s37 -7 65 -7v-30
h-374v30h15c24.667 0 44.167 2.33301 58.5 7s25.166 12.334 32.499 23.001s11.833 25 13.5 43s2.5 40.667 2.5 68v310c0 70 -9 120.333 -27 151s-48 46 -90 46c-65.333 0 -130.666 -35.667 -195.999 -107v-400c0 -28 0.833008 -49.833 2.5 -65.5
s4.33398 -27.834 8.00098 -36.501s8 -14.667 13 -18s10.5 -6.66602 16.5 -9.99902c14.667 -7.33301 42.334 -11 83.001 -11v-30h-375v30h17c19.333 0 35.333 2.16699 48 6.5s22.667 11.833 30 22.5s12.5 25 15.5 43s4.5 41 4.5 69v281c0 91.333 -2 146.666 -6 165.999
c-4 20 -10.333 33.667 -19 41s-20 11 -34 11c-16 0 -34.667 -4.33301 -56 -13l-12 30l228 93h36v-161zM158.999 906.998c1.33301 38 6.16699 70.498 14.5 97.498s19.333 49.167 33 66.5s29.667 30 48 38s38.5 12 60.5 12c13.333 0 25.666 -1 36.999 -3s23.333 -5.5 36 -10.5
s26.334 -12.167 41.001 -21.5l53 -35c22 -15.333 41.5 -26.666 58.5 -33.999s31.167 -11 42.5 -11c8.66699 0 17 1.66699 25 5s15.333 9.16602 22 17.499s12.667 20 18 35s10 34.167 14 57.5h26v-13c0 -35.333 -4.66699 -65.5 -14 -90.5s-21.333 -45.833 -36 -62.5
s-31.5 -29.167 -50.5 -37.5s-37.833 -12.833 -56.5 -13.5c-44 0 -98.333 22 -163 66l-43.5 28.5c-11 7 -20 12.167 -27 15.5s-13 5.33301 -18 6s-10.5 1 -16.5 1c-10 0 -18.5 -0.833008 -25.5 -2.5s-13.5 -6.16699 -19.5 -13.5s-11.5 -18.666 -16.5 -33.999
s-10.167 -36.666 -15.5 -63.999h-27z" />
    <glyph glyph-name="ograve" unicode="&#xf2;" 
d="M423 780c52 0 100.336 -10.165 145.003 -30.498s83.334 -48 116.001 -83s58.167 -76 76.5 -123s27.5 -97.167 27.5 -150.5c0 -34.667 -4.16699 -68.834 -12.5 -102.501s-20.5 -68.167 -36.5 -103.5c-32.667 -70 -77.334 -122.5 -134.001 -157.5
s-120.334 -52.5 -191.001 -52.5c-52 0 -100 10.667 -144 32s-81.667 50.166 -113 86.499s-55.833 78.333 -73.5 126s-26.5 97.5 -26.5 149.5c0 70 17 139 51 207c17.333 34 37.666 63.667 60.999 89s48.5 46.333 75.5 63s55.667 29.167 86 37.5s61.166 12.5 92.499 12.5z
M398.003 726.002c-24.667 0 -48.3359 -5.16699 -71.0029 -15.5s-42.5 -27 -59.5 -50s-30.667 -52.5 -41 -88.5s-15.5 -79.667 -15.5 -131c0 -54 5.5 -105.5 16.5 -154.5s26.833 -92 47.5 -129s45.834 -66.5 75.501 -88.5s62.834 -33 99.501 -33c26 0 50.167 5 72.5 15
s41.833 26.5 58.5 49.5s29.667 53.167 39 90.5s14 83.333 14 138c0 54 -5.33301 105.167 -16 153.5s-26 90.5 -46 126.5s-44.667 64.5 -74 85.5s-62.666 31.5 -99.999 31.5zM249.001 1150h184l88 -286h-29z" />
    <glyph glyph-name="oacute" unicode="&#xf3;" 
d="M423 780c52 0 100.336 -10.165 145.003 -30.498s83.334 -48 116.001 -83s58.167 -76 76.5 -123s27.5 -97.167 27.5 -150.5c0 -34.667 -4.16699 -68.834 -12.5 -102.501s-20.5 -68.167 -36.5 -103.5c-32.667 -70 -77.334 -122.5 -134.001 -157.5
s-120.334 -52.5 -191.001 -52.5c-52 0 -100 10.667 -144 32s-81.667 50.166 -113 86.499s-55.833 78.333 -73.5 126s-26.5 97.5 -26.5 149.5c0 70 17 139 51 207c17.333 34 37.666 63.667 60.999 89s48.5 46.333 75.5 63s55.667 29.167 86 37.5s61.166 12.5 92.499 12.5z
M398.003 726.002c-24.667 0 -48.3359 -5.16699 -71.0029 -15.5s-42.5 -27 -59.5 -50s-30.667 -52.5 -41 -88.5s-15.5 -79.667 -15.5 -131c0 -54 5.5 -105.5 16.5 -154.5s26.833 -92 47.5 -129s45.834 -66.5 75.501 -88.5s62.834 -33 99.501 -33c26 0 50.167 5 72.5 15
s41.833 26.5 58.5 49.5s29.667 53.167 39 90.5s14 83.333 14 138c0 54 -5.33301 105.167 -16 153.5s-26 90.5 -46 126.5s-44.667 64.5 -74 85.5s-62.666 31.5 -99.999 31.5zM598.001 1150l-244 -286h-28l87 286h185z" />
    <glyph glyph-name="ocircumflex" unicode="&#xf4;" 
d="M423 780c52 0 100.336 -10.165 145.003 -30.498s83.334 -48 116.001 -83s58.167 -76 76.5 -123s27.5 -97.167 27.5 -150.5c0 -34.667 -4.16699 -68.834 -12.5 -102.501s-20.5 -68.167 -36.5 -103.5c-32.667 -70 -77.334 -122.5 -134.001 -157.5
s-120.334 -52.5 -191.001 -52.5c-52 0 -100 10.667 -144 32s-81.667 50.166 -113 86.499s-55.833 78.333 -73.5 126s-26.5 97.5 -26.5 149.5c0 70 17 139 51 207c17.333 34 37.666 63.667 60.999 89s48.5 46.333 75.5 63s55.667 29.167 86 37.5s61.166 12.5 92.499 12.5z
M398.003 726.002c-24.667 0 -48.3359 -5.16699 -71.0029 -15.5s-42.5 -27 -59.5 -50s-30.667 -52.5 -41 -88.5s-15.5 -79.667 -15.5 -131c0 -54 5.5 -105.5 16.5 -154.5s26.833 -92 47.5 -129s45.834 -66.5 75.501 -88.5s62.834 -33 99.501 -33c26 0 50.167 5 72.5 15
s41.833 26.5 58.5 49.5s29.667 53.167 39 90.5s14 83.333 14 138c0 54 -5.33301 105.167 -16 153.5s-26 90.5 -46 126.5s-44.667 64.5 -74 85.5s-62.666 31.5 -99.999 31.5zM357.001 1145h152l157 -273h-25l-226 176l-190 -176h-24z" />
    <glyph glyph-name="otilde" unicode="&#xf5;" 
d="M423 780c52 0 100.336 -10.165 145.003 -30.498s83.334 -48 116.001 -83s58.167 -76 76.5 -123s27.5 -97.167 27.5 -150.5c0 -34.667 -4.16699 -68.834 -12.5 -102.501s-20.5 -68.167 -36.5 -103.5c-32.667 -70 -77.334 -122.5 -134.001 -157.5
s-120.334 -52.5 -191.001 -52.5c-52 0 -100 10.667 -144 32s-81.667 50.166 -113 86.499s-55.833 78.333 -73.5 126s-26.5 97.5 -26.5 149.5c0 70 17 139 51 207c17.333 34 37.666 63.667 60.999 89s48.5 46.333 75.5 63s55.667 29.167 86 37.5s61.166 12.5 92.499 12.5z
M398.003 726.002c-24.667 0 -48.3359 -5.16699 -71.0029 -15.5s-42.5 -27 -59.5 -50s-30.667 -52.5 -41 -88.5s-15.5 -79.667 -15.5 -131c0 -54 5.5 -105.5 16.5 -154.5s26.833 -92 47.5 -129s45.834 -66.5 75.501 -88.5s62.834 -33 99.501 -33c26 0 50.167 5 72.5 15
s41.833 26.5 58.5 49.5s29.667 53.167 39 90.5s14 83.333 14 138c0 54 -5.33301 105.167 -16 153.5s-26 90.5 -46 126.5s-44.667 64.5 -74 85.5s-62.666 31.5 -99.999 31.5zM159.001 907.002c1.33301 38 6.16699 70.498 14.5 97.498s19.333 49.167 33 66.5s29.667 30 48 38
s38.5 12 60.5 12c13.333 0 25.666 -1 36.999 -3s23.333 -5.5 36 -10.5s26.334 -12.167 41.001 -21.5l53 -35c22 -15.333 41.5 -26.666 58.5 -33.999s31.167 -11 42.5 -11c8.66699 0 17 1.66699 25 5s15.333 9.16602 22 17.499s12.667 20 18 35s10 34.167 14 57.5h26v-13
c0 -35.333 -4.66699 -65.5 -14 -90.5s-21.333 -45.833 -36 -62.5s-31.5 -29.167 -50.5 -37.5s-37.833 -12.833 -56.5 -13.5c-44 0 -98.333 22 -163 66l-43.5 28.5c-11 7 -20 12.167 -27 15.5s-13 5.33301 -18 6s-10.5 1 -16.5 1c-10 0 -18.5 -0.833008 -25.5 -2.5
s-13.5 -6.16699 -19.5 -13.5s-11.5 -18.666 -16.5 -33.999s-10.167 -36.666 -15.5 -63.999h-27z" />
    <glyph glyph-name="odieresis" unicode="&#xf6;" 
d="M423 780c52 0 100.336 -10.165 145.003 -30.498s83.334 -48 116.001 -83s58.167 -76 76.5 -123s27.5 -97.167 27.5 -150.5c0 -34.667 -4.16699 -68.834 -12.5 -102.501s-20.5 -68.167 -36.5 -103.5c-32.667 -70 -77.334 -122.5 -134.001 -157.5
s-120.334 -52.5 -191.001 -52.5c-52 0 -100 10.667 -144 32s-81.667 50.166 -113 86.499s-55.833 78.333 -73.5 126s-26.5 97.5 -26.5 149.5c0 70 17 139 51 207c17.333 34 37.666 63.667 60.999 89s48.5 46.333 75.5 63s55.667 29.167 86 37.5s61.166 12.5 92.499 12.5z
M398.003 726.002c-24.667 0 -48.3359 -5.16699 -71.0029 -15.5s-42.5 -27 -59.5 -50s-30.667 -52.5 -41 -88.5s-15.5 -79.667 -15.5 -131c0 -54 5.5 -105.5 16.5 -154.5s26.833 -92 47.5 -129s45.834 -66.5 75.501 -88.5s62.834 -33 99.501 -33c26 0 50.167 5 72.5 15
s41.833 26.5 58.5 49.5s29.667 53.167 39 90.5s14 83.333 14 138c0 54 -5.33301 105.167 -16 153.5s-26 90.5 -46 126.5s-44.667 64.5 -74 85.5s-62.666 31.5 -99.999 31.5zM568.001 1106c12.667 0 24.498 -2.33496 35.498 -7.00195s20.5 -11.167 28.5 -19.5
s14.333 -18 19 -29s7 -22.5 7 -34.5c0 -25.333 -8.66699 -46.666 -26 -63.999s-38.666 -26 -63.999 -26c-12 0 -23.5 2.33301 -34.5 7s-20.667 11 -29 19s-14.833 17.5 -19.5 28.5s-7 22.833 -7 35.5c0 24.667 8.83301 45.834 26.5 63.501s38.834 26.5 63.501 26.5z
M275.999 1106c12.667 0 24.5 -2.33398 35.5 -7.00098s20.667 -11.167 29 -19.5s14.833 -18 19.5 -29s7 -22.5 7 -34.5c0 -12.667 -2.33301 -24.5 -7 -35.5s-11.167 -20.5 -19.5 -28.5s-18 -14.333 -29 -19s-22.5 -7 -34.5 -7s-23.5 2.33301 -34.5 7s-20.667 11 -29 19
s-14.833 17.5 -19.5 28.5s-7 22.833 -7 35.5c0 24.667 8.66699 45.834 26 63.501s38.333 26.5 63 26.5z" />
    <glyph glyph-name="divide" unicode="&#xf7;" horiz-adv-x="930" 
d="M465 889c20 0 37 -7 51 -21s21 -31 21 -51s-7 -37 -21 -51s-31.333 -21 -52 -21c-20 0 -37 7 -51 21s-21 31 -21 51s7 37 21 51s31.333 21 52 21zM911 529h-892v68h892v-68zM465 376c20 0 37.167 -7.16699 51.5 -21.5s21.5 -31.166 21.5 -50.499
c0 -20 -7.16699 -37.167 -21.5 -51.5s-31.5 -21.5 -51.5 -21.5s-37.167 7.16699 -51.5 21.5s-21.5 31.5 -21.5 51.5c0 19.333 7 36.166 21 50.499s31.333 21.5 52 21.5z" />
    <glyph glyph-name="oslash" unicode="&#xf8;" 
d="M777 810l38.0049 -35.999l-112 -126c58.667 -73.333 88 -159.333 88 -258c0 -64.667 -16 -132 -48 -202s-76.333 -122.667 -133 -158s-120.334 -53 -191.001 -53c-22.667 0 -43.834 1.66699 -63.501 5s-38.834 8.66602 -57.501 15.999s-37.334 17 -56.001 29
s-38.334 26.667 -59.001 44l-112 -126l-39 35l117 132c-13.333 16.667 -25.5 36 -36.5 58s-20.333 44.667 -28 68s-13.5 46.833 -17.5 70.5s-6 46.167 -6 67.5c0 58.667 10.333 112.667 31 162s48.167 92 82.5 128s73.666 64 117.999 84s90.5 30 138.5 30
c45.333 0 86.333 -7.16699 123 -21.5s74.334 -37.833 113.001 -70.5zM582.005 595.001c-14 24 -27.833 44.332 -41.5 60.999s-27.5 30.167 -41.5 40.5s-28.833 17.666 -44.5 21.999s-32.5 6.5 -50.5 6.5c-26.667 0 -51.5 -5.16699 -74.5 -15.5s-43 -26.833 -60 -49.5
s-30.333 -52.167 -40 -88.5s-14.5 -80.166 -14.5 -131.499c0 -67.333 10.667 -139.666 32 -216.999zM272.005 169c14 -26 27.665 -47.5 40.998 -64.5s27 -30.667 41 -41s29 -17.5 45 -21.5s33.667 -6 53 -6c26.667 0 51.334 5 74.001 15s42.334 26.667 59.001 50
s29.667 53.833 39 91.5s14 84.167 14 139.5c0 67.333 -11 137 -33 209z" />
    <glyph glyph-name="ugrave" unicode="&#xf9;" 
d="M717 758l0.00390625 -459.001c0 -88 2 -142 6 -162c4 -19.333 10.667 -32.833 20 -40.5s20 -11.5 32 -11.5c16.667 0 36 4.66699 58 14l11 -29l-226 -93h-37v160c-32.667 -36 -60.834 -64.667 -84.501 -86s-45.167 -37.5 -64.5 -48.5s-37.5 -18 -54.5 -21
s-35.167 -4.5 -54.5 -4.5c-42.667 0 -79.667 12.167 -111 36.5s-52.666 55.833 -63.999 94.5c-12 38.667 -18 93.334 -18 164.001v338c0 22 -1.33301 40.333 -4 55s-8.5 26.667 -17.5 36s-21.833 16 -38.5 20s-39.334 6 -68.001 6v31h265v-507c0 -36 3.5 -65.333 10.5 -88
s16.333 -40.167 28 -52.5s25 -20.666 40 -24.999s30.833 -6.5 47.5 -6.5c23.333 0 50.166 7.33301 80.499 22s66.166 43 107.499 85v429c0 21.333 -1.83301 39.166 -5.5 53.499s-10 25.666 -19 33.999s-21.333 14.333 -37 18s-35.834 5.83398 -60.501 6.50098v31h258z
M254.004 1150h184l88 -286h-29z" />
    <glyph glyph-name="uacute" unicode="&#xfa;" 
d="M717 758l0.00390625 -459.001c0 -88 2 -142 6 -162c4 -19.333 10.667 -32.833 20 -40.5s20 -11.5 32 -11.5c16.667 0 36 4.66699 58 14l11 -29l-226 -93h-37v160c-32.667 -36 -60.834 -64.667 -84.501 -86s-45.167 -37.5 -64.5 -48.5s-37.5 -18 -54.5 -21
s-35.167 -4.5 -54.5 -4.5c-42.667 0 -79.667 12.167 -111 36.5s-52.666 55.833 -63.999 94.5c-12 38.667 -18 93.334 -18 164.001v338c0 22 -1.33301 40.333 -4 55s-8.5 26.667 -17.5 36s-21.833 16 -38.5 20s-39.334 6 -68.001 6v31h265v-507c0 -36 3.5 -65.333 10.5 -88
s16.333 -40.167 28 -52.5s25 -20.666 40 -24.999s30.833 -6.5 47.5 -6.5c23.333 0 50.166 7.33301 80.499 22s66.166 43 107.499 85v429c0 21.333 -1.83301 39.166 -5.5 53.499s-10 25.666 -19 33.999s-21.333 14.333 -37 18s-35.834 5.83398 -60.501 6.50098v31h258z
M578.004 1150l-244 -286h-28l87 286h185z" />
    <glyph glyph-name="ucircumflex" unicode="&#xfb;" 
d="M717 758l0.00390625 -459.001c0 -88 2 -142 6 -162c4 -19.333 10.667 -32.833 20 -40.5s20 -11.5 32 -11.5c16.667 0 36 4.66699 58 14l11 -29l-226 -93h-37v160c-32.667 -36 -60.834 -64.667 -84.501 -86s-45.167 -37.5 -64.5 -48.5s-37.5 -18 -54.5 -21
s-35.167 -4.5 -54.5 -4.5c-42.667 0 -79.667 12.167 -111 36.5s-52.666 55.833 -63.999 94.5c-12 38.667 -18 93.334 -18 164.001v338c0 22 -1.33301 40.333 -4 55s-8.5 26.667 -17.5 36s-21.833 16 -38.5 20s-39.334 6 -68.001 6v31h265v-507c0 -36 3.5 -65.333 10.5 -88
s16.333 -40.167 28 -52.5s25 -20.666 40 -24.999s30.833 -6.5 47.5 -6.5c23.333 0 50.166 7.33301 80.499 22s66.166 43 107.499 85v429c0 21.333 -1.83301 39.166 -5.5 53.499s-10 25.666 -19 33.999s-21.333 14.333 -37 18s-35.834 5.83398 -60.501 6.50098v31h258z
M350.004 1145h152l157 -273h-25l-226 176l-190 -176h-24z" />
    <glyph glyph-name="udieresis" unicode="&#xfc;" 
d="M717 758l0.00390625 -459.001c0 -88 2 -142 6 -162c4 -19.333 10.667 -32.833 20 -40.5s20 -11.5 32 -11.5c16.667 0 36 4.66699 58 14l11 -29l-226 -93h-37v160c-32.667 -36 -60.834 -64.667 -84.501 -86s-45.167 -37.5 -64.5 -48.5s-37.5 -18 -54.5 -21
s-35.167 -4.5 -54.5 -4.5c-42.667 0 -79.667 12.167 -111 36.5s-52.666 55.833 -63.999 94.5c-12 38.667 -18 93.334 -18 164.001v338c0 22 -1.33301 40.333 -4 55s-8.5 26.667 -17.5 36s-21.833 16 -38.5 20s-39.334 6 -68.001 6v31h265v-507c0 -36 3.5 -65.333 10.5 -88
s16.333 -40.167 28 -52.5s25 -20.666 40 -24.999s30.833 -6.5 47.5 -6.5c23.333 0 50.166 7.33301 80.499 22s66.166 43 107.499 85v429c0 21.333 -1.83301 39.166 -5.5 53.499s-10 25.666 -19 33.999s-21.333 14.333 -37 18s-35.834 5.83398 -60.501 6.50098v31h258z
M568.004 1106c12.667 0 24.498 -2.33496 35.498 -7.00195s20.5 -11.167 28.5 -19.5s14.333 -18 19 -29s7 -22.5 7 -34.5c0 -25.333 -8.66699 -46.666 -26 -63.999s-38.666 -26 -63.999 -26c-12 0 -23.5 2.33301 -34.5 7s-20.667 11 -29 19s-14.833 17.5 -19.5 28.5
s-7 22.833 -7 35.5c0 24.667 8.83301 45.834 26.5 63.501s38.834 26.5 63.501 26.5zM276.002 1106c12.667 0 24.5 -2.33398 35.5 -7.00098s20.667 -11.167 29 -19.5s14.833 -18 19.5 -29s7 -22.5 7 -34.5c0 -12.667 -2.33301 -24.5 -7 -35.5s-11.167 -20.5 -19.5 -28.5
s-18 -14.333 -29 -19s-22.5 -7 -34.5 -7s-23.5 2.33301 -34.5 7s-20.667 11 -29 19s-14.833 17.5 -19.5 28.5s-7 22.833 -7 35.5c0 24.667 8.66699 45.834 26 63.501s38.333 26.5 63 26.5z" />
    <glyph glyph-name="yacute" unicode="&#xfd;" 
d="M10 758l353.001 0.0078125v-31h-17c-25.333 0 -44.166 -5.33301 -56.499 -16s-18.5 -24 -18.5 -40c0 -22.667 9.33301 -52.667 28 -90l184 -382l170 419c9.33301 24 14 46.333 14 67c0 6 -0.833008 11.5 -2.5 16.5s-5.16699 9.33301 -10.5 13s-13 6.66699 -23 9
s-23.667 3.5 -41 3.5v31h247v-31c-13.333 -1.33301 -24.833 -3.33301 -34.5 -6s-18.5 -7.83398 -26.5 -15.501s-16 -18.834 -24 -33.501s-17 -34.334 -27 -59.001l-308 -756c-14.667 -36 -32.167 -68 -52.5 -96s-42 -51.333 -65 -70s-46.5 -32.834 -70.5 -42.501
s-47 -14.5 -69 -14.5c-16 0 -30.833 2.66699 -44.5 8s-25.334 12.166 -35.001 20.499s-17.334 18.166 -23.001 29.499s-8.5 23 -8.5 35c0 23.333 7.5 42 22.5 56s35.833 21 62.5 21c6 0 14.833 -1.66699 26.5 -5l36 -10.5l34 -10.5c10.333 -3.33301 16.833 -5 19.5 -5
c8 0 16.667 2 26 6s18.666 10.667 27.999 20s19 22.166 29 38.499s20 36.5 30 60.5l54 132l-272 571l-14 24.5c-6 10.333 -12.667 20.666 -20 30.999s-14.666 19.833 -21.999 28.5s-13.333 15 -18 19c-12 8 -32.333 15.667 -61 23v31zM605.001 1150.01l-244 -286h-28l87 286
h185z" />
    <glyph glyph-name="thorn" unicode="&#xfe;" 
d="M-2 1082l234.004 93.9971h31v-576c20 33.333 39.667 61.5 59 84.5s39 41.5 59 55.5s40.167 24.167 60.5 30.5s41.5 9.5 63.5 9.5c43.333 0 82.5 -9.83301 117.5 -29.5s64.833 -46.5 89.5 -80.5s43.667 -73.667 57 -119s20 -93.666 20 -144.999
c0 -57.333 -8.16699 -111.833 -24.5 -163.5s-39.5 -97.167 -69.5 -136.5s-66.333 -70.666 -109 -93.999s-90.334 -35 -143.001 -35c-18.667 0 -35.667 0.833008 -51 2.5s-30 5 -44 10s-27.833 11.833 -41.5 20.5s-28.167 20 -43.5 34v-231
c0 -27.333 0.833008 -48.666 2.5 -63.999s4.16699 -27.333 7.5 -36s7.66602 -14.834 12.999 -18.501s11.666 -7.5 18.999 -11.5c15.333 -8.66699 44 -13 86 -13v-31h-397v31l21 -1c21.333 -1.33301 41.333 1.33398 60 8.00098s32.667 19.667 42 39c6 12.667 9 46.667 9 102
v1116c0 29.333 -1 52.833 -3 70.5s-5.66699 31.167 -11 40.5s-12.333 15.5 -21 18.5s-19.334 4.5 -32.001 4.5c-14 0 -31 -4.33301 -51 -13zM263.004 267.997c0 -62.667 2.33496 -103.002 7.00195 -121.002c4 -16 10.833 -31.333 20.5 -46s21.834 -27.5 36.501 -38.5
s31.5 -19.833 50.5 -26.5s40.167 -10 63.5 -10c32 0 60.333 7.5 85 22.5s45.667 35.833 63 62.5s30.5 58.5 39.5 95.5s13.5 77.5 13.5 121.5c0 47.333 -4.83301 91.333 -14.5 132s-23.334 75.834 -41.001 105.501s-38.834 52.834 -63.501 69.501s-52.334 25 -83.001 25
c-26 0 -52.333 -6.66699 -79 -20c-19.333 -10 -52 -39.667 -98 -89v-283z" />
    <glyph glyph-name="ydieresis" unicode="&#xff;" 
d="M10 758l353.001 0.0078125v-31h-17c-25.333 0 -44.166 -5.33301 -56.499 -16s-18.5 -24 -18.5 -40c0 -22.667 9.33301 -52.667 28 -90l184 -382l170 419c9.33301 24 14 46.333 14 67c0 6 -0.833008 11.5 -2.5 16.5s-5.16699 9.33301 -10.5 13s-13 6.66699 -23 9
s-23.667 3.5 -41 3.5v31h247v-31c-13.333 -1.33301 -24.833 -3.33301 -34.5 -6s-18.5 -7.83398 -26.5 -15.501s-16 -18.834 -24 -33.501s-17 -34.334 -27 -59.001l-308 -756c-14.667 -36 -32.167 -68 -52.5 -96s-42 -51.333 -65 -70s-46.5 -32.834 -70.5 -42.501
s-47 -14.5 -69 -14.5c-16 0 -30.833 2.66699 -44.5 8s-25.334 12.166 -35.001 20.499s-17.334 18.166 -23.001 29.499s-8.5 23 -8.5 35c0 23.333 7.5 42 22.5 56s35.833 21 62.5 21c6 0 14.833 -1.66699 26.5 -5l36 -10.5l34 -10.5c10.333 -3.33301 16.833 -5 19.5 -5
c8 0 16.667 2 26 6s18.666 10.667 27.999 20s19 22.166 29 38.499s20 36.5 30 60.5l54 132l-272 571l-14 24.5c-6 10.333 -12.667 20.666 -20 30.999s-14.666 19.833 -21.999 28.5s-13.333 15 -18 19c-12 8 -32.333 15.667 -61 23v31zM599.001 1106.01
c12.667 0 24.498 -2.33496 35.498 -7.00195s20.5 -11.167 28.5 -19.5s14.333 -18 19 -29s7 -22.5 7 -34.5c0 -25.333 -8.66699 -46.666 -26 -63.999s-38.666 -26 -63.999 -26c-12 0 -23.5 2.33301 -34.5 7s-20.667 11 -29 19s-14.833 17.5 -19.5 28.5s-7 22.833 -7 35.5
c0 24.667 8.83301 45.834 26.5 63.501s38.834 26.5 63.501 26.5zM306.999 1106.01c12.667 0 24.5 -2.33398 35.5 -7.00098s20.667 -11.167 29 -19.5s14.833 -18 19.5 -29s7 -22.5 7 -34.5c0 -12.667 -2.33301 -24.5 -7 -35.5s-11.167 -20.5 -19.5 -28.5s-18 -14.333 -29 -19
s-22.5 -7 -34.5 -7s-23.5 2.33301 -34.5 7s-20.667 11 -29 19s-14.833 17.5 -19.5 28.5s-7 22.833 -7 35.5c0 24.667 8.66699 45.834 26 63.501s38.333 26.5 63 26.5z" />
    <glyph glyph-name="dotlessi" unicode="&#x131;" horiz-adv-x="471" 
d="M313 780l-0.00195312 -608.997c0 -46.667 3.66699 -78.334 11 -95.001c4 -8 8.33301 -14.833 13 -20.5s10.834 -10.334 18.501 -14.001s17.334 -6.5 29.001 -8.5s26.5 -3 44.5 -3v-30h-368v30c37.333 0 62.333 3.33301 75 10s22.667 18.667 30 36
c7.33301 18 11 49.667 11 95v292c0 83.333 -2.33301 136.666 -7 159.999c-4 17.333 -10.167 29.5 -18.5 36.5s-19.833 10.5 -34.5 10.5c-16 0 -34.667 -4.33301 -56 -13l-11 30l228 93h35z" />
    <glyph glyph-name="OE" unicode="&#x152;" horiz-adv-x="1506" 
d="M913 1060l-0.00292969 -442h151c64 0 109 13 135 39s39 67 39 123h32v-390h-32c-2.66699 34 -7 61.667 -13 83s-15.5 38.333 -28.5 51s-30.167 21.334 -51.5 26.001s-48.333 7 -81 7h-151v-371c0 -30.667 1.16699 -54.334 3.5 -71.001s7 -28.834 14 -36.501
s17 -12.167 30 -13.5s30.167 -2 51.5 -2h86c34.667 0 62.834 0.666992 84.501 2s40.167 4 55.5 8s28.833 9.83301 40.5 17.5s24.834 18.167 39.501 31.5c40.667 36.667 76.334 89.667 107.001 159h33l-89 -281h-417c-71.333 0 -138 -2.16699 -200 -6.5
s-123.333 -6.5 -184 -6.5c-67.333 0 -131.5 13.333 -192.5 40s-114.833 64.834 -161.5 114.501s-83.667 109.834 -111 180.501s-41 149.667 -41 237c0 141.333 39 266.666 117 375.999c92.667 130.667 228.334 196 407.001 196c30.667 0 58.667 -0.5 84 -1.5
s49.833 -2.16699 73.5 -3.5s47.5 -2.5 71.5 -3.5s50 -1.5 78 -1.5h466v-246h-17c-12.667 64 -24.334 105 -35.001 123c-14 22 -35.333 39 -64 51c-18.667 7.33301 -58 11 -118 11h-212zM753.997 862c0 36 -1.16699 65.167 -3.5 87.5s-6 40.333 -11 54s-11.167 24 -18.5 31
s-16 13.5 -26 19.5c-28 16 -63 24 -105 24c-50.667 0 -96.834 -11.167 -138.501 -33.5s-77.167 -55.5 -106.5 -99.5s-52.166 -98.833 -68.499 -164.5s-24.5 -141.834 -24.5 -228.501c0 -71.333 7 -137.833 21 -199.5s35 -115.167 63 -160.5s62.833 -81.166 104.5 -107.499
s90.167 -39.5 145.5 -39.5c43.333 0 77.333 7.16699 102 21.5s41.667 34.166 51 59.499c10 24.667 15 76.334 15 155.001v581z" />
    <glyph glyph-name="oe" unicode="&#x153;" horiz-adv-x="1223" 
d="M714 474l-1.99805 -32.0029c0 -50.667 6 -96.334 18 -137.001s28.5 -75.167 49.5 -103.5s45.5 -50.166 73.5 -65.499s57.667 -23 89 -23c44 0 83 14.167 117 42.5s61 74.5 81 138.5l27 -14c-10 -53.333 -23.833 -99.166 -41.5 -137.499s-38.5 -69.666 -62.5 -93.999
s-51 -42.333 -81 -54s-62 -17.5 -96 -17.5c-27.333 0 -52.333 3.5 -75 10.5s-43.334 16.5 -62.001 28.5s-35.167 26.167 -49.5 42.5s-26.5 33.5 -36.5 51.5c-68.667 -88.667 -156.334 -133 -263.001 -133c-48 0 -93 9.16699 -135 27.5s-78.5 44.5 -109.5 78.5
s-55.5 75 -73.5 123s-27 101.333 -27 160c0 63.333 9.33301 120.5 28 171.5s43.834 94.5 75.501 130.5s68.667 63.667 111 83s87.5 29 135.5 29c60 0 111.5 -12.167 154.5 -36.5s77.5 -55.833 103.5 -94.5c16 23.333 32.5 43.333 49.5 60s34.833 30.334 53.5 41.001
s38.667 18.5 60 23.5s45 7.5 71 7.5c39.333 0 75.666 -6.66699 108.999 -20s62 -33 86 -59s42.667 -58 56 -96s20 -82 20 -132h-454zM375.002 733.997c-19.333 0 -38.832 -4.66699 -58.499 -14s-37.334 -25 -53.001 -47s-28.5 -51.5 -38.5 -88.5s-15 -83.167 -15 -138.5
s4.66699 -107.666 14 -156.999s23 -92.833 41 -130.5s40.167 -67.5 66.5 -89.5s56.166 -33 89.499 -33c24 0 46.333 4.66699 67 14s38.667 24.666 54 45.999s27.333 49.833 36 85.5s13 79.5 13 131.5c0 63.333 -4.66699 120.833 -14 172.5s-23.166 96 -41.499 133
s-41 65.5 -68 85.5s-57.833 30 -92.5 30zM1004 527.997c0 26 -3 51 -9 75s-15.167 45 -27.5 63s-27.5 32.333 -45.5 43s-39 16 -63 16c-18 0 -35.333 -4.16699 -52 -12.5s-31.667 -20.666 -45 -36.999s-24.333 -36.833 -33 -61.5s-13.667 -53.334 -15 -86.001h290z" />
    <glyph glyph-name="Scaron" unicode="&#x160;" horiz-adv-x="942" 
d="M777 1147l-0.00390625 -388.001h-31c-5.33301 37.333 -12.333 70.5 -21 99.5s-19.5 55 -32.5 78s-28.5 43 -46.5 60s-39 32.167 -63 45.5c-47.333 26 -96.333 39 -147 39c-28 0 -54.167 -4.83301 -78.5 -14.5s-45.333 -22.5 -63 -38.5s-31.667 -34.333 -42 -55
s-15.5 -42 -15.5 -64c0 -20 3.83301 -39 11.5 -57s22 -36.833 43 -56.5s49.5 -41.167 85.5 -64.5s82.667 -50.333 140 -81c104 -55.333 175.333 -98.333 214 -129c38.667 -30 68.334 -65.5 89.001 -106.5s31 -83.833 31 -128.5c0 -42 -8.66699 -81.833 -26 -119.5
s-41.666 -70.834 -72.999 -99.501s-68.666 -51.334 -111.999 -68.001s-90.666 -25 -141.999 -25c-16.667 0 -30.5 0.166992 -41.5 0.5s-23 1.66602 -36 3.99902s-28.667 6.16602 -47 11.499l-74.5 22l-65 19c-16.667 4.66699 -28.667 7 -36 7c-14 0 -25 -4.16699 -33 -12.5
s-14 -25.5 -18 -51.5h-30v385h30c7.33301 -41.333 15.5 -76.666 24.5 -105.999s20 -54.666 33 -75.999s28.5 -39.833 46.5 -55.5s39.667 -30.167 65 -43.5c48.667 -26 103.334 -39 164.001 -39c34.667 0 66 5 94 15s51.5 23.333 70.5 40s33.667 36.167 44 58.5
s15.5 45.5 15.5 69.5c0 28 -7.66699 56 -23 84s-39 54.333 -71 79c-4 2.66699 -14.667 9.16699 -32 19.5l-63 37.5l-80.5 48l-84 50.5l-73.5 45.5c-22 14 -38 25 -48 33c-40 32 -70.5 67.167 -91.5 105.5s-31.5 80.833 -31.5 127.5c0 40.667 8.33301 78.834 25 114.501
s39.5 66.834 68.5 93.501s63.5 47.834 103.5 63.501s83.667 23.5 131 23.5c58.667 0 122 -14.667 190 -44c32 -13.333 53.667 -20 65 -20c14 0 25.667 4.16699 35 12.5s16.666 25.5 21.999 51.5h31zM531.996 1210h-152l-157 273h25l226 -175l189 175h25z" />
    <glyph glyph-name="scaron" unicode="&#x161;" horiz-adv-x="659" 
d="M543 780l0.000976562 -258.005h-28c-10.667 40.667 -22.667 74.5 -36 101.5s-28.5 48.5 -45.5 64.5s-35.833 27.167 -56.5 33.5s-43.334 9.5 -68.001 9.5c-19.333 0 -36.833 -2.83301 -52.5 -8.5s-29.167 -13 -40.5 -22s-20.166 -19.5 -26.499 -31.5s-9.5 -24 -9.5 -36
c0 -15.333 1.83301 -29.5 5.5 -42.5s10.334 -25.5 20.001 -37.5s23 -23.833 40 -35.5s38.833 -23.834 65.5 -36.501l121 -58c56.667 -27.333 98.834 -59.166 126.501 -95.499s41.5 -76.5 41.5 -120.5c0 -34.667 -7.33301 -66.167 -22 -94.5s-33.834 -52.5 -57.501 -72.5
s-50.667 -35.5 -81 -46.5s-61.166 -16.5 -92.499 -16.5c-48 0 -101 8.33301 -159 25c-20 5.33301 -35 8 -45 8c-13.333 0 -23.333 -7.33301 -30 -22h-27v271h27c7.33301 -39.333 18.666 -73.5 33.999 -102.5s33.5 -53.167 54.5 -72.5s44 -33.833 69 -43.5
s50.833 -14.5 77.5 -14.5c18.667 0 36 3 52 9s29.667 14.167 41 24.5s20.166 22.333 26.499 36s9.5 28.5 9.5 44.5c0 16.667 -2 31.834 -6 45.501s-11.5 26.834 -22.5 39.501s-25.833 25.334 -44.5 38.001s-42.334 26.667 -71.001 42l-108 56
c-30 15.333 -54.167 30.333 -72.5 45s-32.666 30 -42.999 46s-17.333 32.833 -21 50.5s-5.5 37.167 -5.5 58.5c0 30.667 5.66699 59.334 17 86.001s27.166 49.834 47.499 69.501s44.5 35.167 72.5 46.5s59 17 93 17c10 0 23.167 -1.66699 39.5 -5s33 -7 50 -11l46 -11
c13.667 -3.33301 23.167 -5 28.5 -5c8.66699 0 15.5 2 20.5 6s10.833 12.667 17.5 26h28zM406.001 871.995h-152l-157 273h25l226 -175l189 175h25z" />
    <glyph glyph-name="Ydieresis" unicode="&#x178;" horiz-adv-x="1223" 
d="M807 1121l391 0.000976562v-30h-21c-30 0 -63.333 -14.333 -100 -43s-77.334 -77.667 -122.001 -147l-270 -425v-282c0 -68.667 7.66699 -111.667 23 -129c20.667 -22.667 53.667 -34 99 -34h37v-31h-477v31h40c47.333 0 81 14.333 101 43c12 16.667 18 56.667 18 120
v266l-308 470c-18.667 28 -34.334 50.667 -47.001 68s-24.5 31.333 -35.5 42s-22 19 -33 25s-23.833 12 -38.5 18c-5.33301 2 -12 3.83301 -20 5.5s-17.333 2.5 -28 2.5v30h479v-30h-24c-13.333 0 -26.166 -1.5 -38.499 -4.5s-23.5 -7.66699 -33.5 -14s-18 -14 -24 -23
s-9 -19.5 -9 -31.5c0 -10.667 4.33301 -24.834 13 -42.501s21.334 -39.167 38.001 -64.5l234 -362l220 346c32.667 51.333 49 90 49 116c0 22.667 -8 41.667 -24 57s-45.667 23 -89 23v30zM774 1413c12.667 0 24.498 -2.33496 35.498 -7.00195s20.5 -11.167 28.5 -19.5
s14.333 -18 19 -29s7 -22.5 7 -34.5c0 -25.333 -8.66699 -46.666 -26 -63.999s-38.666 -26 -63.999 -26c-12 0 -23.5 2.33301 -34.5 7s-20.667 11 -29 19s-14.833 17.5 -19.5 28.5s-7 22.833 -7 35.5c0 24.667 8.83301 45.834 26.5 63.501s38.834 26.5 63.501 26.5z
M481.998 1413c12.667 0 24.5 -2.33398 35.5 -7.00098s20.667 -11.167 29 -19.5s14.833 -18 19.5 -29s7 -22.5 7 -34.5c0 -12.667 -2.33301 -24.5 -7 -35.5s-11.167 -20.5 -19.5 -28.5s-18 -14.333 -29 -19s-22.5 -7 -34.5 -7s-23.5 2.33301 -34.5 7s-20.667 11 -29 19
s-14.833 17.5 -19.5 28.5s-7 22.833 -7 35.5c0 24.667 8.66699 45.834 26 63.501s38.333 26.5 63 26.5z" />
    <glyph glyph-name="Zcaron" unicode="&#x17d;" horiz-adv-x="1035" 
d="M974 1121l-737 -1053h460c35.333 0 66.166 3.33301 92.499 10s49.833 18.667 70.5 36s38.834 41.166 54.501 71.499s30.834 69.166 45.501 116.499l27 -5l-52 -297h-913v31l719 1023h-359c-45.333 0 -81.333 -3.33301 -108 -10s-47.834 -18.334 -63.501 -35.001
s-27.5 -38.667 -35.5 -66s-15.333 -61.333 -22 -102h-31l23 280h829zM607 1209h-152l-157 273h25l226 -175l189 175h25z" />
    <glyph glyph-name="zcaron" unicode="&#x17e;" horiz-adv-x="752" 
d="M711 232l-0.00292969 -232.001h-677v30l503 670h-248c-27.333 0 -49.166 -0.833008 -65.499 -2.5s-29.5 -4.33398 -39.5 -8.00098s-18 -8.66699 -24 -15s-11.667 -14.5 -17 -24.5c-7.33301 -13.333 -13.166 -28.666 -17.499 -45.999s-7.16602 -36.333 -8.49902 -57h-33
v211h640v-31l-507 -672h276c30 0 54.333 1 73 3s34 5.5 46 10.5s21.5 11.833 28.5 20.5s13.833 19.334 20.5 32.001c8.66699 16 16 53 22 111h28zM465.997 871.999h-152l-157 273h25l226 -175l189 175h25z" />
    <glyph glyph-name="florin" unicode="&#x192;" 
d="M715 724l-14.0039 -55.0039h-144c-14.667 -74.667 -33.667 -160.334 -57 -257.001s-51.666 -206 -84.999 -328c-23.333 -84.667 -47.333 -155.167 -72 -211.5s-50 -101.5 -76 -135.5s-52.667 -58 -80 -72s-55.333 -21 -84 -21c-32 0 -56.833 8.33301 -74.5 25
s-26.5 37 -26.5 61c0 22 6.5 39.833 19.5 53.5s27.5 20.5 43.5 20.5c14.667 0 27.334 -5 38.001 -15s16 -20.333 16 -31c0 -11.333 -3.33301 -21.166 -10 -29.499s-10 -14.166 -10 -17.499c0 -4.66699 2 -8.83398 6 -12.501s9 -5.5 15 -5.5c11.333 0 22.5 2.83301 33.5 8.5
s21.833 16.167 32.5 31.5s21.334 36.5 32.001 63.5s21 61.833 31 104.5c3.33301 14 5.83301 25.5 7.5 34.5l5.5 28.5c2 10 4.16699 21.5 6.5 34.5s5.83301 30.333 10.5 52l17.5 81.5l27.5 122.5l41 175l57 239.5h-147l13 55c28.667 1.33301 51 2.83301 67 4.5s28.5 4 37.5 7
s15.667 6.5 20 10.5s8.83301 9.33301 13.5 16c14.667 20 31.334 57 50.001 111c20 60 39.5 108 58.5 144s38 63.667 57 83s38.5 32 58.5 38s41 9 63 9c34 0 61.333 -9.16699 82 -27.5s31 -40.166 31 -65.499c0 -19.333 -5.5 -34.666 -16.5 -45.999s-24.167 -17 -39.5 -17
c-14.667 0 -27 4.83301 -37 14.5s-15 20.167 -15 31.5c0 8.66699 3 18.167 9 28.5s9 17.833 9 22.5c0 14 -9.66699 21 -29 21c-24 0 -43 -9.16699 -57 -27.5s-25.5 -44.166 -34.5 -77.499s-16.833 -73.666 -23.5 -120.999s-14.667 -100.333 -24 -159h147z" />
    <glyph glyph-name="circumflex" unicode="&#x2c6;" horiz-adv-x="564" 
d="M206 1145h152l157 -273h-25l-226 176l-190 -176h-24z" />
    <glyph glyph-name="caron" unicode="&#x2c7;" horiz-adv-x="564" 
d="M359 872h-152l-157 273h25l226 -175l189 175h25z" />
    <glyph glyph-name="ring" unicode="&#x2da;" horiz-adv-x="564" 
d="M282 1178c21.333 0 41.668 -4.16699 61.001 -12.5s36.166 -19.833 50.499 -34.5s25.833 -31.5 34.5 -50.5s13 -39.167 13 -60.5c0 -22 -4.16699 -42.667 -12.5 -62s-19.833 -36.166 -34.5 -50.499s-31.5 -25.666 -50.5 -33.999s-39.5 -12.5 -61.5 -12.5
s-42.5 4.16699 -61.5 12.5s-35.667 19.666 -50 33.999s-25.666 31.166 -33.999 50.499s-12.5 40 -12.5 62c0 21.333 4.16699 41.5 12.5 60.5s19.666 35.833 33.999 50.5s31 26.167 50 34.5s39.5 12.5 61.5 12.5zM282.002 1121c-14 0 -27.167 -2.66699 -39.5 -8
s-23 -12.5 -32 -21.5s-16.167 -19.667 -21.5 -32s-8 -25.5 -8 -39.5s2.66699 -27.167 8 -39.5s12.5 -23 21.5 -32s19.667 -16.167 32 -21.5s25.5 -8 39.5 -8s27.167 2.66699 39.5 8s23 12.5 32 21.5s16.167 19.667 21.5 32s8 25.5 8 39.5s-2.66699 27.167 -8 39.5
s-12.5 23 -21.5 32s-19.667 16.167 -32 21.5s-25.5 8 -39.5 8z" />
    <glyph glyph-name="tilde" unicode="&#x2dc;" horiz-adv-x="564" 
d="M18 907c1.33301 38 6.16699 70.498 14.5 97.498s19.333 49.167 33 66.5s29.667 30 48 38s38.5 12 60.5 12c13.333 0 25.666 -1 36.999 -3s23.333 -5.5 36 -10.5s26.334 -12.167 41.001 -21.5l53 -35c22 -15.333 41.5 -26.666 58.5 -33.999s31.167 -11 42.5 -11
c8.66699 0 17 1.66699 25 5s15.333 9.16602 22 17.499s12.667 20 18 35s10 34.167 14 57.5h26v-13c0 -35.333 -4.66699 -65.5 -14 -90.5s-21.333 -45.833 -36 -62.5s-31.5 -29.167 -50.5 -37.5s-37.833 -12.833 -56.5 -13.5c-44 0 -98.333 22 -163 66l-43.5 28.5
c-11 7 -20 12.167 -27 15.5s-13 5.33301 -18 6s-10.5 1 -16.5 1c-10 0 -18.5 -0.833008 -25.5 -2.5s-13.5 -6.16699 -19.5 -13.5s-11.5 -18.666 -16.5 -33.999s-10.167 -36.666 -15.5 -63.999h-27z" />
    <glyph glyph-name="danda" unicode="&#x964;" horiz-adv-x="406" 
d="M258 1114v-1020l-80 -80v1024z" />
    <glyph glyph-name="doubledanda" unicode="&#x965;" horiz-adv-x="618" 
d="M258 1114v-1020l-80 -80v1024zM438 1114v-1020l-80 -80v1024z" />
    <glyph glyph-name="bn_candrabindu" unicode="&#x981;" horiz-adv-x="0" 
d="M162 1464c0 -28 -2.33301 -55.665 -7 -82.998s-13.167 -51.833 -25.5 -73.5s-29 -39.167 -50 -52.5s-47.5 -20 -79.5 -20c-32.667 0 -62.334 6 -89.001 18s-50.667 27.833 -72 47.5s-40.166 41.667 -56.499 66s-30.5 49 -42.5 74s-21.667 49 -29 72
s-12.666 42.5 -15.999 58.5l49 -25c18.667 -46.667 38.834 -83.834 60.501 -111.501s43 -48.834 64 -63.501s40.833 -24.334 59.5 -29.001s34.667 -7 48 -7c22 0 42.667 4.83301 62 14.5s35.666 22.334 48.999 38.001s23.166 33.5 29.499 53.5s7.83301 40.667 4.5 62z
M-43 1595c11.333 0 21.667 -2.33105 31 -6.99805s17.333 -11 24 -19s11.834 -17 15.501 -27s5.5 -20.333 5.5 -31c0 -12 -2.5 -23 -7.5 -33s-11.333 -18.333 -19 -25s-16.334 -11.834 -26.001 -15.501s-19.5 -5.5 -29.5 -5.5c-25.333 0 -44.333 8.66699 -57 26
s-19 36.666 -19 57.999c0 22.667 7 41.5 21 56.5s34.333 22.5 61 22.5z" />
    <glyph glyph-name="bn_anusvara" unicode="&#x982;" horiz-adv-x="682" 
d="M596 934c0 -37.333 -7.16895 -72 -21.502 -104s-33 -59.5 -56 -82.5s-49 -41 -78 -54s-57.833 -19.5 -86.5 -19.5c-27.333 0 -52.666 5 -75.999 15s-43.833 23.833 -61.5 41.5s-31.5 38.5 -41.5 62.5s-15 50.333 -15 79c0 34 6.16699 66.333 18.5 97s29.333 57.667 51 81
s47.334 41.833 77.001 55.5s61.834 20.5 96.501 20.5c28 0 53.667 -4.83301 77 -14.5s43.666 -23 60.999 -40s30.833 -37.333 40.5 -61s14.5 -49.167 14.5 -76.5zM675.998 -63l-111 130.497c-38.667 43.667 -79.167 86.5 -121.5 128.5s-87.166 82.333 -134.499 121
s-97 74.334 -149 107.001l57 115c22.667 -13.333 48.667 -34 78 -62s59.833 -59.667 91.5 -95s63 -72.333 94 -111l86 -111c26.333 -35.333 49.166 -67.166 68.499 -95.499s33 -49.166 41 -62.499v-65zM509.998 955.997c0 12.667 -2.16699 24.833 -6.5 36.5
s-10.166 22 -17.499 31s-16.333 16.167 -27 21.5s-22.334 8 -35.001 8c-25.333 0 -48.833 -7.83301 -70.5 -23.5s-40.5 -34.334 -56.5 -56.001s-28.5 -43.667 -37.5 -66s-13.5 -40.166 -13.5 -53.499c0 -28.667 7.83301 -52.5 23.5 -71.5s35.834 -28.5 60.501 -28.5
c20.667 0 41.667 6.5 63 19.5s40.666 29.5 57.999 49.5s31.5 41.833 42.5 65.5s16.5 46.167 16.5 67.5z" />
    <glyph glyph-name="bn_visarga" unicode="&#x983;" horiz-adv-x="682" 
d="M596 934c0 -37.333 -7.16895 -72 -21.502 -104s-33 -59.5 -56 -82.5s-49 -41 -78 -54s-57.833 -19.5 -86.5 -19.5c-27.333 0 -52.666 5 -75.999 15s-43.833 23.833 -61.5 41.5s-31.5 38.5 -41.5 62.5s-15 50.333 -15 79c0 34 6.16699 66.333 18.5 97s29.333 57.667 51 81
s47.334 41.833 77.001 55.5s61.834 20.5 96.501 20.5c28 0 53.667 -4.83301 77 -14.5s43.666 -23 60.999 -40s30.833 -37.333 40.5 -61s14.5 -49.167 14.5 -76.5zM595.998 369c0 -37.333 -7.16895 -71.998 -21.502 -103.998s-33 -59.5 -56 -82.5s-49 -41 -78 -54
s-57.833 -19.5 -86.5 -19.5c-27.333 0 -52.666 4.83301 -75.999 14.5s-43.833 23.167 -61.5 40.5s-31.5 38.166 -41.5 62.499s-15 51.166 -15 80.499c0 33.333 6.16699 65.333 18.5 96s29.333 57.667 51 81s47.334 42 77.001 56s61.834 21 96.501 21
c28 0 53.667 -4.83301 77 -14.5s43.666 -23 60.999 -40s30.833 -37.333 40.5 -61s14.5 -49.167 14.5 -76.5zM509.996 956.002c0 12.667 -2.16699 24.833 -6.5 36.5s-10.166 22 -17.499 31s-16.333 16.167 -27 21.5s-22.334 8 -35.001 8
c-25.333 0 -48.833 -7.83301 -70.5 -23.5s-40.5 -34.334 -56.5 -56.001s-28.5 -43.667 -37.5 -66s-13.5 -40.166 -13.5 -53.499c0 -28.667 7.83301 -52.5 23.5 -71.5s35.834 -28.5 60.501 -28.5c20.667 0 41.667 6.5 63 19.5s40.666 29.5 57.999 49.5s31.5 41.833 42.5 65.5
s16.5 46.167 16.5 67.5zM509.996 389.001c0 12.667 -2.16699 25 -6.5 37s-10.166 22.5 -17.499 31.5s-16.333 16.167 -27 21.5s-22.334 8 -35.001 8c-25.333 0 -48.833 -8 -70.5 -24s-40.5 -34.667 -56.5 -56s-28.5 -43.166 -37.5 -65.499s-13.5 -39.833 -13.5 -52.5
c0 -30 7.83301 -54.333 23.5 -73s35.834 -28 60.501 -28c20.667 0 41.667 6.5 63 19.5s40.666 29.5 57.999 49.5s31.5 41.667 42.5 65s16.5 45.666 16.5 66.999z" />
    <glyph glyph-name="bn_a" unicode="&#x985;" horiz-adv-x="1220" 
d="M1345 1047l-204.999 0.00390625v-1045l-45 45c-0.666992 40 -5.33398 79.167 -14.001 117.5s-20.834 75 -36.501 110s-35 67.5 -58 97.5s-49.167 56.333 -78.5 79c-29.333 -76 -70 -130.5 -122 -163.5s-111 -49.5 -177 -49.5c-53.333 0 -102.5 10.167 -147.5 30.5
s-86.167 47.666 -123.5 81.999s-70.833 74.666 -100.5 120.999s-56 95.5 -79 147.5s-43 105.5 -60 160.5s-31.167 108.5 -42.5 160.5l47 -18c28 -99.333 61.333 -183.833 100 -253.5s79.834 -126.334 123.501 -170.001s88.334 -75.5 134.001 -95.5s89.5 -30 131.5 -30
c43.333 0 81.333 7.16699 114 21.5s60 33.166 82 56.499s38.5 49.666 49.5 78.999s16.5 58.666 16.5 87.999c0 25.333 -4.5 49.833 -13.5 73.5s-21.167 44.5 -36.5 62.5s-33.333 32.5 -54 43.5s-43 16.5 -67 16.5c-9.33301 0 -19 -1 -29 -3c14 -24 21 -49.333 21 -76
c0 -16 -2.66699 -31.5 -8 -46.5s-13.5 -28.167 -24.5 -39.5s-24.5 -20.333 -40.5 -27s-34.333 -10 -55 -10c-18 0 -35.667 3.5 -53 10.5s-33 16.833 -47 29.5s-25.333 27.834 -34 45.501s-13 37.167 -13 58.5c0 20 3.66699 39.167 11 57.5s17.166 35.166 29.499 50.499
s26.833 28.833 43.5 40.5s34.334 20.834 53.001 27.501c-10 12.667 -21.333 25.834 -34 39.501s-25.834 26 -39.501 37s-27.167 20.167 -40.5 27.5s-26 11 -38 11h-330l-55 75h1290zM1060 1047h-526.998l65 -109h14c30 0 61.5 -6.5 94.5 -19.5s64 -33.333 93 -61
s54.333 -63.167 76 -106.5s36.5 -95 44.5 -155c15.333 -18.667 29.666 -38.5 42.999 -59.5s25.666 -42 36.999 -63l32 -60.5l28 -53v687z" />
    <glyph glyph-name="bn_aa" unicode="&#x986;" horiz-adv-x="1570" 
d="M1690 1047l-200.001 0.00292969v-1049l-80 72v807c0 8.66699 -4.33301 22 -13 40s-19.167 36.333 -31.5 55s-25.666 35.334 -39.999 50.001s-27.166 23 -38.499 25h-146v-1045l-45 45c-0.666992 40 -5.33398 79.167 -14.001 117.5s-20.834 74.833 -36.501 109.5
s-35 67 -58 97s-49.5 56.667 -79.5 80c-29.333 -76 -70 -130.5 -122 -163.5s-111 -49.5 -177 -49.5c-53.333 0 -102.5 10.167 -147.5 30.5s-86.167 47.666 -123.5 81.999s-70.833 74.666 -100.5 120.999s-56 95.5 -79 147.5s-43 105.5 -60 160.5s-31.167 108.5 -42.5 160.5
l47 -18c28 -99.333 61.333 -183.833 100 -253.5s79.834 -126.334 123.501 -170.001s88.334 -75.5 134.001 -95.5s89.5 -30 131.5 -30c43.333 0 81.333 7.16699 114 21.5s60 33.166 82 56.499s38.5 49.666 49.5 78.999s16.5 58.666 16.5 87.999
c0 25.333 -4.5 49.833 -13.5 73.5s-21.167 44.5 -36.5 62.5s-33.333 32.5 -54 43.5s-43 16.5 -67 16.5c-9.33301 0 -19 -1 -29 -3c14 -24 21 -49.333 21 -76c0 -16 -2.66699 -31.5 -8 -46.5s-13.5 -28.167 -24.5 -39.5s-24.5 -20.333 -40.5 -27s-34.333 -10 -55 -10
c-18 0 -35.667 3.5 -53 10.5s-33 16.833 -47 29.5s-25.333 27.834 -34 45.501s-13 37.167 -13 58.5c0 20 3.66699 39.167 11 57.5s17.166 35.166 29.499 50.499s26.833 28.833 43.5 40.5s34.334 20.834 53.001 27.501c-10 12.667 -21.333 25.834 -34 39.501
s-25.834 26 -39.501 37s-27.167 20.167 -40.5 27.5s-26 11 -38 11h-330l-55 75h1275c18.667 -4.66699 34.334 -11 47.001 -19s24.167 -18.167 34.5 -30.5s20.666 -27.5 30.999 -45.5l36.5 -64v356c13.333 -10 23.333 -19.167 30 -27.5s12 -19 16 -32
s7.66699 -30.167 11 -51.5s8.33301 -50 15 -86h144zM1061 1047h-527.999l65 -109h14c30 0 61.5 -6.5 94.5 -19.5s64 -33.333 93 -61s54.333 -63.167 76 -106.5s36.5 -95 44.5 -155c15.333 -18.667 29.666 -38.5 42.999 -59.5s25.833 -42 37.5 -63l32.5 -60.5l28 -53v687z
" />
    <glyph glyph-name="bn_i" unicode="&#x987;" horiz-adv-x="910" 
d="M794 1211c0 -12.667 -1.83594 -26.8369 -5.50293 -42.5039s-9.5 -31.167 -17.5 -46.5h209l55 -75h-596l39 -82c54 0 102.667 -9.16699 146 -27.5s80.5 -42.333 111.5 -72s54.833 -63.5 71.5 -101.5s25 -77 25 -117c0 -38 -6.33301 -75.667 -19 -113
s-33 -72.166 -61 -104.499s-64.5 -61.5 -109.5 -87.5s-99.833 -47 -164.5 -63c94.667 -62.667 177.667 -124.167 249 -184.5s135 -120.5 191 -180.5v-68c-52 48 -105 94.333 -159 139s-108.167 84.5 -162.5 119.5s-108.5 63.833 -162.5 86.5s-107 36 -159 40l-144 203
c40.667 -12 79 -20.833 115 -26.5s70 -8.5 102 -8.5c68 0 126.667 10.333 176 31s90 46 122 76s55.667 62 71 96s23 64.667 23 92c0 56.667 -17.667 100.5 -53 131.5s-85.333 46.5 -150 46.5c-6.66699 0 -13.334 -0.166992 -20.001 -0.5s-13.667 -0.833008 -21 -1.5
c0.666992 -5.33301 1 -10.166 1 -14.499v-14.5c0 -34 -5.16699 -64.667 -15.5 -92s-23.833 -50.5 -40.5 -69.5s-35.667 -33.5 -57 -43.5s-42.666 -15 -63.999 -15c-18.667 0 -35.667 3.16699 -51 9.5s-28.666 14.833 -39.999 25.5s-20.166 23 -26.499 37
s-9.5 28.667 -9.5 44c0 27.333 7.5 53.333 22.5 78s33.667 46.834 56 66.501s46.666 36 72.999 49s50.833 21.5 73.5 25.5c-4 12.667 -13.333 26.834 -28 42.501s-33.334 31.834 -56.001 48.501h-279l-55 75h698c11.333 14 19.5 27.833 24.5 41.5s7.5 25.167 7.5 34.5
c0 13.333 -4.5 25 -13.5 35s-21.167 18.167 -36.5 24.5s-33.166 11.166 -53.499 14.499s-41.5 5 -63.5 5c-16 0 -37 -0.833008 -63 -2.5l-80 -5l-80 -5c-26 -1.66699 -47 -2.5 -63 -2.5c-29.333 0 -59 4.83301 -89 14.5s-57 24.334 -81 44.001s-43.667 44.334 -59 74.001
s-23 64.5 -23 104.5c0 19.333 2.5 38.666 7.5 57.999s9.5 37.666 13.5 54.999l55 -31c-5.33301 -14 -9 -27.167 -11 -39.5s-3 -23.833 -3 -34.5c0 -42.667 15.5 -74.167 46.5 -94.5s74.5 -30.5 130.5 -30.5c46.667 0 94.834 2.5 144.501 7.5s97.834 7.5 144.501 7.5
c78.667 0 138.5 -16.5 179.5 -49.5s61.5 -78.5 61.5 -136.5z" />
    <glyph glyph-name="bn_ii" unicode="&#x988;" horiz-adv-x="1005" 
d="M907 1211c0 -12.667 -1.83691 -26.8271 -5.50391 -42.4941s-9.5 -31.167 -17.5 -46.5h191l55 -75h-837l43 -78c32 -4.66699 62.333 -14.667 91 -30s53.834 -34.333 75.501 -57s38.834 -48.334 51.501 -77.001s19 -58.334 19 -89.001v-10
c0 -3.33301 -0.333008 -6.66602 -1 -9.99902l63.5 68.5c21.667 22.333 42.834 43 63.501 62s40.334 36 59.001 51s35 26.833 49 35.5l199 -116c-24 -20 -46.833 -45 -68.5 -75s-40.834 -64.333 -57.501 -103s-29.834 -81.334 -39.501 -128.001s-14.5 -97 -14.5 -151
c0 -20 1.33301 -45.333 4 -76s6 -62.334 10 -95.001s8.66699 -64.334 14 -95.001s11 -55.334 17 -74.001l-56 33c-14.667 54.667 -26.334 104.5 -35.001 149.5s-15.167 86.333 -19.5 124s-7 72 -8 103s-1.5 60.167 -1.5 87.5c0 44.667 5.83301 88 17.5 130
s25.167 84.333 40.5 127c-14.667 -4.66699 -32 -16.334 -52 -35.001s-41.333 -41.334 -64 -68.001l-70.5 -86.5l-71 -91l-65 -82.5c-20.333 -25.333 -37.833 -45 -52.5 -59c-14 -15.333 -27.5 -27 -40.5 -35s-30.5 -12 -52.5 -12c-20 0 -38.5 8 -55.5 24
s-32.5 35.333 -46.5 58s-26.833 46.667 -38.5 72l-30.5 67l62 18c2.66699 -10.667 6 -21.5 10 -32.5s8.66699 -20.833 14 -29.5s11.5 -15.834 18.5 -21.501s15.167 -8.5 24.5 -8.5c6.66699 0 16.5 4 29.5 12s27.667 18.833 44 32.5s33 29.167 50 46.5s32.333 35.333 46 54
s25 37.167 34 55.5s13.5 35.5 13.5 51.5c0 20 -3.5 39.833 -10.5 59.5s-16.667 37.167 -29 52.5s-26.666 27.833 -42.999 37.5s-33.833 14.5 -52.5 14.5c-11.333 0 -22.333 -2 -33 -6c7.33301 -10.667 12.666 -21.667 15.999 -33s5 -22.666 5 -33.999
c0 -15.333 -2.83301 -30.166 -8.5 -44.499s-13.834 -27 -24.501 -38s-23.167 -19.667 -37.5 -26s-29.833 -9.5 -46.5 -9.5c-17.333 0 -33.333 3.5 -48 10.5s-27.5 16.333 -38.5 28s-19.5 25.334 -25.5 41.001s-9 32.167 -9 49.5c0 46 13.667 83.833 41 113.5
s63 50.167 107 61.5c-19.333 30.667 -38.166 52.667 -56.499 66s-39.833 20 -64.5 20h-103l-55 75h811c11.333 14 19.5 27.833 24.5 41.5s7.5 25.167 7.5 34.5c0 13.333 -4.5 25 -13.5 35s-21.167 18.167 -36.5 24.5s-33.166 11.166 -53.499 14.499s-41.5 5 -63.5 5
c-16 0 -37 -0.833008 -63 -2.5l-80 -5l-80 -5c-26 -1.66699 -47 -2.5 -63 -2.5c-29.333 0 -59 4.83301 -89 14.5s-57 24.334 -81 44.001s-43.667 44.334 -59 74.001s-23 64.5 -23 104.5c0 19.333 2.5 38.666 7.5 57.999s9.5 37.666 13.5 54.999l55 -31
c-5.33301 -14 -9 -27.167 -11 -39.5s-3 -23.833 -3 -34.5c0 -42.667 15.5 -74.167 46.5 -94.5s74.5 -30.5 130.5 -30.5c46.667 0 94.834 2.5 144.501 7.5s97.834 7.5 144.501 7.5c78.667 0 138.5 -16.5 179.5 -49.5s61.5 -78.5 61.5 -136.5z" />
    </font>
</defs>
</svg>
